<svg width="24" height="24" viewBox="0 0 24 24" fill="none" xmlns="http://www.w3.org/2000/svg">
<rect x="24" y="24" width="24" height="24" rx="12" transform="rotate(-180 24 24)" fill="white"/>
<path d="M14.8061 14.5897L9.19388 14.5897C8.97231 14.59 8.75519 14.5276 8.56763 14.4096C8.38008 14.2917 8.22976 14.123 8.13409 13.9232C8.02209 13.6861 7.97895 13.4222 8.00959 13.1618C8.04023 12.9014 8.14341 12.6548 8.30739 12.4501L11.1135 9.05079C11.2236 8.92373 11.3598 8.82182 11.5127 8.75198C11.6657 8.68214 11.8319 8.646 12 8.646C12.1681 8.646 12.3343 8.68214 12.4873 8.75198C12.6402 8.82182 12.7764 8.92373 12.8865 9.05079L15.6926 12.4501C15.8566 12.6548 15.9598 12.9014 15.9904 13.1618C16.0211 13.4222 15.9779 13.6861 15.8659 13.9232C15.7702 14.123 15.6199 14.2917 15.4324 14.4096C15.2448 14.5276 15.0277 14.59 14.8061 14.5897Z" fill="#1A3D36"/>
</svg>
