<svg width="24" height="24" viewBox="0 0 24 24" fill="none" xmlns="http://www.w3.org/2000/svg">
<rect width="24" height="24" rx="12" fill="#1A3D36"/>
<path d="M9.19388 9.41029L14.8061 9.41029C15.0277 9.40997 15.2448 9.4724 15.4324 9.59036C15.6199 9.70832 15.7702 9.87698 15.8659 10.0768C15.9779 10.3139 16.0211 10.5778 15.9904 10.8382C15.9598 11.0986 15.8566 11.3452 15.6926 11.5499L12.8865 14.9492C12.7764 15.0763 12.6402 15.1782 12.4873 15.248C12.3343 15.3179 12.1681 15.354 12 15.354C11.8319 15.354 11.6657 15.3179 11.5127 15.248C11.3598 15.1782 11.2236 15.0763 11.1135 14.9492L8.30739 11.5499C8.14341 11.3452 8.04023 11.0986 8.00959 10.8382C7.97895 10.5778 8.02209 10.3139 8.13409 10.0768C8.22976 9.87698 8.38008 9.70832 8.56763 9.59036C8.75519 9.4724 8.97232 9.40997 9.19388 9.41029Z" fill="#7EFF9B"/>
</svg>
