<svg width="40" height="40" viewBox="0 0 40 40" fill="none" xmlns="http://www.w3.org/2000/svg">
<rect width="40" height="40" rx="20" transform="matrix(-1 0 0 1 40 0)" fill="white" fill-opacity="0.1"/>
<g clip-path="url(#clip0_164_687)">
<path d="M17.5437 15.4141C17.5437 15.9348 17.0293 16.7123 16.5086 17.3649C15.8392 18.207 15.0392 18.9418 14.122 19.5025C13.4342 19.9228 12.6006 20.3263 11.9297 20.3263M11.9297 20.3263C12.6006 20.3263 13.435 20.7299 14.122 21.1502C15.0392 21.7116 15.8392 22.4463 16.5086 23.287C17.0293 23.9404 17.5437 24.7193 17.5437 25.2386M11.9297 20.3263L28.7718 20.3263" stroke="white" stroke-width="1.40351"/>
</g>
<defs>
<clipPath id="clip0_164_687">
<rect width="16.8421" height="16.8421" fill="white" transform="matrix(4.37114e-08 1 1 -4.37114e-08 11.9297 11.9102)"/>
</clipPath>
</defs>
</svg>
