<svg width="32" height="32" viewBox="0 0 32 32" fill="none" xmlns="http://www.w3.org/2000/svg">
<rect width="32" height="32" rx="16" transform="matrix(1 0 0 -1 0 32)" fill="#7EFF9B"/>
<path d="M12.2572 19.4542L19.7402 19.4542C20.0356 19.4547 20.3251 19.3714 20.5752 19.2142C20.8253 19.0569 21.0257 18.832 21.1533 18.5655C21.3026 18.2494 21.3601 17.8976 21.3192 17.5504C21.2784 17.2031 21.1408 16.8743 20.9222 16.6015L17.1807 12.069C17.0339 11.8996 16.8523 11.7637 16.6484 11.6706C16.4445 11.5775 16.2229 11.5293 15.9987 11.5293C15.7745 11.5293 15.5529 11.5775 15.349 11.6706C15.1451 11.7637 14.9635 11.8996 14.8167 12.069L11.0752 16.6015C10.8566 16.8743 10.719 17.2031 10.6781 17.5504C10.6373 17.8976 10.6948 18.2494 10.8441 18.5655C10.9717 18.832 11.1721 19.0569 11.4222 19.2142C11.6723 19.3714 11.9618 19.4547 12.2572 19.4542Z" fill="#1A3D36"/>
</svg>
