<svg width="1440" height="354" viewBox="0 0 1440 354" fill="none" xmlns="http://www.w3.org/2000/svg">
<g clip-path="url(#clip0_164_499)">
<rect width="1105.79" height="1454" transform="translate(-14 947.789) rotate(-90)" fill="#F8F6F8"/>
<path d="M27.9863 994.34L51.2612 -217.327" stroke="#F6F3F5" stroke-width="109.529"/>
<path d="M829.831 401.512L977.924 155.984" stroke="#F6F3F5" stroke-width="109.529"/>
<path d="M1460.99 969.465L1445.48 312.974L1370.86 240.867L1206.11 210.062L485.27 42.5741" stroke="#F6F3F5" stroke-width="109.529"/>
<path d="M-102.536 44.1719L231.3 -289.664" stroke="white" stroke-width="18.2549"/>
<path d="M-34.7647 624.448L699.081 969.465L1002.5 699.065M1525.34 233.109L1112.21 601.287M1226.65 -101.411L1605.21 601.173M1112.21 601.287L1002.5 699.065M1112.21 601.287L785.849 370.876M459.486 140.466L785.849 370.876M1002.5 699.065L392.627 349.028M611.458 670.77L785.849 370.876" stroke="white" stroke-width="18.2549"/>
<path d="M1412.16 246.117L485.27 47.8237" stroke="white" stroke-width="36.5097"/>
<path d="M1440 296.09L1462.59 1107.06" stroke="white" stroke-width="36.5097"/>
<path d="M837.817 399.234L970.85 152.794" stroke="white" stroke-width="36.5097"/>
<path d="M46.2412 86.6172L508.089 50.5638" stroke="white" stroke-width="36.5097"/>
<path d="M27.0732 1012.59L52.63 -158.912L52.63 -235.126" stroke="white" stroke-width="36.5097"/>
<path d="M-54.6172 269.166L388.063 323.246L182.24 1003.01L516.76 -101.408" stroke="white" stroke-width="36.5097"/>
</g>
<defs>
<clipPath id="clip0_164_499">
<rect width="1105.79" height="1454" fill="white" transform="translate(-14 947.789) rotate(-90)"/>
</clipPath>
</defs>
</svg>
