<svg width="64" height="64" viewBox="0 0 64 64" fill="none" xmlns="http://www.w3.org/2000/svg">
<rect width="64" height="64" rx="32" transform="matrix(-1 0 0 1 64 0)" fill="white" fill-opacity="0.1"/>
<path d="M32 32.5C33.6569 32.5 35 31.1569 35 29.5C35 27.8431 33.6569 26.5 32 26.5C30.3431 26.5 29 27.8431 29 29.5C29 31.1569 30.3431 32.5 32 32.5Z" stroke="white" stroke-width="1.5" stroke-linecap="round" stroke-linejoin="round"/>
<path d="M32 42C34 38 40 35.4183 40 30C40 25.5817 36.4183 22 32 22C27.5817 22 24 25.5817 24 30C24 35.4183 30 38 32 42Z" stroke="white" stroke-width="1.5" stroke-linecap="round" stroke-linejoin="round"/>
</svg>
