<svg width="80" height="25" viewBox="0 0 80 25" fill="none" xmlns="http://www.w3.org/2000/svg">
<path d="M0 0.5V24.2838H4.29652V7.14865L7.1879 24.2838H11.4574L14.1866 7.14865V24.2838H18.5372V0.5H11.2277L9.24158 15L7.24194 0.5H0Z" fill="#1A3D36"/>
<path d="M21.6718 23.7162C22.2663 24.2387 23.1265 24.5 24.2524 24.5C24.946 24.5 25.563 24.2748 26.1034 23.8243C26.6439 23.3739 27.0312 22.7252 27.2654 21.8784V24.2838H34.0947L32.2476 12.912L30.5258 13.4589L27.1843 15.0073V19.1622C27.1843 19.5495 27.1122 19.9099 26.9681 20.2432C26.824 20.5766 26.5538 20.7432 26.1575 20.7432C25.4369 20.7432 25.0766 20.1441 25.0766 18.9459V16.3378C25.0766 15.545 25.6305 14.5405 25.6305 14.5405L31.8188 10.2716L31.4847 8.21463L31.4846 8.21397L31.484 8.20941L31.4835 8.20538C31.3825 7.39678 31.3404 7.06019 31.2998 6.72343C31.2712 6.48661 31.2419 6.23734 31.1947 5.83616C30.6993 5.08841 30.1477 4.75676 29.292 4.37838C28.4363 3.99099 27.468 3.7973 26.3871 3.7973C24.3244 3.7973 22.8157 4.22072 21.8609 5.06757C20.9152 5.90541 20.4423 7.33333 20.4423 9.35135V9.74324C20.4423 9.85135 20.4468 9.94144 20.4558 10.0135H25.1576V8.7973C25.1576 7.91441 25.4819 7.47297 26.1304 7.47297C26.842 7.47297 27.1978 8.01802 27.1978 9.10811V11.1892L24.1983 12.2162C23.1625 12.5676 22.3473 12.9955 21.7528 13.5C21.1674 14.0045 20.753 14.6532 20.5098 15.4459C20.2666 16.2297 20.145 17.2387 20.145 18.473C20.145 19.6261 20.2531 20.6577 20.4693 21.5676C20.6855 22.4775 21.0863 23.1937 21.6718 23.7162Z" fill="#1A3D36"/>
<path d="M34.6421 12.591L36.2953 12.6249L38.8867 13.0089L39.2767 17.5541L39.7049 13.1301L39.7993 12.155L40.5873 4.01351H45.4243L42.114 24.2838H36.5205L34.6421 12.591Z" fill="#1A3D36"/>
<path d="M38.7538 11.4603L38.1148 4.01351H33.2643L34.219 9.95672L38.7538 11.4603Z" fill="#1A3D36"/>
<path d="M46.6943 0.5V24.2838H51.6123V0.5H46.6943Z" fill="#1A3D36"/>
<path fill-rule="evenodd" clip-rule="evenodd" d="M59.4488 24.5C55.4134 24.5 53.3958 22.4054 53.3958 18.2162V10.0811C53.3958 8.17117 53.9317 6.64865 55.0036 5.51351C56.0755 4.36937 57.5572 3.7973 59.4488 3.7973C61.3493 3.7973 62.8355 4.36937 63.9074 5.51351C64.9793 6.64865 65.5152 8.17117 65.5152 10.0811V18.2162C65.5152 22.4054 63.4931 24.5 59.4488 24.5ZM59.4488 20.7703C59.8541 20.7703 60.1423 20.6261 60.3135 20.3378C60.4936 20.0405 60.5837 19.6667 60.5837 19.2162V9.31081C60.5837 8.13063 60.2054 7.54054 59.4488 7.54054C58.6921 7.54054 58.3138 8.13063 58.3138 9.31081V19.2162C58.3138 19.6667 58.3994 20.0405 58.5705 20.3378C58.7507 20.6261 59.0434 20.7703 59.4488 20.7703Z" fill="#1A3D36"/>
<path d="M67.3122 4.01351V24.2838H72.1492V10.027C72.1492 9.64865 72.1717 9.27027 72.2167 8.89189C72.2618 8.50451 72.3698 8.18468 72.541 7.93243C72.7211 7.67117 72.9959 7.54054 73.3652 7.54054C73.7615 7.54054 74.0407 7.71171 74.2029 8.05405C74.365 8.38739 74.4461 8.75225 74.4461 9.14865V24.2838H79.2155V8.64865C79.2155 7.14414 78.8957 5.95946 78.2562 5.09459C77.6257 4.22973 76.6078 3.7973 75.2027 3.7973C74.329 3.7973 73.6444 4.07207 73.149 4.62162C72.6626 5.16216 72.3293 5.81982 72.1492 6.59459V4.01351H67.3122Z" fill="#1A3D36"/>
</svg>
