<svg width="180" height="80" viewBox="0 0 180 80" fill="none" xmlns="http://www.w3.org/2000/svg">
<path d="M0 0V53.9614H9.74808V15.0847L16.3081 53.9614H25.9949L32.1871 15.0847V53.9614H42.0578V0H25.4738L20.9676 32.898L16.4307 0H0Z" fill="#1A3D36"/>
<path d="M49.1696 52.6736C50.5184 53.8592 52.47 54.4519 55.0246 54.4519C56.5981 54.4519 57.998 53.9409 59.2242 52.9189C60.4504 51.8969 61.3291 50.4253 61.8605 48.5039V53.9614H77.3551L73.1644 28.1608L69.2579 29.4014L61.6765 32.9146V42.3413C61.6765 43.2202 61.5131 44.0378 61.1861 44.7941C60.8591 45.5503 60.246 45.9285 59.3468 45.9285C57.7119 45.9285 56.8945 44.5692 56.8945 41.8507V35.9334C56.8945 34.1347 58.1513 31.8556 58.1513 31.8556L72.1914 22.17L71.4334 17.5032L71.4332 17.5017L71.4319 17.4913L71.4307 17.4822C71.2015 15.6476 71.106 14.884 71.0138 14.1199C70.949 13.5826 70.8825 13.017 70.7754 12.1068C69.6514 10.4103 68.4001 9.65786 66.4586 8.79938C64.5172 7.92047 62.3203 7.48101 59.8679 7.48101C55.188 7.48101 51.765 8.44168 49.5987 10.363C47.4529 12.2639 46.38 15.5037 46.38 20.0822V20.9713C46.38 21.2166 46.3903 21.421 46.4107 21.5845H57.0784V18.8252C57.0784 16.822 57.8141 15.8205 59.2855 15.8205C60.9 15.8205 61.7072 17.0571 61.7072 19.5303V24.252L54.9019 26.5821C52.5518 27.3793 50.7023 28.3502 49.3535 29.4948C48.0251 30.6394 47.0851 32.1111 46.5333 33.9098C45.9815 35.6881 45.7056 37.9774 45.7056 40.7776C45.7056 43.3939 45.9509 45.7343 46.4413 47.7987C46.9318 49.8632 47.8412 51.4881 49.1696 52.6736Z" fill="#1A3D36"/>
<path d="M78.5971 27.4323L82.3478 27.5094L88.2273 28.3805L89.1122 38.6928L90.0837 28.6555L90.2978 26.4432L92.0857 7.97157H103.06L95.5496 53.9614H82.8587L78.5971 27.4323Z" fill="#1A3D36"/>
<path d="M87.9258 24.8671L86.4759 7.97157H75.471L77.6371 21.4557L87.9258 24.8671Z" fill="#1A3D36"/>
<path d="M105.941 0V53.9614H117.1V0H105.941Z" fill="#1A3D36"/>
<path fill-rule="evenodd" clip-rule="evenodd" d="M134.879 54.4519C125.724 54.4519 121.146 49.6996 121.146 40.1951V21.7378C121.146 17.4046 122.362 13.9502 124.794 11.3748C127.226 8.77894 130.588 7.48101 134.879 7.48101C139.191 7.48101 142.563 8.77894 144.995 11.3748C147.427 13.9502 148.643 17.4046 148.643 21.7378V40.1951C148.643 49.6996 144.055 54.4519 134.879 54.4519ZM134.879 45.9898C135.799 45.9898 136.453 45.6628 136.841 45.0087C137.25 44.3342 137.454 43.4859 137.454 42.4639V19.9902C137.454 17.3126 136.596 15.9738 134.879 15.9738C133.162 15.9738 132.304 17.3126 132.304 19.9902V42.4639C132.304 43.4859 132.498 44.3342 132.887 45.0087C133.295 45.6628 133.959 45.9898 134.879 45.9898Z" fill="#1A3D36"/>
<path d="M152.72 7.97157V53.9614H163.694V21.6152C163.694 20.7567 163.745 19.8983 163.847 19.0398C163.95 18.1609 164.195 17.4352 164.583 16.8629C164.992 16.2702 165.615 15.9738 166.453 15.9738C167.352 15.9738 167.986 16.3622 168.354 17.1389C168.722 17.8951 168.905 18.723 168.905 19.6223V53.9614H179.726V18.4879C179.726 15.0744 179.001 12.3866 177.55 10.4244C176.119 8.46212 173.81 7.48101 170.622 7.48101C168.64 7.48101 167.087 8.10442 165.963 9.35126C164.859 10.5777 164.103 12.0698 163.694 13.8276V7.97157H152.72Z" fill="#1A3D36"/>
<path d="M54.1126 79.999C52.8802 79.999 51.8603 79.744 51.0529 79.234C50.2667 78.7028 49.6718 78.0866 49.268 77.3854C48.8856 76.6842 48.6943 76.0574 48.6943 75.505H50.6704C50.6704 75.5262 50.6811 75.6856 50.7023 75.9831C50.7448 76.2805 50.8617 76.6205 51.0529 77.003C51.2441 77.3854 51.5735 77.7254 52.0409 78.0229C52.5084 78.2991 53.1883 78.4372 54.0808 78.4372C55.0369 78.4372 55.855 78.2672 56.5349 77.9273C57.2361 77.5873 57.5761 77.0561 57.5549 76.3337C57.5549 75.7174 57.3424 75.25 56.9174 74.9313C56.5137 74.5913 55.9825 74.3363 55.3238 74.1663C54.6651 73.9751 53.9745 73.7945 53.2521 73.6245C52.5297 73.4545 51.8391 73.242 51.1804 72.987C50.5429 72.7108 50.0223 72.3283 49.6186 71.8396C49.2149 71.3509 49.0131 70.671 49.0131 69.7998C49.0131 68.7374 49.4911 67.8981 50.4473 67.2819C51.4035 66.6444 52.6253 66.3257 54.1126 66.3257C54.9413 66.3257 55.7806 66.4638 56.6306 66.74C57.4805 66.995 58.1817 67.4518 58.7341 68.1105C59.2866 68.748 59.5416 69.651 59.4991 70.8197H57.5867C57.6292 70.0123 57.4486 69.4067 57.0449 69.003C56.6412 68.5993 56.1525 68.3337 55.5788 68.2062C55.0263 68.0574 54.5164 67.9831 54.0489 67.9831C53.1352 67.9831 52.3809 68.153 51.786 68.493C51.2123 68.833 50.9254 69.3111 50.9254 69.9273C50.9254 70.5222 51.1273 70.9791 51.531 71.2978C51.9559 71.5953 52.4872 71.8396 53.1246 72.0309C53.7833 72.2009 54.4739 72.3708 55.1963 72.5408C55.94 72.6896 56.6412 72.902 57.2999 73.1783C57.9586 73.4545 58.4898 73.8476 58.8935 74.3576C59.3185 74.8675 59.531 75.5687 59.531 76.4611C59.531 77.6935 59.0104 78.5966 57.9692 79.1703C56.928 79.7228 55.6425 79.999 54.1126 79.999Z" fill="#1A3D36"/>
<path d="M39.3311 79.6805V66.7084H41.1797L41.4028 70.1188C41.5302 69.5451 41.7852 68.9926 42.1677 68.4614C42.5502 67.9302 43.0707 67.5052 43.7294 67.1865C44.4094 66.8465 45.2487 66.6872 46.2474 66.7084H46.8529V68.9714H46.2155C44.8556 68.9714 43.8251 69.1732 43.1239 69.5769C42.4439 69.9594 41.9765 70.5012 41.7215 71.2024C41.4878 71.9036 41.3709 72.7111 41.3709 73.6248V79.6805H39.3311Z" fill="#1A3D36"/>
<path d="M29.3127 79.9993C28.2502 79.9993 27.3897 79.8081 26.731 79.4256C26.0935 79.0432 25.6048 78.5332 25.2649 77.8957C24.9249 77.237 24.6911 76.5252 24.5637 75.7603C24.4574 74.9741 24.4043 74.1879 24.4043 73.4017V66.7085H26.4441V73.4336C26.4441 74.2835 26.5291 75.0697 26.6991 75.7922C26.8691 76.5146 27.2091 77.0883 27.719 77.5133C28.2502 77.9382 29.0152 78.1507 30.0138 78.1507C30.97 78.1507 31.7137 77.9382 32.2449 77.5133C32.7974 77.0671 33.2011 76.4934 33.4561 75.7922C33.711 75.091 33.8598 74.3579 33.9023 73.593V66.7085H36.0059V79.6806H34.2529L33.9023 76.7802H33.8385C33.7323 77.1414 33.5092 77.577 33.1692 78.087C32.8292 78.5969 32.3405 79.0432 31.7031 79.4256C31.0869 79.8081 30.2901 79.9993 29.3127 79.9993Z" fill="#1A3D36"/>
<path d="M15.4794 80C13.3971 80 11.8354 79.3838 10.7942 78.1514C9.77427 76.8977 9.26431 75.3041 9.26431 73.3705C9.24306 71.4156 9.75302 69.822 10.7942 68.5896C11.8566 67.3359 13.4183 66.6985 15.4794 66.6772C17.5193 66.6772 19.0598 67.2934 20.1009 68.5259C21.1633 69.737 21.6946 71.3519 21.6946 73.3705C21.6946 74.6241 21.4714 75.7503 21.0252 76.749C20.579 77.7476 19.8991 78.5444 18.9854 79.1394C18.0717 79.7131 16.9031 80 15.4794 80ZM15.4794 78.2151C16.5843 78.2151 17.4343 77.9707 18.0292 77.482C18.6454 76.9933 19.0704 76.3771 19.3041 75.6334C19.5591 74.8685 19.6866 74.0929 19.6866 73.3067C19.6866 72.5205 19.5591 71.745 19.3041 70.98C19.0704 70.2151 18.6454 69.5883 18.0292 69.0996C17.4343 68.6108 16.5843 68.3665 15.4794 68.3665C14.3745 68.3665 13.514 68.6108 12.8978 69.0996C12.3028 69.5883 11.8778 70.2151 11.6229 70.98C11.3891 71.745 11.2723 72.5205 11.2723 73.3067C11.2723 74.0929 11.3891 74.8685 11.6229 75.6334C11.8778 76.3771 12.3028 76.9933 12.8978 77.482C13.514 77.9707 14.3745 78.2151 15.4794 78.2151Z" fill="#1A3D36"/>
<path d="M4.14341 79.6815C3.35723 79.6815 2.80477 79.469 2.48605 79.0441C2.18857 78.6191 2.03983 78.0348 2.03983 77.2911V68.2393H0V66.7094C0.679945 66.7094 1.17928 66.6563 1.498 66.55C1.83798 66.4226 2.05046 66.1251 2.13545 65.6576C2.22045 65.1901 2.26294 64.4252 2.26294 63.3628H4.01592V66.7094H7.01193V68.2393H4.01592V78.0241H7.0438V79.6815H4.14341Z" fill="#1A3D36"/>
</svg>
