<svg width="32" height="32" viewBox="0 0 32 32" fill="none" xmlns="http://www.w3.org/2000/svg">
<rect width="32" height="32" rx="16" transform="matrix(-1 0 0 1 32 0)" fill="white" fill-opacity="0.11"/>
<path d="M19.7428 12.5458L12.2598 12.5458C11.9644 12.5453 11.6749 12.6286 11.4248 12.7858C11.1747 12.9431 10.9743 13.168 10.8467 13.4345C10.6974 13.7506 10.6399 14.1024 10.6808 14.4496C10.7216 14.7969 10.8592 15.1257 11.0778 15.3985L14.8193 19.931C14.9661 20.1004 15.1477 20.2363 15.3516 20.3294C15.5555 20.4225 15.7771 20.4707 16.0013 20.4707C16.2255 20.4707 16.4471 20.4225 16.651 20.3294C16.8549 20.2363 17.0365 20.1004 17.1833 19.931L20.9248 15.3985C21.1434 15.1257 21.281 14.7969 21.3219 14.4496C21.3627 14.1024 21.3052 13.7506 21.1559 13.4345C21.0283 13.168 20.8279 12.9431 20.5778 12.7858C20.3277 12.6286 20.0382 12.5453 19.7428 12.5458Z" fill="white" fill-opacity="0.59"/>
</svg>
