<svg width="33" height="32" viewBox="0 0 33 32" fill="none" xmlns="http://www.w3.org/2000/svg">
<path fill-rule="evenodd" clip-rule="evenodd" d="M4.0127 9C4.0127 8.44772 4.46041 8 5.0127 8H27.0127C27.565 8 28.0127 8.44772 28.0127 9C28.0127 9.55228 27.565 10 27.0127 10H5.0127C4.46041 10 4.0127 9.55228 4.0127 9ZM4.0127 16C4.0127 15.4477 4.46041 15 5.0127 15H27.0127C27.565 15 28.0127 15.4477 28.0127 16C28.0127 16.5523 27.565 17 27.0127 17H5.0127C4.46041 17 4.0127 16.5523 4.0127 16ZM15.0127 23C15.0127 22.4477 15.4604 22 16.0127 22H27.0127C27.565 22 28.0127 22.4477 28.0127 23C28.0127 23.5523 27.565 24 27.0127 24H16.0127C15.4604 24 15.0127 23.5523 15.0127 23Z" fill="#1A3D36"/>
</svg>
