<svg width="64" height="64" viewBox="0 0 64 64" fill="none" xmlns="http://www.w3.org/2000/svg">
<rect width="64" height="64" rx="32" transform="matrix(-1 0 0 1 64 0)" fill="white" fill-opacity="0.1"/>
<path d="M28.3803 28.8534C29.0763 30.303 30.0251 31.6616 31.2266 32.8632C32.4282 34.0648 33.7869 35.0136 35.2365 35.7096C35.3612 35.7694 35.4235 35.7994 35.5024 35.8224C35.7828 35.9041 36.127 35.8454 36.3644 35.6754C36.4313 35.6275 36.4884 35.5704 36.6027 35.4561C36.9523 35.1064 37.1271 34.9316 37.3029 34.8174C37.9658 34.3864 38.8204 34.3864 39.4833 34.8174C39.6591 34.9316 39.8339 35.1064 40.1835 35.4561L40.3783 35.6509C40.9098 36.1824 41.1755 36.4481 41.3198 36.7335C41.6069 37.301 41.6069 37.9713 41.3198 38.5389C41.1755 38.8242 40.9098 39.09 40.3783 39.6214L40.2207 39.779C39.6911 40.3087 39.4263 40.5735 39.0662 40.7757C38.6667 41.0001 38.0462 41.1615 37.588 41.1601C37.1751 41.1589 36.8928 41.0788 36.3284 40.9186C33.295 40.0576 30.4326 38.4332 28.0447 36.0452C25.6567 33.6572 24.0322 30.7948 23.1712 27.7614C23.011 27.197 22.9309 26.9148 22.9297 26.5018C22.9283 26.0436 23.0897 25.4231 23.3141 25.0236C23.5164 24.6636 23.7812 24.3988 24.3108 23.8691L24.4684 23.7115C24.9999 23.1801 25.2656 22.9143 25.551 22.77C26.1185 22.4829 26.7888 22.4829 27.3564 22.77C27.6417 22.9143 27.9075 23.1801 28.4389 23.7115L28.6338 23.9064C28.9834 24.256 29.1582 24.4308 29.2725 24.6066C29.7035 25.2694 29.7035 26.124 29.2725 26.7869C29.1582 26.9627 28.9834 27.1375 28.6338 27.4871C28.5195 27.6014 28.4623 27.6586 28.4145 27.7254C28.2445 27.9628 28.1858 28.3071 28.2675 28.5874C28.2905 28.6663 28.3204 28.7287 28.3803 28.8534Z" stroke="white" stroke-width="1.5" stroke-linecap="round" stroke-linejoin="round"/>
</svg>
