<svg width="16" height="17" viewBox="0 0 16 17" fill="none" xmlns="http://www.w3.org/2000/svg">
<path d="M12.0213 11.5806L14.8767 14.4353L13.9333 15.3786L11.0787 12.5233C10.0165 13.3748 8.69532 13.8379 7.33398 13.8359C4.02198 13.8359 1.33398 11.1479 1.33398 7.83594C1.33398 4.52394 4.02198 1.83594 7.33398 1.83594C10.646 1.83594 13.334 4.52394 13.334 7.83594C13.3359 9.19727 12.8728 10.5184 12.0213 11.5806ZM10.684 11.0859C11.5301 10.2159 12.0026 9.04956 12.0007 7.83594C12.0007 5.25794 9.91198 3.16927 7.33398 3.16927C4.75598 3.16927 2.66732 5.25794 2.66732 7.83594C2.66732 10.4139 4.75598 12.5026 7.33398 12.5026C8.5476 12.5045 9.71391 12.032 10.584 11.1859L10.684 11.0859Z" fill="#BDBDBD"/>
</svg>
