<svg width="32" height="32" viewBox="0 0 32 32" fill="none" xmlns="http://www.w3.org/2000/svg">
<path d="M12.666 16.532L14.5713 18.6654L19.3327 13.332" stroke="black" stroke-width="2" stroke-linecap="round" stroke-linejoin="round"/>
<path d="M4 13.8867C4 9.62273 4 7.49073 4.504 6.7734C5.00667 6.0574 7.01067 5.37073 11.02 3.99873L11.784 3.7374C13.8733 3.0214 14.9173 2.66406 16 2.66406C17.0813 2.66406 18.1267 3.0214 20.216 3.7374L20.98 3.99873C24.9893 5.37073 26.9933 6.0574 27.496 6.7734C28 7.49073 28 9.62406 28 13.8867V15.9854C28 19.3254 26.884 21.9014 25.3333 23.8694M4.25733 18.6641C5.4 24.3947 10.1013 27.3481 13.1987 28.7001C14.16 29.1201 14.6413 29.3307 16 29.3307C17.36 29.3307 17.84 29.1201 18.8013 28.7001C19.5733 28.3641 20.4427 27.9267 21.3333 27.3747" stroke="black" stroke-width="2" stroke-linecap="round"/>
</svg>
