<svg width="17" height="16" viewBox="0 0 17 16" fill="none" xmlns="http://www.w3.org/2000/svg">
<path d="M2.12367 3.4333C1.83301 3.76397 1.83301 4.33197 1.83301 5.46663V11.7293C1.83301 12.5333 1.83301 12.9353 2.04301 13.238C2.25234 13.5406 2.61901 13.668 3.35234 13.922L4.21501 14.2213C4.68234 14.3833 5.04167 14.508 5.34367 14.588C5.54101 14.6406 5.72167 14.486 5.72167 14.282V4.18197C5.71937 4.101 5.69032 4.02308 5.63906 3.96037C5.58781 3.89765 5.51723 3.85368 5.43834 3.8353C5.17901 3.7693 4.86701 3.6613 4.43967 3.5133C3.40434 3.15397 2.88634 2.97463 2.49301 3.15663C2.35193 3.22205 2.22611 3.3163 2.12367 3.4333ZM8.91301 2.32263L7.88901 3.03263C7.51901 3.2893 7.24701 3.47797 7.01567 3.61197C6.96116 3.64242 6.9156 3.68665 6.88355 3.74023C6.85149 3.79381 6.83406 3.85487 6.83301 3.9173V13.9486C6.83301 14.1953 7.08901 14.35 7.29701 14.2166C7.52034 14.074 7.77634 13.8966 8.08634 13.682L9.11034 12.972C9.48034 12.7153 9.75234 12.5266 9.98367 12.3926C10.0382 12.3622 10.0837 12.318 10.1158 12.2644C10.1479 12.2108 10.1653 12.1497 10.1663 12.0873V2.0553C10.1663 1.80797 9.91034 1.65397 9.70234 1.78663C9.47901 1.92997 9.22301 2.1073 8.91301 2.32263ZM13.6463 2.08197L12.7843 1.7833C12.317 1.6213 11.9577 1.49663 11.6557 1.41663C11.4583 1.36397 11.2777 1.51863 11.2777 1.72263V11.8226C11.28 11.9036 11.309 11.9815 11.3603 12.0442C11.4115 12.1069 11.4821 12.1509 11.561 12.1693C11.8203 12.2353 12.1323 12.3426 12.5597 12.4913C13.595 12.8506 14.113 13.03 14.5063 12.848C14.6474 12.7826 14.7732 12.6883 14.8757 12.5713C15.1663 12.2406 15.1663 11.6726 15.1663 10.538V4.2753C15.1663 3.4713 15.1663 3.06863 14.9563 2.76663C14.747 2.46397 14.3803 2.33663 13.647 2.08263" fill="#BDBDBD"/>
</svg>
