<svg width="17" height="16" viewBox="0 0 17 16" fill="none" xmlns="http://www.w3.org/2000/svg">
<path d="M5.66641 1.66797C5.66641 1.53536 5.61373 1.40818 5.51996 1.31442C5.42619 1.22065 5.29902 1.16797 5.16641 1.16797C5.0338 1.16797 4.90662 1.22065 4.81286 1.31442C4.71909 1.40818 4.66641 1.53536 4.66641 1.66797V2.7213C3.70641 2.79797 3.07708 2.98597 2.61441 3.4493C2.15108 3.91197 1.96308 4.54197 1.88574 5.5013H15.1137C15.0364 4.5413 14.8484 3.91197 14.3851 3.4493C13.9224 2.98597 13.2924 2.79797 12.3331 2.72064V1.66797C12.3331 1.53536 12.2804 1.40818 12.1866 1.31442C12.0929 1.22065 11.9657 1.16797 11.8331 1.16797C11.7005 1.16797 11.5733 1.22065 11.4795 1.31442C11.3858 1.40818 11.3331 1.53536 11.3331 1.66797V2.67664C10.8897 2.66797 10.3924 2.66797 9.83308 2.66797H7.16641C6.60708 2.66797 6.10974 2.66797 5.66641 2.67664V1.66797Z" fill="#BDBDBD"/>
<path fill-rule="evenodd" clip-rule="evenodd" d="M15.1663 8C15.1663 7.44067 15.1663 6.94333 15.1577 6.5H1.84167C1.83301 6.94333 1.83301 7.44067 1.83301 8V9.33333C1.83301 11.8473 1.83301 13.1047 2.61434 13.8853C3.39501 14.6667 4.65234 14.6667 7.16634 14.6667H9.83301C12.347 14.6667 13.6043 14.6667 14.385 13.8853C15.1663 13.1047 15.1663 11.8473 15.1663 9.33333V8ZM9.83301 8.16667C9.52359 8.16667 9.22684 8.28958 9.00805 8.50838C8.78926 8.72717 8.66634 9.02391 8.66634 9.33333V10.6667C8.66634 10.9761 8.78926 11.2728 9.00805 11.4916C9.22684 11.7104 9.52359 11.8333 9.83301 11.8333C10.1424 11.8333 10.4392 11.7104 10.658 11.4916C10.8768 11.2728 10.9997 10.9761 10.9997 10.6667V9.33333C10.9997 9.02391 10.8768 8.72717 10.658 8.50838C10.4392 8.28958 10.1424 8.16667 9.83301 8.16667ZM9.83301 9.16667C9.7888 9.16667 9.74641 9.18423 9.71516 9.21548C9.6839 9.24674 9.66634 9.28913 9.66634 9.33333V10.6667C9.66634 10.7109 9.6839 10.7533 9.71516 10.7845C9.74641 10.8158 9.7888 10.8333 9.83301 10.8333C9.87721 10.8333 9.9196 10.8158 9.95086 10.7845C9.98211 10.7533 9.99967 10.7109 9.99967 10.6667V9.33333C9.99967 9.28913 9.98211 9.24674 9.95086 9.21548C9.9196 9.18423 9.87721 9.16667 9.83301 9.16667ZM7.69101 8.20467C7.78238 8.24251 7.86048 8.30661 7.91542 8.38884C7.97037 8.47108 7.99969 8.56776 7.99967 8.66667V11.3333C7.99967 11.4659 7.947 11.5931 7.85323 11.6869C7.75946 11.7807 7.63228 11.8333 7.49967 11.8333C7.36707 11.8333 7.23989 11.7807 7.14612 11.6869C7.05235 11.5931 6.99967 11.4659 6.99967 11.3333V9.87333L6.85301 10.02C6.75822 10.1083 6.63286 10.1564 6.50333 10.1541C6.37379 10.1518 6.2502 10.0994 6.15859 10.0077C6.06698 9.91614 6.01451 9.79255 6.01222 9.66301C6.00994 9.53348 6.05802 9.40812 6.14634 9.31333L7.14634 8.31333C7.21622 8.24341 7.30525 8.19576 7.4022 8.17642C7.49914 8.15708 7.59965 8.16691 7.69101 8.20467Z" fill="#BDBDBD"/>
</svg>
