<svg width="16" height="16" viewBox="0 0 16 16" fill="none" xmlns="http://www.w3.org/2000/svg">
<path fill-rule="evenodd" clip-rule="evenodd" d="M5.83301 1.3407V14.6654H9.99967C11.885 14.6654 12.8283 14.6654 13.4137 14.0794C13.9997 13.494 13.9997 12.5507 13.9997 10.6654V5.33203C13.9997 3.4467 13.9997 2.50336 13.4137 1.91803C12.8283 1.33203 11.885 1.33203 9.99967 1.33203H5.99967L5.83301 1.3407ZM7.16634 4.33203C7.16634 4.19942 7.21902 4.07225 7.31279 3.97848C7.40656 3.88471 7.53373 3.83203 7.66634 3.83203H10.9997C11.1323 3.83203 11.2595 3.88471 11.3532 3.97848C11.447 4.07225 11.4997 4.19942 11.4997 4.33203C11.4997 4.46464 11.447 4.59182 11.3532 4.68558C11.2595 4.77935 11.1323 4.83203 10.9997 4.83203H7.66634C7.53373 4.83203 7.40656 4.77935 7.31279 4.68558C7.21902 4.59182 7.16634 4.46464 7.16634 4.33203ZM7.16634 6.66536C7.16634 6.53276 7.21902 6.40558 7.31279 6.31181C7.40656 6.21804 7.53373 6.16536 7.66634 6.16536H10.9997C11.1323 6.16536 11.2595 6.21804 11.3532 6.31181C11.447 6.40558 11.4997 6.53276 11.4997 6.66536C11.4997 6.79797 11.447 6.92515 11.3532 7.01892C11.2595 7.11269 11.1323 7.16536 10.9997 7.16536H7.66634C7.53373 7.16536 7.40656 7.11269 7.31279 7.01892C7.21902 6.92515 7.16634 6.79797 7.16634 6.66536ZM1.99967 4.83203C2.00501 3.2747 2.05367 2.44936 2.58567 1.91803C3.03567 1.46803 3.69634 1.36336 4.83301 1.33936V14.658C3.69634 14.634 3.03567 14.5294 2.58567 14.0794C2.05367 13.548 2.00501 12.7227 2.00034 11.1654H2.66634C2.79895 11.1654 2.92613 11.1127 3.01989 11.0189C3.11366 10.9251 3.16634 10.798 3.16634 10.6654C3.16634 10.5328 3.11366 10.4056 3.01989 10.3118C2.92613 10.218 2.79895 10.1654 2.66634 10.1654H1.99967V8.4987H2.66634C2.79895 8.4987 2.92613 8.44602 3.01989 8.35225C3.11366 8.25848 3.16634 8.13131 3.16634 7.9987C3.16634 7.86609 3.11366 7.73891 3.01989 7.64514C2.92613 7.55138 2.79895 7.4987 2.66634 7.4987H1.99967V5.83203H2.66634C2.79895 5.83203 2.92613 5.77935 3.01989 5.68558C3.11366 5.59182 3.16634 5.46464 3.16634 5.33203C3.16634 5.19942 3.11366 5.07225 3.01989 4.97848C2.92613 4.88471 2.79895 4.83203 2.66634 4.83203H1.99967ZM1.99967 4.83203H1.33301C1.2004 4.83203 1.07322 4.88471 0.979454 4.97848C0.885686 5.07225 0.833008 5.19942 0.833008 5.33203C0.833008 5.46464 0.885686 5.59182 0.979454 5.68558C1.07322 5.77935 1.2004 5.83203 1.33301 5.83203H1.99967V5.33203V4.83203ZM1.99967 8.4987H1.33301C1.2004 8.4987 1.07322 8.44602 0.979454 8.35225C0.885686 8.25848 0.833008 8.13131 0.833008 7.9987C0.833008 7.86609 0.885686 7.73891 0.979454 7.64514C1.07322 7.55138 1.2004 7.4987 1.33301 7.4987H1.99967V8.4987ZM1.99967 10.1654H1.33301C1.2004 10.1654 1.07322 10.218 0.979454 10.3118C0.885686 10.4056 0.833008 10.5328 0.833008 10.6654C0.833008 10.798 0.885686 10.9251 0.979454 11.0189C1.07322 11.1127 1.2004 11.1654 1.33301 11.1654H2.00034L1.99967 10.6654V10.1654Z" fill="#BDBDBD"/>
</svg>
