<svg width="32" height="32" viewBox="0 0 32 32" fill="none" xmlns="http://www.w3.org/2000/svg">
<path d="M20.3575 24.3083C17.7175 27.8789 16.3988 29.6643 15.1681 29.2869C13.9375 28.9096 13.9375 26.7203 13.9375 22.3403V21.9269C13.9375 20.3469 13.9375 19.5576 13.4322 19.0629L13.4055 19.0363C12.8895 18.5523 12.0681 18.5523 10.4241 18.5523C7.46415 18.5523 5.98548 18.5523 5.48682 17.6549C5.4781 17.64 5.46966 17.6249 5.46148 17.6096C4.98948 16.6989 5.84682 15.5403 7.56015 13.2229L11.6428 7.69627C14.2815 4.1256 15.6015 2.34027 16.8321 2.7176C18.0628 3.09493 18.0628 5.28427 18.0628 9.66427V10.0776C18.0628 11.6576 18.0628 12.4469 18.5681 12.9416L18.5948 12.9683C19.1108 13.4523 19.9321 13.4523 21.5761 13.4523C24.5361 13.4523 26.0148 13.4523 26.5148 14.3496L26.5388 14.3949C27.0108 15.3056 26.1535 16.4656 24.4401 18.7816" stroke="black" stroke-width="2" stroke-linecap="round"/>
</svg>
