<svg width="21" height="36" viewBox="0 0 21 36" fill="none" xmlns="http://www.w3.org/2000/svg">
<path d="M2.56748 16.8819C2.45613 16.1812 3.00593 15.5505 3.71524 15.5652L5.17771 15.5956L9.08557 16.1808C9.38977 16.2264 9.62286 16.4749 9.64888 16.7813C9.71732 17.5875 10.8944 17.5938 10.9715 16.7885L11.0022 16.4678L11.1635 14.7842L12.411 1.75628C12.4669 1.17236 12.9574 0.726562 13.544 0.726562H19.6341C20.2628 0.726562 20.7724 1.23616 20.7724 1.86477V34.5884C20.7724 35.217 20.2628 35.7266 19.6341 35.7266H6.53398C5.97433 35.7266 5.49772 35.3197 5.40988 34.767L2.56748 16.8819Z" fill="#135519"/>
<path d="M7.73515 13.0343C8.51141 13.2944 9.30023 12.6745 9.23097 11.8588L8.37432 1.76849C8.3243 1.17932 7.83148 0.726562 7.24019 0.726562H1.33339C0.633514 0.726562 0.0994333 1.35222 0.209282 2.04342L1.5226 10.3072C1.58915 10.7259 1.88297 11.073 2.28501 11.2077L7.73515 13.0343Z" fill="#135519"/>
</svg>
