<svg width="592" height="184" viewBox="0 0 592 184" fill="none" xmlns="http://www.w3.org/2000/svg">
<path fill-rule="evenodd" clip-rule="evenodd" d="M547.316 3.68098L591.233 24.5141L554.94 29.9797L552.012 19.8806L587.012 23.7053L550.285 13.9218L547.316 3.68098ZM541.85 24.367L550.288 20.809L551.121 23.9485L541.85 24.367ZM533.168 18.3798C534.07 18.5562 534.759 18.6937 535.222 18.7871C535.453 18.8338 535.628 18.8695 535.744 18.8934L535.875 18.9203L535.908 18.9271L535.916 18.9287L535.918 18.9292L536.167 17.7325L536.416 16.5357L536.415 16.5355L536.413 16.535L536.404 16.5332L536.37 16.5261L536.235 16.4984C536.116 16.474 535.939 16.4379 535.705 16.3907C535.238 16.2963 534.544 16.1577 533.636 15.9804L533.168 18.3798ZM521.692 16.2588C523.803 16.6306 525.702 16.9741 527.374 17.2822L527.817 14.8779C526.139 14.5686 524.234 14.224 522.116 13.8511L521.692 16.2588ZM510.172 14.3127C512.2 14.6415 514.127 14.9607 515.944 15.2676L516.351 12.8569C514.528 12.5492 512.597 12.2291 510.563 11.8995L510.172 14.3127ZM498.613 12.5137C500.598 12.8101 502.518 13.1032 504.371 13.3915L504.747 10.9758C502.889 10.6868 500.964 10.3929 498.975 10.0958L498.613 12.5137ZM487.081 10.8618C489.06 11.1333 490.993 11.4046 492.877 11.6745L493.224 9.25442C491.335 8.98383 489.397 8.71185 487.413 8.43969L487.081 10.8618ZM475.52 9.34558C477.469 9.58938 479.384 9.8349 481.262 10.0812L481.58 7.65721C479.697 7.41024 477.777 7.16414 475.824 6.91974L475.52 9.34558ZM463.914 7.96401C465.87 8.18481 467.799 8.40876 469.699 8.63495L469.988 6.20733C468.083 5.9805 466.149 5.75604 464.189 5.53463L463.914 7.96401ZM452.29 6.72357C454.255 6.92094 456.199 7.12247 458.12 7.32751L458.379 4.89654C456.453 4.69098 454.505 4.48892 452.534 4.291L452.29 6.72357ZM440.658 5.62978C442.627 5.80212 444.578 5.97948 446.511 6.16136L446.74 3.72732C444.802 3.54497 442.845 3.36711 440.871 3.19427L440.658 5.62978ZM429.036 4.68966C430.999 4.83518 432.949 4.98652 434.884 5.14319L435.081 2.70633C433.141 2.5493 431.186 2.39752 429.217 2.25157L429.036 4.68966ZM417.4 3.90824C419.359 4.02586 421.307 4.15003 423.244 4.28022L423.408 1.8409C421.465 1.71037 419.511 1.58583 417.546 1.46784L417.4 3.90824ZM405.751 3.29474C407.707 3.38303 409.656 3.47856 411.595 3.58081L411.723 1.13941C409.778 1.03685 407.824 0.941042 405.862 0.852412L405.751 3.29474ZM394.095 2.85994C396.049 2.91714 397.997 2.98226 399.938 3.0548L400.029 0.611696C398.081 0.538895 396.127 0.473611 394.167 0.416173L394.095 2.85994ZM382.434 2.61627C384.385 2.64029 386.333 2.67286 388.276 2.7136L388.327 0.269325C386.377 0.228467 384.423 0.195766 382.465 0.171677L382.434 2.61627ZM370.774 2.57826C372.721 2.56654 374.667 2.5641 376.611 2.57059L376.619 0.125834C374.668 0.119351 372.714 0.121733 370.759 0.133485L370.774 2.57826ZM359.117 2.76258C361.061 2.71228 363.004 2.67199 364.947 2.6414L364.909 0.196909C362.958 0.227625 361.006 0.26806 359.054 0.318615L359.117 2.76258ZM347.47 3.1888C349.408 3.09651 351.348 3.01506 353.29 2.94419L353.201 0.501016C351.25 0.572256 349.301 0.654004 347.354 0.746788L347.47 3.1888ZM335.837 3.87984C337.769 3.74151 339.705 3.61509 341.644 3.50003L341.499 1.05956C339.55 1.17517 337.604 1.30226 335.662 1.44127L335.837 3.87984ZM324.227 4.86254C326.152 4.67355 328.082 4.49745 330.018 4.33377L329.812 1.89767C327.866 2.06222 325.924 2.23938 323.988 2.42943L324.227 4.86254ZM312.654 6.16839C314.568 5.92318 316.491 5.69197 318.422 5.47435L318.148 3.04493C316.206 3.26392 314.27 3.49659 312.343 3.7434L312.654 6.16839ZM301.132 7.8346C303.034 7.52661 304.946 7.23395 306.869 6.95618L306.52 4.53649C304.584 4.81625 302.657 5.111 300.741 5.42125L301.132 7.8346ZM289.683 9.90514C291.568 9.52675 293.466 9.16514 295.377 8.81985L294.942 6.41402C293.016 6.76203 291.102 7.1266 289.202 7.50817L289.683 9.90514ZM278.336 12.432C280.198 11.9743 282.076 11.5349 283.969 11.1136L283.438 8.72717C281.528 9.15234 279.632 9.59576 277.752 10.058L278.336 12.432ZM267.115 15.4814C268.95 14.9321 270.805 14.4034 272.679 13.8946L272.038 11.5353C270.145 12.0494 268.27 12.5838 266.414 13.1392L267.115 15.4814ZM256.08 19.1263C257.881 18.4717 259.705 17.8399 261.552 17.2305L260.786 14.9088C258.916 15.5257 257.069 16.1654 255.245 16.8287L256.08 19.1263ZM247.996 22.2911C248.874 21.9212 249.76 21.5574 250.652 21.1998L249.742 18.9306C248.837 19.2934 247.939 19.6625 247.047 20.0379C246.163 20.41 245.28 20.7892 244.396 21.1754L245.376 23.4155C246.249 23.0337 247.123 22.6589 247.996 22.2911ZM234.955 28.2993C236.681 27.4366 238.408 26.5995 240.137 25.7889L239.099 23.5754C237.351 24.3949 235.605 25.2409 233.862 26.1127L234.955 28.2993ZM224.784 33.6949C226.466 32.7512 228.153 31.8307 229.843 30.9341L228.697 28.7745C226.99 29.6801 225.287 30.6098 223.588 31.5626L224.784 33.6949ZM214.866 39.5529C216.505 38.5356 218.15 37.5392 219.8 36.5645L218.556 34.4596C216.891 35.4435 215.231 36.4491 213.577 37.4757L214.866 39.5529ZM205.208 45.8343C206.803 44.7494 208.405 43.6833 210.013 42.637L208.68 40.5877C207.057 41.6433 205.441 42.7187 203.833 43.8131L205.208 45.8343ZM195.817 52.5082C197.365 51.3607 198.922 50.2303 200.488 49.1178L199.071 47.125C197.492 48.2471 195.922 49.3871 194.361 50.5443L195.817 52.5082ZM186.703 59.5493C188.201 58.3438 189.711 57.1539 191.23 55.9802L189.735 54.0454C188.203 55.229 186.681 56.4289 185.17 57.6443L186.703 59.5493ZM177.869 66.9443C179.317 65.6831 180.778 64.4359 182.25 63.2034L180.681 61.3288C179.196 62.5715 177.723 63.829 176.263 65.1006L177.869 66.9443ZM169.329 74.6805C170.725 73.3649 172.136 72.0617 173.56 70.7719L171.918 68.96C170.483 70.2606 169.06 71.5746 167.653 72.9012L169.329 74.6805ZM161.101 82.7486C162.443 81.379 163.801 80.0206 165.174 78.6741L163.463 76.9284C162.078 78.2864 160.708 79.6564 159.355 81.0377L161.101 82.7486ZM153.208 91.1428C154.492 89.7192 155.794 88.3056 157.114 86.9025L155.333 85.2275C154.002 86.6429 152.688 88.0691 151.393 89.5053L153.208 91.1428ZM218.265 153.632C219.846 154.833 221.387 156.047 222.885 157.274L224.435 155.383C222.912 154.136 221.348 152.903 219.743 151.685L218.265 153.632ZM227.253 160.999C228.683 162.27 230.069 163.555 231.409 164.854L233.111 163.099C231.744 161.774 230.332 160.465 228.877 159.171L227.253 160.999ZM208.893 146.991C210.493 148.053 212.06 149.126 213.593 150.21L215.005 148.214C213.452 147.115 211.864 146.029 210.244 144.954L208.893 146.991ZM145.677 99.8601C146.899 98.3822 148.141 96.913 149.402 95.4529L147.552 93.8544C146.279 95.3278 145.026 96.8107 143.793 98.3025L145.677 99.8601ZM235.543 169.061C236.868 170.48 238.14 171.915 239.358 173.367L241.231 171.796C239.984 170.309 238.683 168.842 237.329 167.392L235.543 169.061ZM198.898 140.76C200.628 141.776 202.327 142.803 203.993 143.842L205.286 141.767C203.601 140.716 201.884 139.678 200.136 138.652L198.898 140.76ZM188.914 135.203C190.624 136.107 192.309 137.02 193.967 137.942L195.156 135.806C193.482 134.874 191.781 133.953 190.056 133.042L188.914 135.203ZM242.862 177.791C244.041 179.372 245.157 180.971 246.208 182.59L248.258 181.259C247.177 179.594 246.031 177.951 244.821 176.329L242.862 177.791ZM178.352 129.899C180.161 130.764 181.946 131.638 183.706 132.522L184.803 130.337C183.029 129.446 181.229 128.565 179.406 127.693L178.352 129.899ZM249.168 187.505C250.094 189.171 250.954 190.857 251.745 192.563L253.963 191.534C253.146 189.773 252.259 188.034 251.305 186.317L249.168 187.505ZM167.957 125.147C169.73 125.923 171.484 126.707 173.216 127.499L174.233 125.275C172.488 124.478 170.722 123.688 168.937 122.907L167.957 125.147ZM157.079 120.588C158.931 121.332 160.763 122.084 162.577 122.843L163.522 120.589C161.697 119.824 159.853 119.068 157.991 118.319L157.079 120.588ZM138.543 108.9C139.696 107.368 140.872 105.842 142.07 104.325L140.151 102.81C138.941 104.342 137.754 105.883 136.589 107.431L138.543 108.9ZM253.965 197.879C254.633 199.672 255.227 201.487 255.746 203.324L258.098 202.659C257.561 200.758 256.947 198.881 256.257 197.026L253.965 197.879ZM146.367 116.448C148.176 117.12 149.969 117.8 151.746 118.486L152.628 116.206C150.841 115.516 149.038 114.832 147.219 114.156L146.367 116.448ZM135.325 112.493C137.196 113.138 139.052 113.791 140.892 114.45L141.716 112.148C139.867 111.486 138.002 110.83 136.123 110.182L135.325 112.493ZM257.071 208.87C257.433 210.722 257.722 212.597 257.934 214.493L260.364 214.221C260.144 212.258 259.845 210.318 259.47 208.401L257.071 208.87ZM124.337 108.831C126.166 109.42 127.983 110.015 129.787 110.615L130.56 108.296C128.748 107.692 126.923 107.095 125.086 106.504L124.337 108.831ZM131.85 118.265C132.926 116.677 134.028 115.095 135.154 113.519L133.166 112.097C132.027 113.69 130.914 115.289 129.826 116.894L131.85 118.265ZM113.21 105.37C115.089 105.935 116.956 106.506 118.81 107.083L119.536 104.748C117.674 104.169 115.8 103.596 113.915 103.029L113.21 105.37ZM258.342 220.251C258.372 221.222 258.382 222.198 258.372 223.181C258.363 224.123 258.33 225.064 258.274 226.003L260.714 226.148C260.773 225.17 260.807 224.188 260.817 223.205C260.827 222.19 260.816 221.18 260.786 220.177L258.342 220.251ZM101.984 102.1C103.846 102.625 105.698 103.156 107.539 103.692L108.223 101.344C106.375 100.806 104.516 100.274 102.647 99.7469L101.984 102.1ZM125.653 127.958C126.64 126.316 127.657 124.678 128.702 123.045L126.642 121.727C125.586 123.379 124.557 125.036 123.558 126.698L125.653 127.958ZM90.8118 99.0455C92.6931 99.5442 94.565 100.048 96.4271 100.557L97.0718 98.1989C95.2035 97.6881 93.3255 97.1827 91.4382 96.6824L90.8118 99.0455ZM257.664 231.617C257.369 233.48 256.986 235.327 256.519 237.15L258.888 237.757C259.373 235.86 259.772 233.938 260.078 231.998L257.664 231.617ZM79.414 96.1146C81.3315 96.5929 83.2403 97.0763 85.14 97.5648L85.7489 95.197C83.8433 94.707 81.9288 94.2222 80.0057 93.7425L79.414 96.1146ZM68.1879 93.3941C70.0704 93.8373 71.9455 94.2851 73.8128 94.7375L74.3885 92.3615C72.516 91.9077 70.6357 91.4587 68.7481 91.0143L68.1879 93.3941ZM120.022 137.981C120.908 136.284 121.827 134.59 122.778 132.899L120.647 131.701C119.684 133.413 118.753 135.13 117.855 136.849L120.022 137.981ZM254.866 242.557C254.233 244.335 253.519 246.083 252.73 247.795L254.951 248.818C255.77 247.041 256.511 245.225 257.169 243.377L254.866 242.557ZM56.8054 90.7898C58.7165 91.2148 60.6209 91.6443 62.5181 92.0783L63.0633 89.695C61.1611 89.2599 59.252 88.8293 57.336 88.4033L56.8054 90.7898ZM45.3908 88.3216C47.2838 88.7196 49.1708 89.1219 51.0516 89.5284L51.5681 87.1388C49.6828 86.7313 47.7913 86.3281 45.8939 85.9291L45.3908 88.3216ZM115.045 148.332C115.813 146.582 116.619 144.832 117.461 143.083L115.258 142.022C114.404 143.796 113.587 145.573 112.807 147.35L115.045 148.332ZM250.137 252.824C249.198 254.464 248.188 256.06 247.111 257.606L249.118 259.003C250.235 257.398 251.284 255.741 252.259 254.039L250.137 252.824ZM34.0144 85.9936C35.9215 86.3734 37.8232 86.7572 39.7194 87.1452L40.2095 84.7501C38.309 84.3612 36.4031 83.9765 34.4919 83.5959L34.0144 85.9936ZM22.5112 83.7639C24.4381 84.1275 26.3605 84.495 28.2778 84.8666L28.743 82.4665C26.8216 82.0941 24.8953 81.7258 22.9644 81.3615L22.5112 83.7639ZM110.836 159.003C111.464 157.204 112.135 155.404 112.847 153.602L110.574 152.703C109.85 154.535 109.167 156.366 108.528 158.196L110.836 159.003ZM243.677 262.101C242.463 263.551 241.188 264.943 239.856 266.27L241.581 268.002C242.966 266.623 244.291 265.177 245.551 263.671L243.677 262.101ZM11.0853 81.6645C12.9915 82.0056 14.8937 82.3505 16.7916 82.6992L17.2334 80.2946C15.3316 79.9453 13.4257 79.5997 11.5159 79.258L11.0853 81.6645ZM-0.397074 79.663C1.52386 79.9892 3.44137 80.319 5.35518 80.6525L5.77497 78.2441C3.85759 77.9099 1.93661 77.5794 0.0121893 77.2527L-0.397074 79.663ZM107.534 169.966C107.997 168.128 108.508 166.284 109.066 164.436L106.725 163.73C106.157 165.612 105.636 167.493 105.163 169.369L107.534 169.966ZM235.67 270.069C234.213 271.271 232.703 272.401 231.146 273.449L232.512 275.477C234.136 274.383 235.709 273.206 237.226 271.954L235.67 270.069ZM-11.9343 77.7543C-10.0099 78.0644 -8.08828 78.3782 -6.16984 78.6955L-5.77085 76.2835C-7.69267 75.9656 -9.6176 75.6513 -11.5453 75.3406L-11.9343 77.7543ZM-23.4218 75.9498C-21.5023 76.2436 -19.5851 76.5409 -17.6705 76.8416L-17.2911 74.4264C-19.209 74.1252 -21.1293 73.8275 -23.0519 73.5332L-23.4218 75.9498ZM105.309 181.171C105.577 179.305 105.9 177.429 106.274 175.548L103.877 175.07C103.494 176.994 103.164 178.912 102.889 180.824L105.309 181.171ZM226.315 276.36C224.655 277.248 222.952 278.047 221.213 278.749L222.128 281.016C223.95 280.28 225.732 279.444 227.468 278.516L226.315 276.36ZM-34.9634 74.2279C-33.036 74.5082 -31.1104 74.7917 -29.1867 75.0787L-28.826 72.6607C-30.7527 72.3732 -32.6813 72.0892 -34.6117 71.8085L-34.9634 74.2279ZM104.357 192.536C104.398 190.655 104.499 188.763 104.66 186.861L102.223 186.656C102.059 188.607 101.955 190.55 101.913 192.483L104.357 192.536ZM-46.5152 72.591C-44.5922 72.8565 -42.6704 73.1253 -40.75 73.3974L-40.407 70.9768C-42.3303 70.7043 -44.2549 70.4351 -46.1808 70.1692L-46.5152 72.591ZM215.885 280.563C214.084 281.065 212.25 281.465 210.391 281.756L210.769 284.171C212.724 283.866 214.65 283.445 216.541 282.919L215.885 280.563ZM-58.0653 71.0362C-56.1387 71.289 -54.2126 71.5449 -52.2875 71.804L-51.9614 69.381C-53.8893 69.1216 -55.818 68.8653 -57.7474 68.6122L-58.0653 71.0362ZM104.885 203.923C104.664 202.048 104.511 200.158 104.424 198.254L101.982 198.366C102.072 200.326 102.229 202.275 102.457 204.208L104.885 203.923ZM204.8 282.292C202.948 282.358 201.075 282.315 199.186 282.156L198.981 284.592C200.968 284.76 202.938 284.805 204.888 284.735L204.8 282.292ZM-69.6314 69.5575C-67.7031 69.7978 -65.7749 70.0411 -63.8471 70.2875L-63.5371 67.8625C-65.4675 67.6157 -67.3983 67.372 -69.3291 67.1315L-69.6314 69.5575ZM107.062 215.075C106.555 213.25 106.122 211.405 105.76 209.544L103.36 210.011C103.734 211.934 104.182 213.84 104.706 215.728L107.062 215.075ZM193.621 281.354C192.709 281.168 191.794 280.953 190.877 280.711C189.909 280.454 188.95 280.194 188 279.93L187.345 282.285C188.305 282.552 189.273 282.815 190.251 283.074C191.213 283.329 192.173 283.553 193.131 283.749L193.621 281.354ZM-81.219 68.1508C-79.2875 68.3793 -77.3556 68.6107 -75.4236 68.8452L-75.129 66.4183C-77.0635 66.1834 -78.9979 65.9517 -80.9319 65.7229L-81.219 68.1508ZM182.412 278.3C180.586 277.742 178.796 277.169 177.042 276.581L176.265 278.899C178.04 279.494 179.851 280.074 181.697 280.638L182.412 278.3ZM110.963 225.735C110.167 224.006 109.446 222.257 108.799 220.488L106.503 221.328C107.173 223.159 107.918 224.969 108.742 226.758L110.963 225.735ZM-92.8015 66.8161C-90.8725 67.0326 -88.9427 67.252 -87.0122 67.4745L-86.7324 65.0458C-88.6653 64.8231 -90.5975 64.6033 -92.5287 64.3865L-92.8015 66.8161ZM171.55 274.65C169.721 273.976 167.934 273.284 166.189 272.577L165.27 274.843C167.04 275.56 168.851 276.261 170.704 276.944L171.55 274.65ZM116.534 235.649C115.461 234.051 114.465 232.43 113.542 230.787L111.41 231.985C112.365 233.684 113.396 235.36 114.503 237.011L116.534 235.649ZM160.982 270.363C159.174 269.557 157.415 268.732 155.703 267.889L154.623 270.082C156.363 270.939 158.151 271.777 159.987 272.596L160.982 270.363ZM-104.377 65.5504C-102.447 65.7558 -100.517 65.9641 -98.5852 66.1753L-98.3195 63.745C-100.254 63.5336 -102.186 63.325 -104.118 63.1194L-104.377 65.5504ZM123.567 244.603C122.258 243.164 121.021 241.702 119.855 240.218L117.933 241.728C119.135 243.259 120.41 244.766 121.759 246.248L123.567 244.603ZM150.712 265.306C148.973 264.361 147.289 263.395 145.658 262.409L144.394 264.502C146.057 265.507 147.774 266.491 149.545 267.454L150.712 265.306ZM140.889 259.37C139.263 258.276 137.696 257.161 136.189 256.025L134.718 257.978C136.261 259.141 137.863 260.281 139.525 261.399L140.889 259.37ZM131.767 252.494C130.278 251.232 128.856 249.948 127.499 248.643L125.804 250.405C127.199 251.747 128.659 253.065 130.186 254.359L131.767 252.494ZM-116.01 64.3443C-114.075 64.5396 -112.138 64.7377 -110.199 64.9387L-109.947 62.507C-111.888 62.3057 -113.827 62.1074 -115.765 61.9119L-116.01 64.3443ZM-127.596 63.2062C-125.67 63.3903 -123.741 63.5772 -121.81 63.7669L-121.571 61.3337C-123.504 61.1439 -125.435 60.9568 -127.363 60.7725L-127.596 63.2062ZM-139.214 62.1258C-137.268 62.3018 -135.318 62.4806 -133.366 62.6621L-133.14 60.2278C-135.094 60.0461 -137.045 59.8671 -138.993 59.6909L-139.214 62.1258ZM-150.859 61.1018C-148.925 61.267 -146.988 61.435 -145.047 61.6056L-144.833 59.1702C-146.776 58.9994 -148.715 58.8313 -150.651 58.6659L-150.859 61.1018ZM-162.414 60.1421C-160.496 60.2968 -158.575 60.4541 -156.649 60.6141L-156.446 58.1777C-158.374 58.0176 -160.298 57.8601 -162.217 57.7053L-162.414 60.1421ZM-174.114 59.2258C-172.167 59.3737 -170.215 59.5243 -168.258 59.6776L-168.067 57.2403C-170.026 57.0868 -171.98 56.9361 -173.929 56.788L-174.114 59.2258ZM-185.732 58.3694C-183.807 58.507 -181.876 58.6471 -179.94 58.7898L-179.76 56.3516C-181.698 56.2088 -183.631 56.0685 -185.558 55.9308L-185.732 58.3694ZM-197.332 57.5659C-195.391 57.6961 -193.444 57.8289 -191.49 57.9643L-191.321 55.5253C-193.276 55.3898 -195.226 55.2569 -197.169 55.1266L-197.332 57.5659ZM-209.045 56.8056C-207.107 56.9272 -205.162 57.0513 -203.21 57.178L-203.052 54.7384C-205.006 54.6116 -206.952 54.4873 -208.892 54.3656L-209.045 56.8056ZM-220.576 56.1058C-218.67 56.2176 -216.756 56.3317 -214.834 56.4483L-214.686 54.008C-216.61 53.8913 -218.526 53.777 -220.433 53.6652L-220.576 56.1058ZM-232.335 55.441C-230.381 55.5474 -228.417 55.6564 -226.444 55.768L-226.306 53.3271C-228.281 53.2155 -230.246 53.1064 -232.202 52.9998L-232.335 55.441ZM-243.94 54.832C-242.027 54.9286 -240.102 55.0276 -238.168 55.1291L-238.04 52.6877C-239.976 52.5861 -241.902 52.487 -243.817 52.3904L-243.94 54.832ZM-255.6 54.2666C-253.629 54.3583 -251.645 54.4525 -249.649 54.5494L-249.531 52.1075C-251.528 52.0106 -253.514 51.9162 -255.486 51.8245L-255.6 54.2666ZM-267.292 53.7456C-265.37 53.8275 -263.434 53.9118 -261.485 53.9986L-261.376 51.5563C-263.327 51.4693 -265.264 51.3849 -267.188 51.303L-267.292 53.7456ZM-278.857 53.2749C-276.926 53.3498 -274.979 53.4271 -273.018 53.507L-272.918 51.0642C-274.881 50.9843 -276.829 50.9069 -278.762 50.8319L-278.857 53.2749ZM-290.632 52.8408C-288.704 52.9081 -286.759 52.9779 -284.796 53.0502L-284.706 50.6071C-286.67 50.5347 -288.618 50.4649 -290.547 50.3975L-290.632 52.8408ZM-302.143 52.4603C-300.236 52.5197 -298.309 52.5816 -296.363 52.6459L-296.282 50.2025C-298.23 50.1381 -300.158 50.0762 -302.067 50.0167L-302.143 52.4603ZM-313.964 52.1145C-312.041 52.1671 -310.093 52.2221 -308.123 52.2797L-308.051 49.8359C-310.023 49.7783 -311.972 49.7232 -313.898 49.6707L-313.964 52.1145ZM-325.509 51.8211C-323.589 51.8663 -321.64 51.9139 -319.664 51.9642L-319.602 49.5202C-321.579 49.4699 -323.53 49.4222 -325.452 49.377L-325.509 51.8211ZM-337.261 51.5677C-335.367 51.6048 -333.44 51.6444 -331.481 51.6866L-331.428 49.2423C-333.389 49.2001 -335.317 49.1605 -337.213 49.1234L-337.261 51.5677ZM-348.966 51.3617C-346.977 51.3927 -344.943 51.4265 -342.865 51.4632L-342.822 49.0188C-344.902 48.982 -346.938 48.9482 -348.928 48.9172L-348.966 51.3617ZM-360.343 51.2073C-358.542 51.2281 -356.692 51.2512 -354.795 51.2768L-354.762 48.8323C-356.66 48.8066 -358.512 48.7835 -360.315 48.7627L-360.343 51.2073ZM-372.245 51.0968C-370.399 51.1097 -368.482 51.1251 -366.495 51.1435L-366.473 48.6988C-368.461 48.6804 -370.38 48.665 -372.228 48.652L-372.245 51.0968ZM-383.987 51.0433C-382.128 51.047 -380.15 51.0533 -378.058 51.0629L-378.047 48.6182C-380.141 48.6086 -382.121 48.6022 -383.982 48.5985L-383.987 51.0433ZM-395.508 51.0533C-393.822 51.0464 -391.898 51.0413 -389.748 51.0396L-389.75 48.5948C-391.903 48.5965 -393.829 48.6017 -395.518 48.6085L-395.508 51.0533ZM-404.057 49.895L-404.04 51.1173L-404.04 51.1173L-404.04 51.1173L-404.038 51.1173L-404.03 51.1172L-403.999 51.1167L-403.873 51.1151C-403.761 51.1137 -403.594 51.1117 -403.372 51.1092C-402.929 51.1041 -402.267 51.0972 -401.395 51.0897L-401.416 48.645C-402.29 48.6525 -402.954 48.6595 -403.4 48.6645C-403.623 48.667 -403.791 48.6691 -403.904 48.6706L-404.031 48.6722L-404.063 48.6726L-404.072 48.6727L-404.074 48.6728L-404.074 48.6728L-404.074 48.6728L-404.057 49.895Z" fill="#7EFF9B"/>
</svg>
