<svg width="894" height="440" viewBox="0 0 894 440" fill="none" xmlns="http://www.w3.org/2000/svg">
<path fill-rule="evenodd" clip-rule="evenodd" d="M844.535 0L893.612 1.49675L863.092 22.1361L855.966 13.6356L889.422 2.50426L851.761 8.61989L844.535 0ZM848.728 22.2657L854.811 15.2612L856.957 17.9364L848.728 22.2657ZM837.888 16.6934C838.781 16.4744 839.464 16.3101 839.923 16.2006C840.153 16.1459 840.326 16.1048 840.442 16.0776L840.572 16.047L840.605 16.0394L840.613 16.0376L840.615 16.037L840.338 14.8463L840.062 13.6557L840.061 13.6558L840.059 13.6564L840.05 13.6584L840.016 13.6664L839.882 13.6978C839.764 13.7256 839.588 13.7672 839.356 13.8225C838.892 13.9331 838.204 14.0987 837.306 14.3189L837.888 16.6934ZM826.583 19.5871C828.655 19.0381 830.522 18.5523 832.169 18.1301L831.561 15.7619C829.909 16.1857 828.035 16.6731 825.956 17.2238L826.583 19.5871ZM815.31 22.6584C817.289 22.105 819.171 21.5859 820.949 21.1012L820.307 18.7425C818.523 19.2285 816.636 19.749 814.652 20.304L815.31 22.6584ZM804.064 25.8793C805.99 25.315 807.856 24.7746 809.658 24.2583L808.985 21.9081C807.178 22.4257 805.307 22.9674 803.377 23.5332L804.064 25.8793ZM792.904 29.2226C794.814 28.638 796.682 28.0726 798.506 27.5264L797.804 25.1844C795.976 25.732 794.104 26.2988 792.189 26.8848L792.904 29.2226ZM781.776 32.7009C783.646 32.104 785.487 31.5229 787.296 30.9575L786.566 28.6241C784.753 29.1908 782.908 29.7734 781.033 30.3718L781.776 32.7009ZM770.662 36.3206C772.53 35.6998 774.375 35.0931 776.194 34.5003L775.437 32.1757C773.613 32.77 771.763 33.3783 769.891 34.0006L770.662 36.3206ZM759.592 40.076C761.458 39.4299 763.307 38.7966 765.136 38.1761L764.351 35.8609C762.517 36.483 760.663 37.1179 758.792 37.7657L759.592 40.076ZM748.576 43.9676C750.435 43.2975 752.28 42.6391 754.11 41.9926L753.296 39.6873C751.461 40.3356 749.61 40.9958 747.747 41.6677L748.576 43.9676ZM737.633 47.9946C739.476 47.3023 741.309 46.6211 743.131 45.9508L742.286 43.6564C740.46 44.3286 738.622 45.0117 736.774 45.7059L737.633 47.9946ZM726.744 52.1717C728.572 51.4559 730.392 50.7504 732.204 50.0553L731.329 47.7726C729.511 48.4698 727.685 49.1774 725.852 49.8954L726.744 52.1717ZM715.915 56.5062C717.727 55.765 719.535 55.0336 721.338 54.3122L720.43 52.0424C718.622 52.7661 716.808 53.4997 714.989 54.2434L715.915 56.5062ZM705.154 61.0062C706.951 60.2378 708.746 59.4789 710.538 58.7296L709.595 56.474C707.797 57.2258 705.996 57.9873 704.192 58.7583L705.154 61.0062ZM694.468 65.6815C696.249 64.884 698.03 64.0959 699.811 63.317L698.831 61.0772C697.044 61.8588 695.257 62.6498 693.469 63.4502L694.468 65.6815ZM683.87 70.5435C685.632 69.715 687.397 68.8956 689.164 68.0854L688.145 65.8632C686.372 66.6765 684.599 67.4991 682.83 68.3309L683.87 70.5435ZM673.368 75.6054C675.111 74.7437 676.858 73.891 678.608 73.0473L677.547 70.8449C675.789 71.6921 674.035 72.5484 672.284 73.4139L673.368 75.6054ZM662.976 80.8831C664.696 79.9855 666.423 79.0969 668.155 78.2173L667.049 76.0374C665.308 76.9211 663.574 77.8138 661.845 78.7156L662.976 80.8831ZM652.709 86.3951C654.404 85.4584 656.108 84.5307 657.82 83.6119L656.663 81.4578C654.943 82.3811 653.23 83.3136 651.526 84.2553L652.709 86.3951ZM642.585 92.1619C644.252 91.1824 645.93 90.2119 647.618 89.2504L646.409 87.126C644.711 88.0928 643.023 89.0688 641.346 90.0541L642.585 92.1619ZM632.629 98.207C634.264 97.1805 635.912 96.1631 637.573 95.1549L636.305 93.065C634.633 94.0795 632.975 95.1033 631.329 96.1366L632.629 98.207ZM622.872 104.557C624.469 103.479 626.082 102.41 627.71 101.351L626.377 99.3017C624.737 100.369 623.113 101.445 621.504 102.531L622.872 104.557ZM613.351 111.244C614.903 110.109 616.474 108.984 618.063 107.868L616.658 105.867C615.056 106.992 613.473 108.126 611.908 109.271L613.351 111.244ZM604.114 118.302C605.611 117.105 607.131 115.918 608.673 114.74L607.189 112.797C605.633 113.985 604.099 115.184 602.587 116.393L604.114 118.302ZM595.211 125.781C596.646 124.512 598.107 123.253 599.594 122.005L598.022 120.133C596.52 121.394 595.042 122.667 593.591 123.95L595.211 125.781ZM586.727 133.723C588.086 132.373 589.476 131.033 590.896 129.705L589.226 127.92C587.789 129.264 586.38 130.621 585.004 131.988L586.727 133.723ZM580.718 139.99C581.36 139.285 582.011 138.583 582.67 137.884L580.892 136.207C580.223 136.916 579.563 137.628 578.911 138.343C578.265 139.052 577.623 139.767 576.983 140.489L578.812 142.111C579.445 141.397 580.08 140.69 580.718 139.99ZM571.406 150.919C572.61 149.411 573.826 147.926 575.055 146.465L573.183 144.891C571.941 146.369 570.712 147.87 569.496 149.393L571.406 150.919ZM564.44 160.087C565.571 158.524 566.715 156.98 567.872 155.457L565.925 153.978C564.757 155.517 563.601 157.076 562.459 158.654L564.44 160.087ZM557.899 169.568C558.96 167.956 560.034 166.361 561.122 164.784L559.11 163.396C558.011 164.988 556.927 166.598 555.857 168.224L557.899 169.568ZM551.772 179.324C552.763 177.67 553.769 176.03 554.79 174.405L552.72 173.104C551.69 174.744 550.675 176.399 549.675 178.067L551.772 179.324ZM546.051 189.324C546.974 187.633 547.913 185.953 548.866 184.286L546.744 183.072C545.782 184.754 544.836 186.448 543.905 188.153L546.051 189.324ZM540.736 199.542C541.59 197.819 542.46 196.105 543.346 194.402L541.177 193.273C540.284 194.991 539.406 196.719 538.545 198.456L540.736 199.542ZM535.824 209.963C536.609 208.21 537.411 206.465 538.229 204.728L536.018 203.686C535.192 205.437 534.384 207.197 533.593 208.964L535.824 209.963ZM531.322 220.57C532.037 218.789 532.77 217.015 533.52 215.246L531.27 214.291C530.513 216.074 529.774 217.864 529.053 219.659L531.322 220.57ZM527.243 231.347C527.885 229.541 528.547 227.738 529.228 225.939L526.942 225.073C526.255 226.887 525.588 228.706 524.939 230.528L527.243 231.347ZM523.604 242.28C524.171 240.449 524.76 238.619 525.368 236.791L523.049 236.019C522.435 237.863 521.841 239.708 521.269 241.556L523.604 242.28ZM608.887 271.675C610.827 272.1 612.734 272.555 614.61 273.04L615.222 270.673C613.316 270.18 611.379 269.718 609.411 269.287L608.887 271.675ZM620.138 274.587C621.969 275.139 623.766 275.724 625.529 276.34L626.336 274.032C624.539 273.404 622.708 272.809 620.844 272.246L620.138 274.587ZM597.593 269.583C599.491 269.875 601.364 270.19 603.21 270.531L603.654 268.127C601.782 267.782 599.885 267.462 597.964 267.167L597.593 269.583ZM520.429 253.354C520.917 251.5 521.428 249.645 521.96 247.79L519.61 247.116C519.073 248.987 518.558 250.86 518.065 252.731L520.429 253.354ZM631.047 278.423C632.845 279.154 634.602 279.922 636.317 280.728L637.357 278.516C635.602 277.69 633.805 276.905 631.967 276.158L631.047 278.423ZM585.905 268.125C587.902 268.32 589.875 268.539 591.823 268.782L592.126 266.356C590.155 266.111 588.161 265.889 586.144 265.692L585.905 268.125ZM574.511 267.274C576.442 267.376 578.355 267.497 580.247 267.638L580.429 265.2C578.518 265.058 576.588 264.935 574.639 264.833L574.511 267.274ZM641.355 283.272C643.089 284.212 644.773 285.195 646.407 286.223L647.709 284.153C646.029 283.096 644.298 282.087 642.52 281.123L641.355 283.272ZM562.698 266.895C564.703 266.921 566.69 266.965 568.658 267.028L568.737 264.584C566.752 264.52 564.749 264.476 562.728 264.451L562.698 266.895ZM651.157 289.44C652.697 290.563 654.185 291.732 655.62 292.948L657.201 291.083C655.72 289.828 654.185 288.622 652.598 287.465L651.157 289.44ZM551.268 266.948C553.203 266.907 555.124 266.882 557.029 266.873L557.018 264.429C555.099 264.438 553.165 264.463 551.217 264.503L551.268 266.948ZM539.481 267.377C541.474 267.275 543.453 267.188 545.418 267.116L545.329 264.673C543.352 264.745 541.361 264.833 539.356 264.936L539.481 267.377ZM517.751 264.554C518.154 262.679 518.58 260.801 519.03 258.92L516.653 258.351C516.198 260.25 515.767 262.147 515.361 264.041L517.751 264.554ZM659.867 296.841C661.226 298.188 662.527 299.586 663.77 301.035L665.626 299.444C664.34 297.944 662.994 296.498 661.589 295.105L659.867 296.841ZM528.021 268.118C529.945 267.969 531.858 267.833 533.759 267.71L533.601 265.27C531.69 265.394 529.766 265.531 527.832 265.681L528.021 268.118ZM516.339 269.165C518.308 268.966 520.266 268.779 522.213 268.604L521.995 266.169C520.038 266.344 518.07 266.532 516.092 266.733L516.339 269.165ZM667.301 305.512C668.408 307.041 669.457 308.621 670.446 310.252L672.536 308.985C671.513 307.296 670.427 305.661 669.281 304.078L667.301 305.512ZM504.829 270.457C506.737 270.223 508.635 269.999 510.525 269.787L510.252 267.358C508.354 267.571 506.447 267.795 504.531 268.03L504.829 270.457ZM515.609 275.864C515.919 273.971 516.254 272.072 516.615 270.169L514.213 269.713C513.848 271.637 513.509 273.556 513.196 275.469L515.609 275.864ZM493.277 271.987C495.22 271.711 497.154 271.446 499.079 271.19L498.758 268.767C496.825 269.023 494.883 269.29 492.933 269.567L493.277 271.987ZM673.234 315.307C673.668 316.175 674.087 317.058 674.491 317.953C674.879 318.813 675.244 319.68 675.587 320.556L677.863 319.663C677.505 318.75 677.124 317.845 676.72 316.948C676.303 316.023 675.869 315.111 675.42 314.213L673.234 315.307ZM481.715 273.734C483.626 273.428 485.53 273.132 487.426 272.845L487.06 270.428C485.157 270.716 483.247 271.013 481.33 271.32L481.715 273.734ZM514.055 287.263C514.261 285.358 514.496 283.444 514.759 281.524L512.337 281.193C512.071 283.135 511.833 285.071 511.624 286.999L514.055 287.263ZM470.294 275.653C472.21 275.316 474.121 274.987 476.025 274.667L475.619 272.256C473.709 272.577 471.793 272.907 469.87 273.245L470.294 275.653ZM677.391 325.907C677.906 327.722 678.334 329.558 678.676 331.409L681.08 330.966C680.724 329.04 680.279 327.129 679.742 325.239L677.391 325.907ZM458.719 277.779C460.66 277.408 462.595 277.045 464.524 276.691L464.083 274.286C462.147 274.642 460.206 275.006 458.26 275.378L458.719 277.779ZM447.388 280.024C449.282 279.636 451.172 279.255 453.057 278.881L452.582 276.483C450.692 276.858 448.797 277.24 446.897 277.629L447.388 280.024ZM513.153 298.724C513.245 296.812 513.367 294.888 513.52 292.954L511.083 292.761C510.928 294.72 510.804 296.669 510.711 298.606L513.153 298.724ZM679.446 337.011C679.617 338.89 679.704 340.777 679.707 342.661L682.151 342.657C682.148 340.701 682.059 338.742 681.88 336.788L679.446 337.011ZM435.964 282.44C437.877 282.023 439.785 281.613 441.69 281.211L441.184 278.819C439.275 279.223 437.361 279.633 435.443 280.051L435.964 282.44ZM424.568 284.993C426.453 284.559 428.335 284.132 430.212 283.711L429.678 281.326C427.795 281.748 425.909 282.176 424.02 282.611L424.568 284.993ZM512.983 310.208C512.945 308.297 512.942 306.37 512.971 304.429L510.527 304.392C510.497 306.36 510.5 308.316 510.539 310.256L512.983 310.208ZM679.465 348.314C679.301 350.197 679.055 352.07 678.727 353.925L681.135 354.35C681.475 352.425 681.731 350.481 681.901 348.526L679.465 348.314ZM413.266 287.657C415.156 287.201 417.043 286.751 418.927 286.307L418.366 283.927C416.478 284.372 414.586 284.824 412.692 285.281L413.266 287.657ZM401.889 290.464C403.791 289.985 405.69 289.511 407.586 289.043L407 286.67C405.1 287.139 403.197 287.613 401.292 288.093L401.889 290.464ZM513.643 321.66C513.459 319.764 513.311 317.848 513.201 315.913L510.76 316.053C510.872 318.019 511.022 319.967 511.21 321.897L513.643 321.66ZM677.497 359.447C677.005 361.273 676.432 363.071 675.78 364.835L678.073 365.682C678.751 363.849 679.346 361.98 679.858 360.084L677.497 359.447ZM390.638 293.357C392.511 292.866 394.383 292.38 396.251 291.899L395.643 289.532C393.77 290.013 391.895 290.5 390.018 290.992L390.638 293.357ZM379.377 296.362C381.257 295.851 383.136 295.345 385.013 294.844L384.382 292.482C382.502 292.984 380.62 293.491 378.736 294.002L379.377 296.362ZM515.25 332.996C514.899 331.133 514.588 329.245 514.319 327.334L511.898 327.676C512.173 329.623 512.489 331.549 512.848 333.45L515.25 332.996ZM673.576 370.04C672.759 371.744 671.863 373.402 670.89 375.008L672.982 376.274C673.996 374.6 674.929 372.871 675.781 371.098L673.576 370.04ZM368.104 299.474C369.981 298.947 371.857 298.425 373.731 297.908L373.081 295.551C371.203 296.07 369.324 296.593 367.444 297.12L368.104 299.474ZM356.921 302.66C358.786 302.121 360.651 301.585 362.515 301.054L361.845 298.703C359.978 299.235 358.11 299.771 356.242 300.311L356.921 302.66ZM517.937 344.1C517.396 342.293 516.901 340.456 516.451 338.591L514.074 339.164C514.535 341.071 515.041 342.95 515.595 344.801L517.937 344.1ZM667.728 379.678C666.594 381.181 665.384 382.621 664.1 383.989L665.883 385.662C667.228 384.229 668.494 382.722 669.68 381.151L667.728 379.678ZM345.723 305.944C347.59 305.389 349.457 304.838 351.323 304.29L350.635 301.944C348.766 302.492 346.896 303.044 345.026 303.6L345.723 305.944ZM521.844 354.814C521.092 353.09 520.389 351.33 519.736 349.537L517.439 350.373C518.109 352.213 518.83 354.02 519.604 355.792L521.844 354.814ZM334.552 309.309C336.409 308.742 338.266 308.179 340.123 307.62L339.418 305.279C337.558 305.839 335.698 306.403 333.838 306.97L334.552 309.309ZM660.027 387.873C658.603 389.085 657.107 390.217 655.542 391.262L656.899 393.295C658.545 392.197 660.116 391.007 661.612 389.734L660.027 387.873ZM323.416 312.748C325.271 312.168 327.127 311.592 328.983 311.018L328.261 308.683C326.403 309.257 324.544 309.834 322.687 310.414L323.416 312.748ZM527.105 364.927C526.117 363.318 525.185 361.666 524.306 359.975L522.137 361.102C523.042 362.844 524.003 364.546 525.021 366.205L527.105 364.927ZM650.693 394.096C649.04 394.934 647.322 395.681 645.541 396.33L646.377 398.627C648.251 397.945 650.058 397.159 651.798 396.277L650.693 394.096ZM312.299 316.263C314.15 315.671 316.002 315.082 317.855 314.496L317.118 312.165C315.262 312.752 313.408 313.341 311.554 313.934L312.299 316.263ZM533.763 374.134C532.538 372.69 531.37 371.198 530.259 369.661L528.278 371.092C529.425 372.68 530.632 374.222 531.9 375.716L533.763 374.134ZM640.153 397.939C639.247 398.153 638.326 398.343 637.392 398.507C636.406 398.681 635.426 398.848 634.454 399.007L634.849 401.42C635.831 401.259 636.821 401.091 637.817 400.915C638.797 400.742 639.763 400.543 640.714 400.319L640.153 397.939ZM301.191 319.852C303.04 319.248 304.891 318.647 306.743 318.048L305.991 315.722C304.137 316.321 302.284 316.923 300.432 317.528L301.191 319.852ZM628.698 399.874C626.806 400.135 624.941 400.366 623.103 400.569L623.371 402.999C625.232 402.793 627.118 402.559 629.031 402.296L628.698 399.874ZM541.78 382.17C540.332 380.936 538.943 379.651 537.613 378.317L535.882 380.044C537.259 381.424 538.696 382.754 540.194 384.031L541.78 382.17ZM290.119 323.504C291.961 322.89 293.804 322.279 295.65 321.67L294.884 319.349C293.036 319.958 291.19 320.57 289.346 321.184L290.119 323.504ZM617.307 401.123C615.364 401.279 613.452 401.402 611.571 401.492L611.689 403.934C613.596 403.842 615.534 403.717 617.502 403.559L617.307 401.123ZM550.999 388.829C549.355 387.828 547.77 386.776 546.242 385.673L544.811 387.655C546.391 388.795 548.03 389.884 549.729 390.917L550.999 388.829ZM605.916 401.669C603.936 401.697 601.993 401.687 600.086 401.641L600.027 404.085C601.966 404.132 603.94 404.142 605.95 404.114L605.916 401.669ZM279.082 327.216C280.919 326.592 282.759 325.97 284.601 325.351L283.822 323.034C281.977 323.654 280.136 324.276 278.297 324.901L279.082 327.216ZM561.142 394.001C559.35 393.245 557.613 392.437 555.932 391.58L554.821 393.758C556.556 394.643 558.346 395.475 560.192 396.254L561.142 394.001ZM594.472 401.392C592.497 401.265 590.563 401.095 588.669 400.886L588.4 403.316C590.331 403.529 592.303 403.702 594.314 403.832L594.472 401.392ZM583.064 400.13C581.129 399.82 579.239 399.466 577.394 399.068L576.878 401.458C578.767 401.865 580.7 402.228 582.678 402.544L583.064 400.13ZM571.898 397.72C570.017 397.2 568.187 396.632 566.407 396.017L565.609 398.328C567.438 398.96 569.317 399.543 571.247 400.076L571.898 397.72ZM268.018 331.006C269.856 330.371 271.698 329.737 273.542 329.105L272.749 326.792C270.903 327.425 269.06 328.059 267.219 328.696L268.018 331.006ZM257.025 334.838C258.851 334.196 260.68 333.556 262.512 332.917L261.707 330.609C259.873 331.248 258.042 331.889 256.214 332.532L257.025 334.838ZM246.027 338.736C247.867 338.079 249.712 337.422 251.559 336.768L250.743 334.463C248.893 335.119 247.047 335.776 245.205 336.434L246.027 338.736ZM235.029 342.697C236.853 342.035 238.682 341.374 240.515 340.713L239.687 338.413C237.852 339.074 236.021 339.736 234.195 340.399L235.029 342.697ZM224.139 346.678C225.944 346.013 227.754 345.349 229.569 344.685L228.73 342.389C226.913 343.053 225.101 343.718 223.294 344.384L224.139 346.678ZM213.135 350.759C214.964 350.076 216.799 349.393 218.64 348.71L217.79 346.418C215.947 347.102 214.111 347.785 212.28 348.469L213.135 350.759ZM202.232 354.861C204.037 354.177 205.848 353.493 207.665 352.81L206.805 350.522C204.986 351.206 203.173 351.89 201.366 352.574L202.232 354.861ZM191.366 359.002C193.183 358.306 195.006 357.608 196.836 356.91L195.965 354.626C194.133 355.324 192.308 356.022 190.49 356.72L191.366 359.002ZM180.417 363.231C182.227 362.527 184.044 361.823 185.869 361.119L184.988 358.838C183.162 359.543 181.343 360.248 179.532 360.952L180.417 363.231ZM169.658 367.438C171.434 366.739 173.22 366.039 175.013 365.337L174.123 363.06C172.328 363.762 170.541 364.463 168.763 365.163L169.658 367.438ZM158.707 371.772C160.525 371.048 162.353 370.322 164.191 369.595L163.291 367.322C161.452 368.05 159.622 368.776 157.802 369.501L158.707 371.772ZM147.919 376.092C149.696 375.377 151.484 374.658 153.282 373.938L152.373 371.669C150.573 372.389 148.784 373.108 147.005 373.825L147.919 376.092ZM137.099 380.475C138.926 379.731 140.766 378.983 142.618 378.233L141.701 375.967C139.847 376.718 138.006 377.466 136.177 378.211L137.099 380.475ZM126.269 384.912C128.048 384.179 129.84 383.443 131.645 382.703L130.718 380.441C128.912 381.181 127.118 381.918 125.338 382.652L126.269 384.912ZM115.576 389.341C117.36 388.598 119.159 387.851 120.973 387.1L120.037 384.841C118.222 385.593 116.421 386.341 114.636 387.084L115.576 389.341ZM104.706 393.892C106.484 393.143 108.279 392.39 110.091 391.631L109.147 389.376C107.334 390.135 105.537 390.889 103.758 391.638L104.706 393.892ZM94.0998 398.38C95.8556 397.633 97.6304 396.88 99.4238 396.121L98.4711 393.87C96.6763 394.629 94.9 395.383 93.1429 396.13L94.0998 398.38ZM83.2259 403.03C84.994 402.27 86.7845 401.502 88.5971 400.727L87.6357 398.479C85.8218 399.255 84.0298 400.023 82.2603 400.784L83.2259 403.03ZM72.6249 407.612C74.3871 406.846 76.1757 406.071 77.99 405.287L77.0202 403.043C75.2045 403.827 73.4144 404.603 71.6508 405.369L72.6249 407.612ZM61.8534 412.316C63.588 411.555 65.3534 410.781 67.1489 409.997L66.1703 407.757C64.3734 408.542 62.6065 409.315 60.8705 410.078L61.8534 412.316ZM51.1435 417.044C52.9615 416.237 54.8217 415.414 56.7229 414.575L55.7357 412.338C53.8329 413.178 51.9711 414.002 50.1516 414.81L51.1435 417.044ZM40.753 421.682C42.3969 420.944 44.0856 420.188 45.8178 419.415L44.8213 417.183C43.0876 417.956 41.3974 418.713 39.752 419.451L40.753 421.682ZM29.905 426.579C31.5856 425.816 33.3322 425.025 35.1429 424.207L34.1368 421.979C32.3245 422.797 30.5762 423.589 28.894 424.353L29.905 426.579ZM19.2262 431.461C20.9149 430.684 22.7125 429.859 24.6151 428.989L23.5987 426.766C21.6942 427.636 19.8947 428.462 18.204 429.24L19.2262 431.461ZM8.77435 436.308C10.3018 435.594 12.0456 434.781 13.9962 433.877L12.9679 431.659C11.0148 432.564 9.26857 433.378 7.73875 434.093L8.77435 436.308ZM0.528661 438.847L1.05734 439.949L1.05744 439.949L1.05785 439.949L1.05956 439.948L1.06655 439.945L1.09484 439.931L1.20828 439.877C1.30906 439.829 1.46004 439.756 1.66033 439.661C2.06089 439.47 2.65867 439.186 3.44659 438.813L2.40084 436.603C1.6109 436.977 1.01115 437.262 0.608663 437.454C0.407411 437.55 0.25547 437.622 0.153728 437.671L0.0388801 437.726L0.00989592 437.74L0.00255345 437.743L0.000669421 437.744L0.000172805 437.745L0 437.745L0.528661 438.847Z" fill="#7EFF9B"/>
<path fill-rule="evenodd" clip-rule="evenodd" d="M844.535 0L893.612 1.49675L863.092 22.1361L855.966 13.6356L889.422 2.50426L851.761 8.61989L844.535 0ZM848.728 22.2657L854.811 15.2612L856.957 17.9364L848.728 22.2657ZM837.888 16.6934C838.781 16.4744 839.464 16.3101 839.923 16.2006C840.153 16.1459 840.326 16.1048 840.442 16.0776L840.572 16.047L840.605 16.0394L840.613 16.0376L840.615 16.037L840.338 14.8463L840.062 13.6557L840.061 13.6558L840.059 13.6564L840.05 13.6584L840.016 13.6664L839.882 13.6978C839.764 13.7256 839.588 13.7672 839.356 13.8225C838.892 13.9331 838.204 14.0987 837.306 14.3189L837.888 16.6934ZM826.583 19.5871C828.655 19.0381 830.522 18.5523 832.169 18.1301L831.561 15.7619C829.909 16.1857 828.035 16.6731 825.956 17.2238L826.583 19.5871ZM815.31 22.6584C817.289 22.105 819.171 21.5859 820.949 21.1012L820.307 18.7425C818.523 19.2285 816.636 19.749 814.652 20.304L815.31 22.6584ZM804.064 25.8793C805.99 25.315 807.856 24.7746 809.658 24.2583L808.985 21.9081C807.178 22.4257 805.307 22.9674 803.377 23.5332L804.064 25.8793ZM792.904 29.2226C794.814 28.638 796.682 28.0726 798.506 27.5264L797.804 25.1844C795.976 25.732 794.104 26.2988 792.189 26.8848L792.904 29.2226ZM781.776 32.7009C783.646 32.104 785.487 31.5229 787.296 30.9575L786.566 28.6241C784.753 29.1908 782.908 29.7734 781.033 30.3718L781.776 32.7009ZM770.662 36.3206C772.53 35.6998 774.375 35.0931 776.194 34.5003L775.437 32.1757C773.613 32.77 771.763 33.3783 769.891 34.0006L770.662 36.3206ZM759.592 40.076C761.458 39.4299 763.307 38.7966 765.136 38.1761L764.351 35.8609C762.517 36.483 760.663 37.1179 758.792 37.7657L759.592 40.076ZM748.576 43.9676C750.435 43.2975 752.28 42.6391 754.11 41.9926L753.296 39.6873C751.461 40.3356 749.61 40.9958 747.747 41.6677L748.576 43.9676ZM737.633 47.9946C739.476 47.3023 741.309 46.6211 743.131 45.9508L742.286 43.6564C740.46 44.3286 738.622 45.0117 736.774 45.7059L737.633 47.9946ZM726.744 52.1717C728.572 51.4559 730.392 50.7504 732.204 50.0553L731.329 47.7726C729.511 48.4698 727.685 49.1774 725.852 49.8954L726.744 52.1717ZM715.915 56.5062C717.727 55.765 719.535 55.0336 721.338 54.3122L720.43 52.0424C718.622 52.7661 716.808 53.4997 714.989 54.2434L715.915 56.5062ZM705.154 61.0062C706.951 60.2378 708.746 59.4789 710.538 58.7296L709.595 56.474C707.797 57.2258 705.996 57.9873 704.192 58.7583L705.154 61.0062ZM694.468 65.6815C696.249 64.884 698.03 64.0959 699.811 63.317L698.831 61.0772C697.044 61.8588 695.257 62.6498 693.469 63.4502L694.468 65.6815ZM683.87 70.5435C685.632 69.715 687.397 68.8956 689.164 68.0854L688.145 65.8632C686.372 66.6765 684.599 67.4991 682.83 68.3309L683.87 70.5435ZM673.368 75.6054C675.111 74.7437 676.858 73.891 678.608 73.0473L677.547 70.8449C675.789 71.6921 674.035 72.5484 672.284 73.4139L673.368 75.6054ZM662.976 80.8831C664.696 79.9855 666.423 79.0969 668.155 78.2173L667.049 76.0374C665.308 76.9211 663.574 77.8138 661.845 78.7156L662.976 80.8831ZM652.709 86.3951C654.404 85.4584 656.108 84.5307 657.82 83.6119L656.663 81.4578C654.943 82.3811 653.23 83.3136 651.526 84.2553L652.709 86.3951ZM642.585 92.1619C644.252 91.1824 645.93 90.2119 647.618 89.2504L646.409 87.126C644.711 88.0928 643.023 89.0688 641.346 90.0541L642.585 92.1619ZM632.629 98.207C634.264 97.1805 635.912 96.1631 637.573 95.1549L636.305 93.065C634.633 94.0795 632.975 95.1033 631.329 96.1366L632.629 98.207ZM622.872 104.557C624.469 103.479 626.082 102.41 627.71 101.351L626.377 99.3017C624.737 100.369 623.113 101.445 621.504 102.531L622.872 104.557ZM613.351 111.244C614.903 110.109 616.474 108.984 618.063 107.868L616.658 105.867C615.056 106.992 613.473 108.126 611.908 109.271L613.351 111.244ZM604.114 118.302C605.611 117.105 607.131 115.918 608.673 114.74L607.189 112.797C605.633 113.985 604.099 115.184 602.587 116.393L604.114 118.302ZM595.211 125.781C596.646 124.512 598.107 123.253 599.594 122.005L598.022 120.133C596.52 121.394 595.042 122.667 593.591 123.95L595.211 125.781ZM586.727 133.723C588.086 132.373 589.476 131.033 590.896 129.705L589.226 127.92C587.789 129.264 586.38 130.621 585.004 131.988L586.727 133.723ZM580.718 139.99C581.36 139.285 582.011 138.583 582.67 137.884L580.892 136.207C580.223 136.916 579.563 137.628 578.911 138.343C578.265 139.052 577.623 139.767 576.983 140.489L578.812 142.111C579.445 141.397 580.08 140.69 580.718 139.99ZM571.406 150.919C572.61 149.411 573.826 147.926 575.055 146.465L573.183 144.891C571.941 146.369 570.712 147.87 569.496 149.393L571.406 150.919ZM564.44 160.087C565.571 158.524 566.715 156.98 567.872 155.457L565.925 153.978C564.757 155.517 563.601 157.076 562.459 158.654L564.44 160.087ZM557.899 169.568C558.96 167.956 560.034 166.361 561.122 164.784L559.11 163.396C558.011 164.988 556.927 166.598 555.857 168.224L557.899 169.568ZM551.772 179.324C552.763 177.67 553.769 176.03 554.79 174.405L552.72 173.104C551.69 174.744 550.675 176.399 549.675 178.067L551.772 179.324ZM546.051 189.324C546.974 187.633 547.913 185.953 548.866 184.286L546.744 183.072C545.782 184.754 544.836 186.448 543.905 188.153L546.051 189.324ZM540.736 199.542C541.59 197.819 542.46 196.105 543.346 194.402L541.177 193.273C540.284 194.991 539.406 196.719 538.545 198.456L540.736 199.542ZM535.824 209.963C536.609 208.21 537.411 206.465 538.229 204.728L536.018 203.686C535.192 205.437 534.384 207.197 533.593 208.964L535.824 209.963ZM531.322 220.57C532.037 218.789 532.77 217.015 533.52 215.246L531.27 214.291C530.513 216.074 529.774 217.864 529.053 219.659L531.322 220.57ZM527.243 231.347C527.885 229.541 528.547 227.738 529.228 225.939L526.942 225.073C526.255 226.887 525.588 228.706 524.939 230.528L527.243 231.347ZM523.604 242.28C524.171 240.449 524.76 238.619 525.368 236.791L523.049 236.019C522.435 237.863 521.841 239.708 521.269 241.556L523.604 242.28ZM608.887 271.675C610.827 272.1 612.734 272.555 614.61 273.04L615.222 270.673C613.316 270.18 611.379 269.718 609.411 269.287L608.887 271.675ZM620.138 274.587C621.969 275.139 623.766 275.724 625.529 276.34L626.336 274.032C624.539 273.404 622.708 272.809 620.844 272.246L620.138 274.587ZM597.593 269.583C599.491 269.875 601.364 270.19 603.21 270.531L603.654 268.127C601.782 267.782 599.885 267.462 597.964 267.167L597.593 269.583ZM520.429 253.354C520.917 251.5 521.428 249.645 521.96 247.79L519.61 247.116C519.073 248.987 518.558 250.86 518.065 252.731L520.429 253.354ZM631.047 278.423C632.845 279.154 634.602 279.922 636.317 280.728L637.357 278.516C635.602 277.69 633.805 276.905 631.967 276.158L631.047 278.423ZM585.905 268.125C587.902 268.32 589.875 268.539 591.823 268.782L592.126 266.356C590.155 266.111 588.161 265.889 586.144 265.692L585.905 268.125ZM574.511 267.274C576.442 267.376 578.355 267.497 580.247 267.638L580.429 265.2C578.518 265.058 576.588 264.935 574.639 264.833L574.511 267.274ZM641.355 283.272C643.089 284.212 644.773 285.195 646.407 286.223L647.709 284.153C646.029 283.096 644.298 282.087 642.52 281.123L641.355 283.272ZM562.698 266.895C564.703 266.921 566.69 266.965 568.658 267.028L568.737 264.584C566.752 264.52 564.749 264.476 562.728 264.451L562.698 266.895ZM651.157 289.44C652.697 290.563 654.185 291.732 655.62 292.948L657.201 291.083C655.72 289.828 654.185 288.622 652.598 287.465L651.157 289.44ZM551.268 266.948C553.203 266.907 555.124 266.882 557.029 266.873L557.018 264.429C555.099 264.438 553.165 264.463 551.217 264.503L551.268 266.948ZM539.481 267.377C541.474 267.275 543.453 267.188 545.418 267.116L545.329 264.673C543.352 264.745 541.361 264.833 539.356 264.936L539.481 267.377ZM517.751 264.554C518.154 262.679 518.58 260.801 519.03 258.92L516.653 258.351C516.198 260.25 515.767 262.147 515.361 264.041L517.751 264.554ZM659.867 296.841C661.226 298.188 662.527 299.586 663.77 301.035L665.626 299.444C664.34 297.944 662.994 296.498 661.589 295.105L659.867 296.841ZM528.021 268.118C529.945 267.969 531.858 267.833 533.759 267.71L533.601 265.27C531.69 265.394 529.766 265.531 527.832 265.681L528.021 268.118ZM516.339 269.165C518.308 268.966 520.266 268.779 522.213 268.604L521.995 266.169C520.038 266.344 518.07 266.532 516.092 266.733L516.339 269.165ZM667.301 305.512C668.408 307.041 669.457 308.621 670.446 310.252L672.536 308.985C671.513 307.296 670.427 305.661 669.281 304.078L667.301 305.512ZM504.829 270.457C506.737 270.223 508.635 269.999 510.525 269.787L510.252 267.358C508.354 267.571 506.447 267.795 504.531 268.03L504.829 270.457ZM515.609 275.864C515.919 273.971 516.254 272.072 516.615 270.169L514.213 269.713C513.848 271.637 513.509 273.556 513.196 275.469L515.609 275.864ZM493.277 271.987C495.22 271.711 497.154 271.446 499.079 271.19L498.758 268.767C496.825 269.023 494.883 269.29 492.933 269.567L493.277 271.987ZM673.234 315.307C673.668 316.175 674.087 317.058 674.491 317.953C674.879 318.813 675.244 319.68 675.587 320.556L677.863 319.663C677.505 318.75 677.124 317.845 676.72 316.948C676.303 316.023 675.869 315.111 675.42 314.213L673.234 315.307ZM481.715 273.734C483.626 273.428 485.53 273.132 487.426 272.845L487.06 270.428C485.157 270.716 483.247 271.013 481.33 271.32L481.715 273.734ZM514.055 287.263C514.261 285.358 514.496 283.444 514.759 281.524L512.337 281.193C512.071 283.135 511.833 285.071 511.624 286.999L514.055 287.263ZM470.294 275.653C472.21 275.316 474.121 274.987 476.025 274.667L475.619 272.256C473.709 272.577 471.793 272.907 469.87 273.245L470.294 275.653ZM677.391 325.907C677.906 327.722 678.334 329.558 678.676 331.409L681.08 330.966C680.724 329.04 680.279 327.129 679.742 325.239L677.391 325.907ZM458.719 277.779C460.66 277.408 462.595 277.045 464.524 276.691L464.083 274.286C462.147 274.642 460.206 275.006 458.26 275.378L458.719 277.779ZM447.388 280.024C449.282 279.636 451.172 279.255 453.057 278.881L452.582 276.483C450.692 276.858 448.797 277.24 446.897 277.629L447.388 280.024ZM513.153 298.724C513.245 296.812 513.367 294.888 513.52 292.954L511.083 292.761C510.928 294.72 510.804 296.669 510.711 298.606L513.153 298.724ZM679.446 337.011C679.617 338.89 679.704 340.777 679.707 342.661L682.151 342.657C682.148 340.701 682.059 338.742 681.88 336.788L679.446 337.011ZM435.964 282.44C437.877 282.023 439.785 281.613 441.69 281.211L441.184 278.819C439.275 279.223 437.361 279.633 435.443 280.051L435.964 282.44ZM424.568 284.993C426.453 284.559 428.335 284.132 430.212 283.711L429.678 281.326C427.795 281.748 425.909 282.176 424.02 282.611L424.568 284.993ZM512.983 310.208C512.945 308.297 512.942 306.37 512.971 304.429L510.527 304.392C510.497 306.36 510.5 308.316 510.539 310.256L512.983 310.208ZM679.465 348.314C679.301 350.197 679.055 352.07 678.727 353.925L681.135 354.35C681.475 352.425 681.731 350.481 681.901 348.526L679.465 348.314ZM413.266 287.657C415.156 287.201 417.043 286.751 418.927 286.307L418.366 283.927C416.478 284.372 414.586 284.824 412.692 285.281L413.266 287.657ZM401.889 290.464C403.791 289.985 405.69 289.511 407.586 289.043L407 286.67C405.1 287.139 403.197 287.613 401.292 288.093L401.889 290.464ZM513.643 321.66C513.459 319.764 513.311 317.848 513.201 315.913L510.76 316.053C510.872 318.019 511.022 319.967 511.21 321.897L513.643 321.66ZM677.497 359.447C677.005 361.273 676.432 363.071 675.78 364.835L678.073 365.682C678.751 363.849 679.346 361.98 679.858 360.084L677.497 359.447ZM390.638 293.357C392.511 292.866 394.383 292.38 396.251 291.899L395.643 289.532C393.77 290.013 391.895 290.5 390.018 290.992L390.638 293.357ZM379.377 296.362C381.257 295.851 383.136 295.345 385.013 294.844L384.382 292.482C382.502 292.984 380.62 293.491 378.736 294.002L379.377 296.362ZM515.25 332.996C514.899 331.133 514.588 329.245 514.319 327.334L511.898 327.676C512.173 329.623 512.489 331.549 512.848 333.45L515.25 332.996ZM673.576 370.04C672.759 371.744 671.863 373.402 670.89 375.008L672.982 376.274C673.996 374.6 674.929 372.871 675.781 371.098L673.576 370.04ZM368.104 299.474C369.981 298.947 371.857 298.425 373.731 297.908L373.081 295.551C371.203 296.07 369.324 296.593 367.444 297.12L368.104 299.474ZM356.921 302.66C358.786 302.121 360.651 301.585 362.515 301.054L361.845 298.703C359.978 299.235 358.11 299.771 356.242 300.311L356.921 302.66ZM517.937 344.1C517.396 342.293 516.901 340.456 516.451 338.591L514.074 339.164C514.535 341.071 515.041 342.95 515.595 344.801L517.937 344.1ZM667.728 379.678C666.594 381.181 665.384 382.621 664.1 383.989L665.883 385.662C667.228 384.229 668.494 382.722 669.68 381.151L667.728 379.678ZM345.723 305.944C347.59 305.389 349.457 304.838 351.323 304.29L350.635 301.944C348.766 302.492 346.896 303.044 345.026 303.6L345.723 305.944ZM521.844 354.814C521.092 353.09 520.389 351.33 519.736 349.537L517.439 350.373C518.109 352.213 518.83 354.02 519.604 355.792L521.844 354.814ZM334.552 309.309C336.409 308.742 338.266 308.179 340.123 307.62L339.418 305.279C337.558 305.839 335.698 306.403 333.838 306.97L334.552 309.309ZM660.027 387.873C658.603 389.085 657.107 390.217 655.542 391.262L656.899 393.295C658.545 392.197 660.116 391.007 661.612 389.734L660.027 387.873ZM323.416 312.748C325.271 312.168 327.127 311.592 328.983 311.018L328.261 308.683C326.403 309.257 324.544 309.834 322.687 310.414L323.416 312.748ZM527.105 364.927C526.117 363.318 525.185 361.666 524.306 359.975L522.137 361.102C523.042 362.844 524.003 364.546 525.021 366.205L527.105 364.927ZM650.693 394.096C649.04 394.934 647.322 395.681 645.541 396.33L646.377 398.627C648.251 397.945 650.058 397.159 651.798 396.277L650.693 394.096ZM312.299 316.263C314.15 315.671 316.002 315.082 317.855 314.496L317.118 312.165C315.262 312.752 313.408 313.341 311.554 313.934L312.299 316.263ZM533.763 374.134C532.538 372.69 531.37 371.198 530.259 369.661L528.278 371.092C529.425 372.68 530.632 374.222 531.9 375.716L533.763 374.134ZM640.153 397.939C639.247 398.153 638.326 398.343 637.392 398.507C636.406 398.681 635.426 398.848 634.454 399.007L634.849 401.42C635.831 401.259 636.821 401.091 637.817 400.915C638.797 400.742 639.763 400.543 640.714 400.319L640.153 397.939ZM301.191 319.852C303.04 319.248 304.891 318.647 306.743 318.048L305.991 315.722C304.137 316.321 302.284 316.923 300.432 317.528L301.191 319.852ZM628.698 399.874C626.806 400.135 624.941 400.366 623.103 400.569L623.371 402.999C625.232 402.793 627.118 402.559 629.031 402.296L628.698 399.874ZM541.78 382.17C540.332 380.936 538.943 379.651 537.613 378.317L535.882 380.044C537.259 381.424 538.696 382.754 540.194 384.031L541.78 382.17ZM290.119 323.504C291.961 322.89 293.804 322.279 295.65 321.67L294.884 319.349C293.036 319.958 291.19 320.57 289.346 321.184L290.119 323.504ZM617.307 401.123C615.364 401.279 613.452 401.402 611.571 401.492L611.689 403.934C613.596 403.842 615.534 403.717 617.502 403.559L617.307 401.123ZM550.999 388.829C549.355 387.828 547.77 386.776 546.242 385.673L544.811 387.655C546.391 388.795 548.03 389.884 549.729 390.917L550.999 388.829ZM605.916 401.669C603.936 401.697 601.993 401.687 600.086 401.641L600.027 404.085C601.966 404.132 603.94 404.142 605.95 404.114L605.916 401.669ZM279.082 327.216C280.919 326.592 282.759 325.97 284.601 325.351L283.822 323.034C281.977 323.654 280.136 324.276 278.297 324.901L279.082 327.216ZM561.142 394.001C559.35 393.245 557.613 392.437 555.932 391.58L554.821 393.758C556.556 394.643 558.346 395.475 560.192 396.254L561.142 394.001ZM594.472 401.392C592.497 401.265 590.563 401.095 588.669 400.886L588.4 403.316C590.331 403.529 592.303 403.702 594.314 403.832L594.472 401.392ZM583.064 400.13C581.129 399.82 579.239 399.466 577.394 399.068L576.878 401.458C578.767 401.865 580.7 402.228 582.678 402.544L583.064 400.13ZM571.898 397.72C570.017 397.2 568.187 396.632 566.407 396.017L565.609 398.328C567.438 398.96 569.317 399.543 571.247 400.076L571.898 397.72ZM268.018 331.006C269.856 330.371 271.698 329.737 273.542 329.105L272.749 326.792C270.903 327.425 269.06 328.059 267.219 328.696L268.018 331.006ZM257.025 334.838C258.851 334.196 260.68 333.556 262.512 332.917L261.707 330.609C259.873 331.248 258.042 331.889 256.214 332.532L257.025 334.838ZM246.027 338.736C247.867 338.079 249.712 337.422 251.559 336.768L250.743 334.463C248.893 335.119 247.047 335.776 245.205 336.434L246.027 338.736ZM235.029 342.697C236.853 342.035 238.682 341.374 240.515 340.713L239.687 338.413C237.852 339.074 236.021 339.736 234.195 340.399L235.029 342.697ZM224.139 346.678C225.944 346.013 227.754 345.349 229.569 344.685L228.73 342.389C226.913 343.053 225.101 343.718 223.294 344.384L224.139 346.678ZM213.135 350.759C214.964 350.076 216.799 349.393 218.64 348.71L217.79 346.418C215.947 347.102 214.111 347.785 212.28 348.469L213.135 350.759ZM202.232 354.861C204.037 354.177 205.848 353.493 207.665 352.81L206.805 350.522C204.986 351.206 203.173 351.89 201.366 352.574L202.232 354.861ZM191.366 359.002C193.183 358.306 195.006 357.608 196.836 356.91L195.965 354.626C194.133 355.324 192.308 356.022 190.49 356.72L191.366 359.002ZM180.417 363.231C182.227 362.527 184.044 361.823 185.869 361.119L184.988 358.838C183.162 359.543 181.343 360.248 179.532 360.952L180.417 363.231ZM169.658 367.438C171.434 366.739 173.22 366.039 175.013 365.337L174.123 363.06C172.328 363.762 170.541 364.463 168.763 365.163L169.658 367.438ZM158.707 371.772C160.525 371.048 162.353 370.322 164.191 369.595L163.291 367.322C161.452 368.05 159.622 368.776 157.802 369.501L158.707 371.772ZM147.919 376.092C149.696 375.377 151.484 374.658 153.282 373.938L152.373 371.669C150.573 372.389 148.784 373.108 147.005 373.825L147.919 376.092ZM137.099 380.475C138.926 379.731 140.766 378.983 142.618 378.233L141.701 375.967C139.847 376.718 138.006 377.466 136.177 378.211L137.099 380.475ZM126.269 384.912C128.048 384.179 129.84 383.443 131.645 382.703L130.718 380.441C128.912 381.181 127.118 381.918 125.338 382.652L126.269 384.912ZM115.576 389.341C117.36 388.598 119.159 387.851 120.973 387.1L120.037 384.841C118.222 385.593 116.421 386.341 114.636 387.084L115.576 389.341ZM104.706 393.892C106.484 393.143 108.279 392.39 110.091 391.631L109.147 389.376C107.334 390.135 105.537 390.889 103.758 391.638L104.706 393.892ZM94.0998 398.38C95.8556 397.633 97.6304 396.88 99.4238 396.121L98.4711 393.87C96.6763 394.629 94.9 395.383 93.1429 396.13L94.0998 398.38ZM83.2259 403.03C84.994 402.27 86.7845 401.502 88.5971 400.727L87.6357 398.479C85.8218 399.255 84.0298 400.023 82.2603 400.784L83.2259 403.03ZM72.6249 407.612C74.3871 406.846 76.1757 406.071 77.99 405.287L77.0202 403.043C75.2045 403.827 73.4144 404.603 71.6508 405.369L72.6249 407.612ZM61.8534 412.316C63.588 411.555 65.3534 410.781 67.1489 409.997L66.1703 407.757C64.3734 408.542 62.6065 409.315 60.8705 410.078L61.8534 412.316ZM51.1435 417.044C52.9615 416.237 54.8217 415.414 56.7229 414.575L55.7357 412.338C53.8329 413.178 51.9711 414.002 50.1516 414.81L51.1435 417.044ZM40.753 421.682C42.3969 420.944 44.0856 420.188 45.8178 419.415L44.8213 417.183C43.0876 417.956 41.3974 418.713 39.752 419.451L40.753 421.682ZM29.905 426.579C31.5856 425.816 33.3322 425.025 35.1429 424.207L34.1368 421.979C32.3245 422.797 30.5762 423.589 28.894 424.353L29.905 426.579ZM19.2262 431.461C20.9149 430.684 22.7125 429.859 24.6151 428.989L23.5987 426.766C21.6942 427.636 19.8947 428.462 18.204 429.24L19.2262 431.461ZM8.77435 436.308C10.3018 435.594 12.0456 434.781 13.9962 433.877L12.9679 431.659C11.0148 432.564 9.26857 433.378 7.73875 434.093L8.77435 436.308ZM0.528661 438.847L1.05734 439.949L1.05744 439.949L1.05785 439.949L1.05956 439.948L1.06655 439.945L1.09484 439.931L1.20828 439.877C1.30906 439.829 1.46004 439.756 1.66033 439.661C2.06089 439.47 2.65867 439.186 3.44659 438.813L2.40084 436.603C1.6109 436.977 1.01115 437.262 0.608663 437.454C0.407411 437.55 0.25547 437.622 0.153728 437.671L0.0388801 437.726L0.00989592 437.74L0.00255345 437.743L0.000669421 437.744L0.000172805 437.745L0 437.745L0.528661 438.847Z" fill="url(#paint0_linear_682_2319)"/>
<defs>
<linearGradient id="paint0_linear_682_2319" x1="431.787" y1="273.072" x2="427.956" y2="-288.242" gradientUnits="userSpaceOnUse">
<stop stop-color="#1E695A"/>
<stop offset="1" stop-color="#7EFF9B"/>
</linearGradient>
</defs>
</svg>
