<svg width="324" height="306" viewBox="0 0 324 306" fill="none" xmlns="http://www.w3.org/2000/svg">
<path fill-rule="evenodd" clip-rule="evenodd" d="M274.535 0.126709L323.612 1.62346L293.092 22.2628L285.966 13.7623L319.422 2.63097L281.761 8.7466L274.535 0.126709ZM278.728 22.3924L284.811 15.3879L286.957 18.0631L278.728 22.3924ZM267.888 16.8201C268.781 16.6011 269.464 16.4368 269.923 16.3273C270.153 16.2726 270.326 16.2315 270.442 16.2043L270.572 16.1737L270.605 16.1661L270.613 16.1643L270.615 16.1638L270.338 14.973L270.062 13.7824L270.061 13.7826L270.059 13.7831L270.05 13.7851L270.016 13.7931L269.882 13.8245C269.764 13.8523 269.588 13.8939 269.356 13.9492C268.892 14.0598 268.204 14.2254 267.306 14.4456L267.888 16.8201ZM256.583 19.7138C258.655 19.1648 260.522 18.679 262.169 18.2568L261.561 15.8886C259.909 16.3124 258.035 16.7998 255.956 17.3505L256.583 19.7138ZM245.31 22.7851C247.289 22.2317 249.171 21.7126 250.949 21.2279L250.307 18.8692C248.523 19.3552 246.636 19.8757 244.652 20.4307L245.31 22.7851ZM234.064 26.006C235.99 25.4417 237.856 24.9013 239.658 24.385L238.985 22.0348C237.178 22.5524 235.307 23.0941 233.377 23.6599L234.064 26.006ZM222.904 29.3493C224.814 28.7647 226.682 28.1993 228.506 27.6531L227.804 25.3111C225.976 25.8587 224.104 26.4255 222.189 27.0115L222.904 29.3493ZM211.776 32.8276C213.646 32.2307 215.487 31.6496 217.296 31.0842L216.566 28.7508C214.753 29.3175 212.908 29.9001 211.033 30.4985L211.776 32.8276ZM200.662 36.4473C202.53 35.8266 204.375 35.2198 206.194 34.627L205.437 32.3024C203.613 32.8967 201.763 33.505 199.891 34.1273L200.662 36.4473ZM189.592 40.2027C191.458 39.5566 193.307 38.9233 195.136 38.3028L194.351 35.9876C192.517 36.6097 190.663 37.2447 188.792 37.8924L189.592 40.2027ZM178.576 44.0943C180.435 43.4242 182.28 42.7658 184.11 42.1193L183.296 39.814C181.461 40.4623 179.61 41.1225 177.747 41.7944L178.576 44.0943ZM167.633 48.1213C169.476 47.4291 171.309 46.7478 173.131 46.0776L172.286 43.7831C170.46 44.4553 168.622 45.1384 166.774 45.8326L167.633 48.1213ZM156.744 52.2984C158.572 51.5826 160.392 50.8771 162.204 50.182L161.329 47.8993C159.511 48.5965 157.685 49.3041 155.852 50.0221L156.744 52.2984ZM145.915 56.6329C147.727 55.8917 149.535 55.1603 151.338 54.4389L150.43 52.1691C148.622 52.8928 146.808 53.6265 144.989 54.3701L145.915 56.6329ZM135.154 61.1329C136.951 60.3645 138.746 59.6056 140.538 58.8563L139.595 56.6007C137.797 57.3525 135.996 58.114 134.192 58.885L135.154 61.1329ZM124.468 65.8082C126.249 65.0107 128.03 64.2226 129.811 63.4437L128.831 61.2039C127.044 61.9855 125.257 62.7765 123.469 63.5769L124.468 65.8082ZM113.87 70.6702C115.632 69.8417 117.397 69.0223 119.164 68.2121L118.145 65.9899C116.372 66.8032 114.599 67.6258 112.83 68.4576L113.87 70.6702ZM103.368 75.7321C105.111 74.8704 106.858 74.0177 108.608 73.174L107.547 70.9716C105.789 71.8188 104.035 72.6752 102.284 73.5406L103.368 75.7321ZM92.9763 81.0098C94.6964 80.1122 96.423 79.2236 98.1554 78.344L97.0485 76.1641C95.3083 77.0478 93.5735 77.9405 91.8453 78.8423L92.9763 81.0098ZM82.7087 86.5218C84.4038 85.5851 86.1078 84.6574 87.8196 83.7386L86.6635 81.5845C84.9431 82.5079 83.2303 83.4404 81.5262 84.382L82.7087 86.5218ZM72.585 92.2886C74.252 91.3091 75.9302 90.3386 77.6185 89.3771L76.4086 87.2527C74.7109 88.2195 73.0233 89.1955 71.3464 90.1808L72.585 92.2886ZM62.6293 98.3337C64.2641 97.3072 65.9124 96.2898 67.5732 95.2816L66.3045 93.1917C64.6335 94.2062 62.9747 95.23 61.3292 96.2633L62.6293 98.3337ZM52.872 104.684C54.4689 103.606 56.082 102.537 57.7104 101.478L56.377 99.4285C54.7374 100.495 53.1127 101.572 51.504 102.658L52.872 104.684ZM43.3509 111.371C44.9027 110.236 46.4738 109.111 48.0629 107.995L46.6581 105.994C45.0564 107.118 43.4725 108.253 41.9077 109.397L43.3509 111.371ZM34.114 118.429C35.6114 117.232 37.1313 116.044 38.6728 114.867L37.1887 112.924C35.6334 114.112 34.0992 115.31 32.5873 116.519L34.114 118.429ZM25.2111 125.908C26.6458 124.639 28.1072 123.38 29.5939 122.132L28.0217 120.26C26.5195 121.521 25.0422 122.793 23.5913 124.077L25.2111 125.908ZM16.7266 133.85C18.0856 132.5 19.476 131.16 20.8961 129.832L19.2259 128.046C17.7885 129.391 16.3805 130.747 15.0035 132.115L16.7266 133.85ZM10.7184 140.117C11.3604 139.412 12.0111 138.71 12.6703 138.011L10.8916 136.334C10.223 137.043 9.56268 137.755 8.91113 138.47C8.26544 139.179 7.62274 139.894 6.98309 140.616L8.81244 142.237C9.44482 141.524 10.0801 140.817 10.7184 140.117ZM1.40613 151.045C2.60968 149.538 3.82599 148.053 5.05457 146.591L3.18304 145.018C1.9411 146.496 0.711731 147.997 -0.504395 149.52L1.40613 151.045ZM-5.55975 160.213C-4.42902 158.651 -3.28479 157.107 -2.12769 155.583L-4.07452 154.105C-5.24323 155.643 -6.39874 157.202 -7.54053 158.78L-5.55975 160.213ZM-12.1008 169.694C-11.0403 168.083 -9.96588 166.488 -8.87781 164.911L-10.8903 163.522C-11.9885 165.115 -13.073 166.724 -14.1431 168.351L-12.1008 169.694ZM-18.228 179.451C-17.2367 177.796 -16.2305 176.156 -15.21 174.531L-17.2803 173.231C-18.31 174.871 -19.325 176.525 -20.3251 178.194L-18.228 179.451ZM-23.9487 189.451C-23.0258 187.76 -22.0873 186.08 -21.1337 184.413L-23.2559 183.199C-24.2176 184.88 -25.1641 186.574 -26.0947 188.28L-23.9487 189.451ZM-29.264 199.669C-28.4102 197.945 -27.54 196.232 -26.6539 194.528L-28.8228 193.4C-29.7162 195.118 -30.5937 196.846 -31.4547 198.583L-29.264 199.669ZM-34.176 210.089C-33.3914 208.337 -32.5894 206.591 -31.7708 204.855L-33.9822 203.812C-34.8076 205.564 -35.6162 207.323 -36.4074 209.09L-34.176 210.089ZM-38.6779 220.696C-37.9632 218.916 -37.2303 217.141 -36.4797 215.373L-38.7302 214.418C-39.4871 216.201 -40.226 217.99 -40.9467 219.786L-38.6779 220.696ZM-42.7572 231.474C-42.1145 229.667 -41.4525 227.864 -40.7716 226.066L-43.058 225.2C-43.7447 227.014 -44.4124 228.832 -45.0605 230.654L-42.7572 231.474ZM-46.3962 242.406C-45.8286 240.575 -45.2403 238.746 -44.6319 236.918L-46.9515 236.146C-47.5652 237.989 -48.1587 239.835 -48.7313 241.683L-46.3962 242.406ZM38.8871 271.802C40.8266 272.227 42.7345 272.682 44.6099 273.167L45.2222 270.8C43.3163 270.307 41.3788 269.845 39.4107 269.414L38.8871 271.802ZM50.1376 274.713C51.9691 275.266 53.7664 275.85 55.5285 276.467L56.3357 274.159C54.5391 273.531 52.7081 272.936 50.8439 272.373L50.1376 274.713ZM27.593 269.71C29.4911 270.001 31.3637 270.317 33.2103 270.658L33.6537 268.254C31.7822 267.908 29.8854 267.589 27.9639 267.294L27.593 269.71ZM-49.5707 253.48C-49.0826 251.626 -48.5723 249.771 -48.0403 247.916L-50.3903 247.242C-50.9272 249.114 -51.4422 250.986 -51.9349 252.858L-49.5707 253.48ZM61.0465 278.549C62.845 279.281 64.6023 280.049 66.3173 280.855L67.3572 278.642C65.6017 277.817 63.8045 277.032 61.9672 276.285L61.0465 278.549ZM15.9053 268.251C17.9021 268.447 19.875 268.666 21.8232 268.909L22.1257 266.483C20.1555 266.237 18.1611 266.016 16.1436 265.818L15.9053 268.251ZM4.51068 267.401C6.44238 267.503 8.35461 267.624 10.2469 267.765L10.4285 265.327C8.51801 265.184 6.58801 265.062 4.63916 264.96L4.51068 267.401ZM71.3549 283.399C73.0886 284.338 74.7732 285.322 76.4073 286.349L77.7089 284.28C76.0286 283.223 74.2984 282.213 72.5198 281.249L71.3549 283.399ZM-7.30243 267.022C-5.29718 267.047 -3.31006 267.091 -1.34174 267.154L-1.26349 264.711C-3.24811 264.647 -5.25104 264.603 -7.27173 264.578L-7.30243 267.022ZM81.1572 289.567C82.6974 290.69 84.1854 291.859 85.62 293.075L87.2007 291.21C85.7197 289.955 84.1849 288.749 82.5979 287.591L81.1572 289.567ZM-18.732 267.074C-16.7966 267.034 -14.8762 267.009 -12.9711 267L-12.9824 264.555C-14.9011 264.564 -16.8349 264.589 -18.7832 264.63L-18.732 267.074ZM-30.5187 267.504C-28.5258 267.402 -26.5468 267.315 -24.5822 267.243L-24.6714 264.8C-26.6483 264.872 -28.6393 264.96 -30.644 265.062L-30.5187 267.504ZM-52.2491 264.681C-51.8464 262.806 -51.4198 260.927 -50.9697 259.047L-53.3474 258.478C-53.8018 260.377 -54.2326 262.273 -54.6393 264.167L-52.2491 264.681ZM89.8672 296.967C91.226 298.315 92.5272 299.712 93.7697 301.162L95.6257 299.57C94.3398 298.07 92.9936 296.625 91.5888 295.231L89.8672 296.967ZM-41.9792 268.245C-40.0547 268.096 -38.1418 267.96 -36.2407 267.836L-36.3987 265.397C-38.3102 265.521 -40.2335 265.658 -42.168 265.807L-41.9792 268.245ZM-53.6611 269.292C-51.6921 269.092 -49.7339 268.905 -47.7868 268.731L-48.0052 266.296C-49.9619 266.471 -51.9296 266.659 -53.9077 266.86L-53.6611 269.292ZM97.301 305.639C98.4078 307.168 99.4565 308.747 100.446 310.379L102.536 309.112C101.513 307.423 100.427 305.788 99.2811 304.205L97.301 305.639ZM-65.1712 270.583C-63.2635 270.349 -61.3647 270.126 -59.4753 269.914L-59.7483 267.484C-61.6461 267.698 -63.5531 267.922 -65.4689 268.157L-65.1712 270.583ZM-54.391 275.99C-54.0814 274.098 -53.7458 272.199 -53.3848 270.296L-55.7868 269.84C-56.1516 271.763 -56.4908 273.682 -56.8037 275.596L-54.391 275.99ZM-76.7227 272.114C-74.7804 271.838 -72.8465 271.572 -70.9211 271.317L-71.2423 268.894C-73.1754 269.15 -75.1169 269.416 -77.0665 269.693L-76.7227 272.114ZM103.234 315.433C103.668 316.302 104.087 317.184 104.491 318.08C104.879 318.939 105.244 319.807 105.587 320.682L107.863 319.789C107.505 318.877 107.124 317.972 106.72 317.075C106.303 316.15 105.869 315.238 105.42 314.34L103.234 315.433ZM-88.2846 273.861C-86.3738 273.555 -84.4702 273.259 -82.5741 272.972L-82.9397 270.555C-84.8427 270.843 -86.7531 271.14 -88.6704 271.446L-88.2846 273.861ZM-55.9451 287.389C-55.7385 285.485 -55.5037 283.571 -55.2411 281.65L-57.6634 281.319C-57.929 283.262 -58.1666 285.198 -58.3757 287.126L-55.9451 287.389ZM-99.7064 275.78C-97.7896 275.442 -95.8792 275.114 -93.9754 274.794L-94.3806 272.383C-96.2906 272.704 -98.2073 273.033 -100.13 273.372L-99.7064 275.78ZM107.391 326.034C107.906 327.848 108.334 329.685 108.676 331.536L111.08 331.092C110.724 329.167 110.279 327.255 109.742 325.366L107.391 326.034ZM-111.281 277.906C-109.34 277.535 -107.405 277.172 -105.476 276.817L-105.917 274.413C-107.853 274.768 -109.794 275.132 -111.74 275.504L-111.281 277.906ZM-122.612 280.151C-120.718 279.762 -118.828 279.381 -116.943 279.008L-117.418 276.61C-119.308 276.984 -121.203 277.366 -123.103 277.756L-122.612 280.151ZM-56.8471 298.85C-56.7554 296.939 -56.6327 295.015 -56.4796 293.081L-58.9167 292.888C-59.0718 294.847 -59.1961 296.796 -59.2891 298.733L-56.8471 298.85ZM109.446 337.137C109.617 339.017 109.704 340.903 109.707 342.788L112.151 342.784C112.148 340.827 112.059 338.868 111.88 336.915L109.446 337.137ZM-134.036 282.567C-132.123 282.15 -130.215 281.74 -128.31 281.337L-128.816 278.945C-130.725 279.349 -132.639 279.76 -134.557 280.178L-134.036 282.567ZM-145.432 285.12C-143.547 284.686 -141.665 284.259 -139.788 283.838L-140.322 281.452C-142.205 281.874 -144.091 282.303 -145.98 282.737L-145.432 285.12ZM-57.0169 310.335C-57.0547 308.424 -57.0585 306.497 -57.0286 304.556L-59.4731 304.518C-59.5034 306.487 -59.4996 308.443 -59.4612 310.383L-57.0169 310.335ZM109.465 348.441C109.301 350.324 109.055 352.197 108.727 354.052L111.135 354.477C111.475 352.551 111.731 350.607 111.901 348.653L109.465 348.441ZM-156.734 287.784C-154.844 287.328 -152.957 286.878 -151.073 286.434L-151.634 284.054C-153.522 284.499 -155.414 284.95 -157.308 285.407L-156.734 287.784ZM-168.111 290.591C-166.209 290.112 -164.31 289.638 -162.414 289.17L-163 286.797C-164.9 287.265 -166.803 287.74 -168.708 288.22L-168.111 290.591ZM-56.3566 321.786C-56.5414 319.89 -56.6887 317.974 -56.799 316.04L-59.2398 316.179C-59.1277 318.145 -58.978 320.094 -58.7898 322.024L-56.3566 321.786ZM107.497 359.574C107.005 361.399 106.432 363.198 105.78 364.961L108.073 365.809C108.751 363.976 109.346 362.107 109.858 360.211L107.497 359.574ZM-179.362 293.483C-177.489 292.992 -175.617 292.507 -173.749 292.026L-174.357 289.658C-176.23 290.14 -178.105 290.627 -179.982 291.118L-179.362 293.483ZM-190.623 296.488C-188.743 295.978 -186.864 295.472 -184.987 294.971L-185.618 292.609C-187.498 293.111 -189.38 293.617 -191.264 294.129L-190.623 296.488ZM-54.7495 333.123C-55.1014 331.26 -55.4118 329.372 -55.6814 327.461L-58.1022 327.803C-57.8275 329.75 -57.511 331.675 -57.1518 333.577L-54.7495 333.123ZM103.576 370.167C102.759 371.87 101.863 373.529 100.89 375.134L102.982 376.401C103.996 374.727 104.929 372.998 105.781 371.224L103.576 370.167ZM-201.896 299.601C-200.019 299.074 -198.143 298.552 -196.269 298.034L-196.919 295.678C-198.797 296.196 -200.676 296.719 -202.556 297.247L-201.896 299.601ZM-213.079 302.787C-211.214 302.247 -209.349 301.712 -207.485 301.181L-208.155 298.83C-210.022 299.362 -211.89 299.898 -213.758 300.438L-213.079 302.787ZM-52.0632 344.227C-52.6039 342.42 -53.0989 340.583 -53.549 338.717L-55.9255 339.291C-55.4655 341.198 -54.9591 343.077 -54.4055 344.927L-52.0632 344.227ZM97.7281 379.805C96.5939 381.308 95.384 382.748 94.1005 384.116L95.8834 385.788C97.228 384.355 98.494 382.849 99.6795 381.278L97.7281 379.805ZM-224.277 306.07C-222.41 305.515 -220.543 304.964 -218.677 304.417L-219.365 302.071C-221.234 302.619 -223.104 303.171 -224.974 303.727L-224.277 306.07ZM-48.1555 354.94C-48.9081 353.217 -49.6107 351.457 -50.2639 349.663L-52.561 350.5C-51.8909 352.34 -51.1696 354.147 -50.396 355.919L-48.1555 354.94ZM-235.448 309.436C-233.591 308.869 -231.734 308.306 -229.877 307.747L-230.582 305.406C-232.442 305.966 -234.302 306.53 -236.162 307.097L-235.448 309.436ZM90.0273 387.999C88.603 389.211 87.1072 390.344 85.5419 391.388L86.8991 393.422C88.5449 392.324 90.1164 391.134 91.6118 389.861L90.0273 387.999ZM-246.584 312.875C-244.729 312.295 -242.873 311.718 -241.017 311.145L-241.739 308.809C-243.597 309.383 -245.456 309.961 -247.313 310.541L-246.584 312.875ZM-42.8951 365.053C-43.8825 363.444 -44.8151 361.793 -45.6937 360.102L-47.8632 361.229C-46.9584 362.971 -45.9974 364.672 -44.9788 366.332L-42.8951 365.053ZM80.693 394.223C79.0396 395.061 77.3216 395.808 75.5407 396.457L76.3774 398.754C78.2508 398.072 80.0584 397.285 81.7983 396.403L80.693 394.223ZM-257.701 316.389C-255.85 315.798 -253.998 315.209 -252.145 314.623L-252.882 312.292C-254.738 312.878 -256.592 313.468 -258.446 314.061L-257.701 316.389ZM-36.2365 374.261C-37.4625 372.816 -38.6302 371.325 -39.7407 369.787L-41.7224 371.219C-40.5752 372.807 -39.3682 374.349 -38.1003 375.843L-36.2365 374.261ZM70.153 398.066C69.2468 398.28 68.3264 398.469 67.3922 398.634C66.4059 398.808 65.4265 398.974 64.4537 399.134L64.8485 401.546C65.8312 401.386 66.8207 401.217 67.8167 401.042C68.7968 400.869 69.7628 400.67 70.7145 400.445L70.153 398.066ZM-268.809 319.978C-266.96 319.375 -265.109 318.773 -263.257 318.175L-264.009 315.849C-265.863 316.448 -267.716 317.05 -269.568 317.654L-268.809 319.978ZM58.698 400.001C56.8062 400.261 54.9412 400.493 53.1026 400.696L53.3709 403.126C55.2316 402.92 57.1182 402.686 59.0311 402.423L58.698 400.001ZM-28.2198 382.297C-29.6681 381.063 -31.0568 379.778 -32.3871 378.444L-34.118 380.17C-32.7414 381.55 -31.3043 382.88 -29.8055 384.158L-28.2198 382.297ZM-279.881 323.631C-278.039 323.017 -276.196 322.406 -274.35 321.797L-275.116 319.475C-276.964 320.085 -278.81 320.697 -280.654 321.311L-279.881 323.631ZM47.3068 401.249C45.3637 401.405 43.4519 401.528 41.571 401.619L41.6888 404.061C43.5963 403.969 45.5341 403.844 47.5024 403.686L47.3068 401.249ZM-19.0007 388.956C-20.645 387.955 -22.2303 386.902 -23.7576 385.799L-25.189 387.781C-23.6093 388.922 -21.9703 390.01 -20.2714 391.044L-19.0007 388.956ZM35.9158 401.796C33.9365 401.824 31.9934 401.814 30.0863 401.768L30.0268 404.212C31.9659 404.259 33.9402 404.269 35.95 404.241L35.9158 401.796ZM-290.918 327.342C-289.081 326.719 -287.241 326.097 -285.399 325.478L-286.178 323.16C-288.023 323.781 -289.864 324.403 -291.703 325.027L-290.918 327.342ZM-8.85779 394.128C-10.6503 393.372 -12.3867 392.564 -14.0679 391.707L-15.1785 393.885C-13.444 394.769 -11.6542 395.602 -9.80811 396.381L-8.85779 394.128ZM24.4721 401.519C22.4968 401.391 20.5626 401.222 18.6688 401.012L18.3998 403.442C20.3314 403.656 22.3027 403.829 24.3141 403.959L24.4721 401.519ZM13.0643 400.256C11.1286 399.947 9.23853 399.593 7.39362 399.195L6.87848 401.585C8.76721 401.992 10.7003 402.354 12.6783 402.671L13.0643 400.256ZM1.89789 397.847C0.0169067 397.327 -1.81299 396.759 -3.59271 396.144L-4.39124 398.454C-2.56189 399.086 -0.682861 399.67 1.24664 400.203L1.89789 397.847ZM-301.982 331.133C-300.144 330.497 -298.302 329.864 -296.458 329.232L-297.251 326.919C-299.097 327.552 -300.94 328.186 -302.781 328.822L-301.982 331.133ZM-312.975 334.965C-311.149 334.323 -309.32 333.683 -307.488 333.044L-308.293 330.736C-310.127 331.375 -311.958 332.016 -313.786 332.659L-312.975 334.965ZM-323.973 338.863C-322.133 338.205 -320.288 337.549 -318.441 336.894L-319.257 334.59C-321.107 335.246 -322.953 335.902 -324.795 336.561L-323.973 338.863ZM-334.971 342.824C-333.147 342.162 -331.318 341.5 -329.485 340.84L-330.313 338.54C-332.148 339.201 -333.979 339.863 -335.805 340.525L-334.971 342.824ZM-345.861 346.805C-344.056 346.14 -342.246 345.476 -340.431 344.812L-341.27 342.516C-343.087 343.18 -344.899 343.845 -346.706 344.51L-345.861 346.805ZM-356.865 350.886C-355.036 350.203 -353.201 349.52 -351.36 348.837L-352.21 346.545C-354.053 347.228 -355.889 347.912 -357.72 348.596L-356.865 350.886ZM-367.768 354.987C-365.963 354.304 -364.152 353.62 -362.335 352.936L-363.195 350.648C-365.014 351.332 -366.827 352.017 -368.634 352.701L-367.768 354.987ZM-378.634 359.129C-376.817 358.432 -374.994 357.735 -373.164 357.037L-374.035 354.753C-375.867 355.451 -377.692 356.149 -379.51 356.847L-378.634 359.129ZM-389.583 363.357C-387.773 362.654 -385.956 361.95 -384.131 361.245L-385.012 358.965C-386.838 359.67 -388.657 360.375 -390.468 361.079L-389.583 363.357ZM-400.342 367.564C-398.566 366.866 -396.78 366.165 -394.987 365.464L-395.877 363.187C-397.672 363.889 -399.459 364.59 -401.237 365.289L-400.342 367.564ZM-411.293 371.899C-409.475 371.175 -407.647 370.449 -405.809 369.722L-406.709 367.448C-408.548 368.176 -410.378 368.903 -412.198 369.627L-411.293 371.899ZM-422.081 376.219C-420.304 375.503 -418.516 374.785 -416.718 374.065L-417.627 371.795C-419.427 372.516 -421.216 373.235 -422.995 373.951L-422.081 376.219ZM-432.901 380.602C-431.074 379.858 -429.234 379.11 -427.382 378.36L-428.299 376.094C-430.153 376.845 -431.994 377.593 -433.823 378.338L-432.901 380.602ZM-443.731 385.039C-441.952 384.306 -440.16 383.57 -438.355 382.83L-439.282 380.568C-441.088 381.308 -442.882 382.045 -444.662 382.778L-443.731 385.039ZM-454.424 389.468C-452.64 388.725 -450.841 387.978 -449.027 387.227L-449.963 384.968C-451.778 385.72 -453.579 386.467 -455.364 387.211L-454.424 389.468ZM-465.294 394.019C-463.516 393.27 -461.721 392.516 -459.909 391.758L-460.853 389.503C-462.666 390.262 -464.463 391.016 -466.242 391.765L-465.294 394.019ZM-475.9 398.507C-474.144 397.76 -472.37 397.007 -470.576 396.248L-471.529 393.996C-473.324 394.756 -475.1 395.51 -476.857 396.257L-475.9 398.507ZM-486.774 403.157C-485.006 402.397 -483.215 401.629 -481.403 400.854L-482.364 398.606C-484.178 399.382 -485.97 400.15 -487.74 400.911L-486.774 403.157ZM-497.375 407.738C-495.613 406.973 -493.824 406.198 -492.01 405.414L-492.98 403.169C-494.796 403.954 -496.586 404.73 -498.349 405.496L-497.375 407.738ZM-508.147 412.443C-506.412 411.681 -504.647 410.908 -502.851 410.124L-503.83 407.883C-505.627 408.668 -507.394 409.442 -509.13 410.204L-508.147 412.443ZM-518.856 417.171C-517.039 416.364 -515.178 415.541 -513.277 414.702L-514.264 412.465C-516.167 413.305 -518.029 414.129 -519.848 414.937L-518.856 417.171ZM-529.247 421.809C-527.603 421.071 -525.914 420.315 -524.182 419.542L-525.179 417.309C-526.912 418.083 -528.603 418.84 -530.248 419.578L-529.247 421.809ZM-540.095 426.706C-538.414 425.943 -536.668 425.151 -534.857 424.334L-535.863 422.106C-537.676 422.924 -539.424 423.716 -541.106 424.48L-540.095 426.706ZM-550.774 431.588C-549.085 430.81 -547.287 429.986 -545.385 429.116L-546.401 426.893C-548.306 427.763 -550.105 428.589 -551.796 429.367L-550.774 431.588ZM-561.226 436.435C-559.698 435.72 -557.954 434.908 -556.004 434.004L-557.032 431.786C-558.985 432.691 -560.731 433.505 -562.261 434.22L-561.226 436.435ZM-569.471 438.974L-568.943 440.076L-568.943 440.076L-568.942 440.075L-568.94 440.075L-568.933 440.071L-568.905 440.058L-568.792 440.003C-568.691 439.955 -568.54 439.883 -568.34 439.788C-567.939 439.597 -567.341 439.313 -566.553 438.94L-567.599 436.73C-568.389 437.104 -568.989 437.389 -569.391 437.581C-569.593 437.677 -569.745 437.749 -569.846 437.798L-569.961 437.853L-569.99 437.867L-569.997 437.87L-569.999 437.871L-570 437.871L-570 437.871L-569.471 438.974Z" fill="#7EFF9B"/>
<path fill-rule="evenodd" clip-rule="evenodd" d="M274.535 0.126709L323.612 1.62346L293.092 22.2628L285.966 13.7623L319.422 2.63097L281.761 8.7466L274.535 0.126709ZM278.728 22.3924L284.811 15.3879L286.957 18.0631L278.728 22.3924ZM267.888 16.8201C268.781 16.6011 269.464 16.4368 269.923 16.3273C270.153 16.2726 270.326 16.2315 270.442 16.2043L270.572 16.1737L270.605 16.1661L270.613 16.1643L270.615 16.1638L270.338 14.973L270.062 13.7824L270.061 13.7826L270.059 13.7831L270.05 13.7851L270.016 13.7931L269.882 13.8245C269.764 13.8523 269.588 13.8939 269.356 13.9492C268.892 14.0598 268.204 14.2254 267.306 14.4456L267.888 16.8201ZM256.583 19.7138C258.655 19.1648 260.522 18.679 262.169 18.2568L261.561 15.8886C259.909 16.3124 258.035 16.7998 255.956 17.3505L256.583 19.7138ZM245.31 22.7851C247.289 22.2317 249.171 21.7126 250.949 21.2279L250.307 18.8692C248.523 19.3552 246.636 19.8757 244.652 20.4307L245.31 22.7851ZM234.064 26.006C235.99 25.4417 237.856 24.9013 239.658 24.385L238.985 22.0348C237.178 22.5524 235.307 23.0941 233.377 23.6599L234.064 26.006ZM222.904 29.3493C224.814 28.7647 226.682 28.1993 228.506 27.6531L227.804 25.3111C225.976 25.8587 224.104 26.4255 222.189 27.0115L222.904 29.3493ZM211.776 32.8276C213.646 32.2307 215.487 31.6496 217.296 31.0842L216.566 28.7508C214.753 29.3175 212.908 29.9001 211.033 30.4985L211.776 32.8276ZM200.662 36.4473C202.53 35.8266 204.375 35.2198 206.194 34.627L205.437 32.3024C203.613 32.8967 201.763 33.505 199.891 34.1273L200.662 36.4473ZM189.592 40.2027C191.458 39.5566 193.307 38.9233 195.136 38.3028L194.351 35.9876C192.517 36.6097 190.663 37.2447 188.792 37.8924L189.592 40.2027ZM178.576 44.0943C180.435 43.4242 182.28 42.7658 184.11 42.1193L183.296 39.814C181.461 40.4623 179.61 41.1225 177.747 41.7944L178.576 44.0943ZM167.633 48.1213C169.476 47.4291 171.309 46.7478 173.131 46.0776L172.286 43.7831C170.46 44.4553 168.622 45.1384 166.774 45.8326L167.633 48.1213ZM156.744 52.2984C158.572 51.5826 160.392 50.8771 162.204 50.182L161.329 47.8993C159.511 48.5965 157.685 49.3041 155.852 50.0221L156.744 52.2984ZM145.915 56.6329C147.727 55.8917 149.535 55.1603 151.338 54.4389L150.43 52.1691C148.622 52.8928 146.808 53.6265 144.989 54.3701L145.915 56.6329ZM135.154 61.1329C136.951 60.3645 138.746 59.6056 140.538 58.8563L139.595 56.6007C137.797 57.3525 135.996 58.114 134.192 58.885L135.154 61.1329ZM124.468 65.8082C126.249 65.0107 128.03 64.2226 129.811 63.4437L128.831 61.2039C127.044 61.9855 125.257 62.7765 123.469 63.5769L124.468 65.8082ZM113.87 70.6702C115.632 69.8417 117.397 69.0223 119.164 68.2121L118.145 65.9899C116.372 66.8032 114.599 67.6258 112.83 68.4576L113.87 70.6702ZM103.368 75.7321C105.111 74.8704 106.858 74.0177 108.608 73.174L107.547 70.9716C105.789 71.8188 104.035 72.6752 102.284 73.5406L103.368 75.7321ZM92.9763 81.0098C94.6964 80.1122 96.423 79.2236 98.1554 78.344L97.0485 76.1641C95.3083 77.0478 93.5735 77.9405 91.8453 78.8423L92.9763 81.0098ZM82.7087 86.5218C84.4038 85.5851 86.1078 84.6574 87.8196 83.7386L86.6635 81.5845C84.9431 82.5079 83.2303 83.4404 81.5262 84.382L82.7087 86.5218ZM72.585 92.2886C74.252 91.3091 75.9302 90.3386 77.6185 89.3771L76.4086 87.2527C74.7109 88.2195 73.0233 89.1955 71.3464 90.1808L72.585 92.2886ZM62.6293 98.3337C64.2641 97.3072 65.9124 96.2898 67.5732 95.2816L66.3045 93.1917C64.6335 94.2062 62.9747 95.23 61.3292 96.2633L62.6293 98.3337ZM52.872 104.684C54.4689 103.606 56.082 102.537 57.7104 101.478L56.377 99.4285C54.7374 100.495 53.1127 101.572 51.504 102.658L52.872 104.684ZM43.3509 111.371C44.9027 110.236 46.4738 109.111 48.0629 107.995L46.6581 105.994C45.0564 107.118 43.4725 108.253 41.9077 109.397L43.3509 111.371ZM34.114 118.429C35.6114 117.232 37.1313 116.044 38.6728 114.867L37.1887 112.924C35.6334 114.112 34.0992 115.31 32.5873 116.519L34.114 118.429ZM25.2111 125.908C26.6458 124.639 28.1072 123.38 29.5939 122.132L28.0217 120.26C26.5195 121.521 25.0422 122.793 23.5913 124.077L25.2111 125.908ZM16.7266 133.85C18.0856 132.5 19.476 131.16 20.8961 129.832L19.2259 128.046C17.7885 129.391 16.3805 130.747 15.0035 132.115L16.7266 133.85ZM10.7184 140.117C11.3604 139.412 12.0111 138.71 12.6703 138.011L10.8916 136.334C10.223 137.043 9.56268 137.755 8.91113 138.47C8.26544 139.179 7.62274 139.894 6.98309 140.616L8.81244 142.237C9.44482 141.524 10.0801 140.817 10.7184 140.117ZM1.40613 151.045C2.60968 149.538 3.82599 148.053 5.05457 146.591L3.18304 145.018C1.9411 146.496 0.711731 147.997 -0.504395 149.52L1.40613 151.045ZM-5.55975 160.213C-4.42902 158.651 -3.28479 157.107 -2.12769 155.583L-4.07452 154.105C-5.24323 155.643 -6.39874 157.202 -7.54053 158.78L-5.55975 160.213ZM-12.1008 169.694C-11.0403 168.083 -9.96588 166.488 -8.87781 164.911L-10.8903 163.522C-11.9885 165.115 -13.073 166.724 -14.1431 168.351L-12.1008 169.694ZM-18.228 179.451C-17.2367 177.796 -16.2305 176.156 -15.21 174.531L-17.2803 173.231C-18.31 174.871 -19.325 176.525 -20.3251 178.194L-18.228 179.451ZM-23.9487 189.451C-23.0258 187.76 -22.0873 186.08 -21.1337 184.413L-23.2559 183.199C-24.2176 184.88 -25.1641 186.574 -26.0947 188.28L-23.9487 189.451ZM-29.264 199.669C-28.4102 197.945 -27.54 196.232 -26.6539 194.528L-28.8228 193.4C-29.7162 195.118 -30.5937 196.846 -31.4547 198.583L-29.264 199.669ZM-34.176 210.089C-33.3914 208.337 -32.5894 206.591 -31.7708 204.855L-33.9822 203.812C-34.8076 205.564 -35.6162 207.323 -36.4074 209.09L-34.176 210.089ZM-38.6779 220.696C-37.9632 218.916 -37.2303 217.141 -36.4797 215.373L-38.7302 214.418C-39.4871 216.201 -40.226 217.99 -40.9467 219.786L-38.6779 220.696ZM-42.7572 231.474C-42.1145 229.667 -41.4525 227.864 -40.7716 226.066L-43.058 225.2C-43.7447 227.014 -44.4124 228.832 -45.0605 230.654L-42.7572 231.474ZM-46.3962 242.406C-45.8286 240.575 -45.2403 238.746 -44.6319 236.918L-46.9515 236.146C-47.5652 237.989 -48.1587 239.835 -48.7313 241.683L-46.3962 242.406ZM38.8871 271.802C40.8266 272.227 42.7345 272.682 44.6099 273.167L45.2222 270.8C43.3163 270.307 41.3788 269.845 39.4107 269.414L38.8871 271.802ZM50.1376 274.713C51.9691 275.266 53.7664 275.85 55.5285 276.467L56.3357 274.159C54.5391 273.531 52.7081 272.936 50.8439 272.373L50.1376 274.713ZM27.593 269.71C29.4911 270.001 31.3637 270.317 33.2103 270.658L33.6537 268.254C31.7822 267.908 29.8854 267.589 27.9639 267.294L27.593 269.71ZM-49.5707 253.48C-49.0826 251.626 -48.5723 249.771 -48.0403 247.916L-50.3903 247.242C-50.9272 249.114 -51.4422 250.986 -51.9349 252.858L-49.5707 253.48ZM61.0465 278.549C62.845 279.281 64.6023 280.049 66.3173 280.855L67.3572 278.642C65.6017 277.817 63.8045 277.032 61.9672 276.285L61.0465 278.549ZM15.9053 268.251C17.9021 268.447 19.875 268.666 21.8232 268.909L22.1257 266.483C20.1555 266.237 18.1611 266.016 16.1436 265.818L15.9053 268.251ZM4.51068 267.401C6.44238 267.503 8.35461 267.624 10.2469 267.765L10.4285 265.327C8.51801 265.184 6.58801 265.062 4.63916 264.96L4.51068 267.401ZM71.3549 283.399C73.0886 284.338 74.7732 285.322 76.4073 286.349L77.7089 284.28C76.0286 283.223 74.2984 282.213 72.5198 281.249L71.3549 283.399ZM-7.30243 267.022C-5.29718 267.047 -3.31006 267.091 -1.34174 267.154L-1.26349 264.711C-3.24811 264.647 -5.25104 264.603 -7.27173 264.578L-7.30243 267.022ZM81.1572 289.567C82.6974 290.69 84.1854 291.859 85.62 293.075L87.2007 291.21C85.7197 289.955 84.1849 288.749 82.5979 287.591L81.1572 289.567ZM-18.732 267.074C-16.7966 267.034 -14.8762 267.009 -12.9711 267L-12.9824 264.555C-14.9011 264.564 -16.8349 264.589 -18.7832 264.63L-18.732 267.074ZM-30.5187 267.504C-28.5258 267.402 -26.5468 267.315 -24.5822 267.243L-24.6714 264.8C-26.6483 264.872 -28.6393 264.96 -30.644 265.062L-30.5187 267.504ZM-52.2491 264.681C-51.8464 262.806 -51.4198 260.927 -50.9697 259.047L-53.3474 258.478C-53.8018 260.377 -54.2326 262.273 -54.6393 264.167L-52.2491 264.681ZM89.8672 296.967C91.226 298.315 92.5272 299.712 93.7697 301.162L95.6257 299.57C94.3398 298.07 92.9936 296.625 91.5888 295.231L89.8672 296.967ZM-41.9792 268.245C-40.0547 268.096 -38.1418 267.96 -36.2407 267.836L-36.3987 265.397C-38.3102 265.521 -40.2335 265.658 -42.168 265.807L-41.9792 268.245ZM-53.6611 269.292C-51.6921 269.092 -49.7339 268.905 -47.7868 268.731L-48.0052 266.296C-49.9619 266.471 -51.9296 266.659 -53.9077 266.86L-53.6611 269.292ZM97.301 305.639C98.4078 307.168 99.4565 308.747 100.446 310.379L102.536 309.112C101.513 307.423 100.427 305.788 99.2811 304.205L97.301 305.639ZM-65.1712 270.583C-63.2635 270.349 -61.3647 270.126 -59.4753 269.914L-59.7483 267.484C-61.6461 267.698 -63.5531 267.922 -65.4689 268.157L-65.1712 270.583ZM-54.391 275.99C-54.0814 274.098 -53.7458 272.199 -53.3848 270.296L-55.7868 269.84C-56.1516 271.763 -56.4908 273.682 -56.8037 275.596L-54.391 275.99ZM-76.7227 272.114C-74.7804 271.838 -72.8465 271.572 -70.9211 271.317L-71.2423 268.894C-73.1754 269.15 -75.1169 269.416 -77.0665 269.693L-76.7227 272.114ZM103.234 315.433C103.668 316.302 104.087 317.184 104.491 318.08C104.879 318.939 105.244 319.807 105.587 320.682L107.863 319.789C107.505 318.877 107.124 317.972 106.72 317.075C106.303 316.15 105.869 315.238 105.42 314.34L103.234 315.433ZM-88.2846 273.861C-86.3738 273.555 -84.4702 273.259 -82.5741 272.972L-82.9397 270.555C-84.8427 270.843 -86.7531 271.14 -88.6704 271.446L-88.2846 273.861ZM-55.9451 287.389C-55.7385 285.485 -55.5037 283.571 -55.2411 281.65L-57.6634 281.319C-57.929 283.262 -58.1666 285.198 -58.3757 287.126L-55.9451 287.389ZM-99.7064 275.78C-97.7896 275.442 -95.8792 275.114 -93.9754 274.794L-94.3806 272.383C-96.2906 272.704 -98.2073 273.033 -100.13 273.372L-99.7064 275.78ZM107.391 326.034C107.906 327.848 108.334 329.685 108.676 331.536L111.08 331.092C110.724 329.167 110.279 327.255 109.742 325.366L107.391 326.034ZM-111.281 277.906C-109.34 277.535 -107.405 277.172 -105.476 276.817L-105.917 274.413C-107.853 274.768 -109.794 275.132 -111.74 275.504L-111.281 277.906ZM-122.612 280.151C-120.718 279.762 -118.828 279.381 -116.943 279.008L-117.418 276.61C-119.308 276.984 -121.203 277.366 -123.103 277.756L-122.612 280.151ZM-56.8471 298.85C-56.7554 296.939 -56.6327 295.015 -56.4796 293.081L-58.9167 292.888C-59.0718 294.847 -59.1961 296.796 -59.2891 298.733L-56.8471 298.85ZM109.446 337.137C109.617 339.017 109.704 340.903 109.707 342.788L112.151 342.784C112.148 340.827 112.059 338.868 111.88 336.915L109.446 337.137ZM-134.036 282.567C-132.123 282.15 -130.215 281.74 -128.31 281.337L-128.816 278.945C-130.725 279.349 -132.639 279.76 -134.557 280.178L-134.036 282.567ZM-145.432 285.12C-143.547 284.686 -141.665 284.259 -139.788 283.838L-140.322 281.452C-142.205 281.874 -144.091 282.303 -145.98 282.737L-145.432 285.12ZM-57.0169 310.335C-57.0547 308.424 -57.0585 306.497 -57.0286 304.556L-59.4731 304.518C-59.5034 306.487 -59.4996 308.443 -59.4612 310.383L-57.0169 310.335ZM109.465 348.441C109.301 350.324 109.055 352.197 108.727 354.052L111.135 354.477C111.475 352.551 111.731 350.607 111.901 348.653L109.465 348.441ZM-156.734 287.784C-154.844 287.328 -152.957 286.878 -151.073 286.434L-151.634 284.054C-153.522 284.499 -155.414 284.95 -157.308 285.407L-156.734 287.784ZM-168.111 290.591C-166.209 290.112 -164.31 289.638 -162.414 289.17L-163 286.797C-164.9 287.265 -166.803 287.74 -168.708 288.22L-168.111 290.591ZM-56.3566 321.786C-56.5414 319.89 -56.6887 317.974 -56.799 316.04L-59.2398 316.179C-59.1277 318.145 -58.978 320.094 -58.7898 322.024L-56.3566 321.786ZM107.497 359.574C107.005 361.399 106.432 363.198 105.78 364.961L108.073 365.809C108.751 363.976 109.346 362.107 109.858 360.211L107.497 359.574ZM-179.362 293.483C-177.489 292.992 -175.617 292.507 -173.749 292.026L-174.357 289.658C-176.23 290.14 -178.105 290.627 -179.982 291.118L-179.362 293.483ZM-190.623 296.488C-188.743 295.978 -186.864 295.472 -184.987 294.971L-185.618 292.609C-187.498 293.111 -189.38 293.617 -191.264 294.129L-190.623 296.488ZM-54.7495 333.123C-55.1014 331.26 -55.4118 329.372 -55.6814 327.461L-58.1022 327.803C-57.8275 329.75 -57.511 331.675 -57.1518 333.577L-54.7495 333.123ZM103.576 370.167C102.759 371.87 101.863 373.529 100.89 375.134L102.982 376.401C103.996 374.727 104.929 372.998 105.781 371.224L103.576 370.167ZM-201.896 299.601C-200.019 299.074 -198.143 298.552 -196.269 298.034L-196.919 295.678C-198.797 296.196 -200.676 296.719 -202.556 297.247L-201.896 299.601ZM-213.079 302.787C-211.214 302.247 -209.349 301.712 -207.485 301.181L-208.155 298.83C-210.022 299.362 -211.89 299.898 -213.758 300.438L-213.079 302.787ZM-52.0632 344.227C-52.6039 342.42 -53.0989 340.583 -53.549 338.717L-55.9255 339.291C-55.4655 341.198 -54.9591 343.077 -54.4055 344.927L-52.0632 344.227ZM97.7281 379.805C96.5939 381.308 95.384 382.748 94.1005 384.116L95.8834 385.788C97.228 384.355 98.494 382.849 99.6795 381.278L97.7281 379.805ZM-224.277 306.07C-222.41 305.515 -220.543 304.964 -218.677 304.417L-219.365 302.071C-221.234 302.619 -223.104 303.171 -224.974 303.727L-224.277 306.07ZM-48.1555 354.94C-48.9081 353.217 -49.6107 351.457 -50.2639 349.663L-52.561 350.5C-51.8909 352.34 -51.1696 354.147 -50.396 355.919L-48.1555 354.94ZM-235.448 309.436C-233.591 308.869 -231.734 308.306 -229.877 307.747L-230.582 305.406C-232.442 305.966 -234.302 306.53 -236.162 307.097L-235.448 309.436ZM90.0273 387.999C88.603 389.211 87.1072 390.344 85.5419 391.388L86.8991 393.422C88.5449 392.324 90.1164 391.134 91.6118 389.861L90.0273 387.999ZM-246.584 312.875C-244.729 312.295 -242.873 311.718 -241.017 311.145L-241.739 308.809C-243.597 309.383 -245.456 309.961 -247.313 310.541L-246.584 312.875ZM-42.8951 365.053C-43.8825 363.444 -44.8151 361.793 -45.6937 360.102L-47.8632 361.229C-46.9584 362.971 -45.9974 364.672 -44.9788 366.332L-42.8951 365.053ZM80.693 394.223C79.0396 395.061 77.3216 395.808 75.5407 396.457L76.3774 398.754C78.2508 398.072 80.0584 397.285 81.7983 396.403L80.693 394.223ZM-257.701 316.389C-255.85 315.798 -253.998 315.209 -252.145 314.623L-252.882 312.292C-254.738 312.878 -256.592 313.468 -258.446 314.061L-257.701 316.389ZM-36.2365 374.261C-37.4625 372.816 -38.6302 371.325 -39.7407 369.787L-41.7224 371.219C-40.5752 372.807 -39.3682 374.349 -38.1003 375.843L-36.2365 374.261ZM70.153 398.066C69.2468 398.28 68.3264 398.469 67.3922 398.634C66.4059 398.808 65.4265 398.974 64.4537 399.134L64.8485 401.546C65.8312 401.386 66.8207 401.217 67.8167 401.042C68.7968 400.869 69.7628 400.67 70.7145 400.445L70.153 398.066ZM-268.809 319.978C-266.96 319.375 -265.109 318.773 -263.257 318.175L-264.009 315.849C-265.863 316.448 -267.716 317.05 -269.568 317.654L-268.809 319.978ZM58.698 400.001C56.8062 400.261 54.9412 400.493 53.1026 400.696L53.3709 403.126C55.2316 402.92 57.1182 402.686 59.0311 402.423L58.698 400.001ZM-28.2198 382.297C-29.6681 381.063 -31.0568 379.778 -32.3871 378.444L-34.118 380.17C-32.7414 381.55 -31.3043 382.88 -29.8055 384.158L-28.2198 382.297ZM-279.881 323.631C-278.039 323.017 -276.196 322.406 -274.35 321.797L-275.116 319.475C-276.964 320.085 -278.81 320.697 -280.654 321.311L-279.881 323.631ZM47.3068 401.249C45.3637 401.405 43.4519 401.528 41.571 401.619L41.6888 404.061C43.5963 403.969 45.5341 403.844 47.5024 403.686L47.3068 401.249ZM-19.0007 388.956C-20.645 387.955 -22.2303 386.902 -23.7576 385.799L-25.189 387.781C-23.6093 388.922 -21.9703 390.01 -20.2714 391.044L-19.0007 388.956ZM35.9158 401.796C33.9365 401.824 31.9934 401.814 30.0863 401.768L30.0268 404.212C31.9659 404.259 33.9402 404.269 35.95 404.241L35.9158 401.796ZM-290.918 327.342C-289.081 326.719 -287.241 326.097 -285.399 325.478L-286.178 323.16C-288.023 323.781 -289.864 324.403 -291.703 325.027L-290.918 327.342ZM-8.85779 394.128C-10.6503 393.372 -12.3867 392.564 -14.0679 391.707L-15.1785 393.885C-13.444 394.769 -11.6542 395.602 -9.80811 396.381L-8.85779 394.128ZM24.4721 401.519C22.4968 401.391 20.5626 401.222 18.6688 401.012L18.3998 403.442C20.3314 403.656 22.3027 403.829 24.3141 403.959L24.4721 401.519ZM13.0643 400.256C11.1286 399.947 9.23853 399.593 7.39362 399.195L6.87848 401.585C8.76721 401.992 10.7003 402.354 12.6783 402.671L13.0643 400.256ZM1.89789 397.847C0.0169067 397.327 -1.81299 396.759 -3.59271 396.144L-4.39124 398.454C-2.56189 399.086 -0.682861 399.67 1.24664 400.203L1.89789 397.847ZM-301.982 331.133C-300.144 330.497 -298.302 329.864 -296.458 329.232L-297.251 326.919C-299.097 327.552 -300.94 328.186 -302.781 328.822L-301.982 331.133ZM-312.975 334.965C-311.149 334.323 -309.32 333.683 -307.488 333.044L-308.293 330.736C-310.127 331.375 -311.958 332.016 -313.786 332.659L-312.975 334.965ZM-323.973 338.863C-322.133 338.205 -320.288 337.549 -318.441 336.894L-319.257 334.59C-321.107 335.246 -322.953 335.902 -324.795 336.561L-323.973 338.863ZM-334.971 342.824C-333.147 342.162 -331.318 341.5 -329.485 340.84L-330.313 338.54C-332.148 339.201 -333.979 339.863 -335.805 340.525L-334.971 342.824ZM-345.861 346.805C-344.056 346.14 -342.246 345.476 -340.431 344.812L-341.27 342.516C-343.087 343.18 -344.899 343.845 -346.706 344.51L-345.861 346.805ZM-356.865 350.886C-355.036 350.203 -353.201 349.52 -351.36 348.837L-352.21 346.545C-354.053 347.228 -355.889 347.912 -357.72 348.596L-356.865 350.886ZM-367.768 354.987C-365.963 354.304 -364.152 353.62 -362.335 352.936L-363.195 350.648C-365.014 351.332 -366.827 352.017 -368.634 352.701L-367.768 354.987ZM-378.634 359.129C-376.817 358.432 -374.994 357.735 -373.164 357.037L-374.035 354.753C-375.867 355.451 -377.692 356.149 -379.51 356.847L-378.634 359.129ZM-389.583 363.357C-387.773 362.654 -385.956 361.95 -384.131 361.245L-385.012 358.965C-386.838 359.67 -388.657 360.375 -390.468 361.079L-389.583 363.357ZM-400.342 367.564C-398.566 366.866 -396.78 366.165 -394.987 365.464L-395.877 363.187C-397.672 363.889 -399.459 364.59 -401.237 365.289L-400.342 367.564ZM-411.293 371.899C-409.475 371.175 -407.647 370.449 -405.809 369.722L-406.709 367.448C-408.548 368.176 -410.378 368.903 -412.198 369.627L-411.293 371.899ZM-422.081 376.219C-420.304 375.503 -418.516 374.785 -416.718 374.065L-417.627 371.795C-419.427 372.516 -421.216 373.235 -422.995 373.951L-422.081 376.219ZM-432.901 380.602C-431.074 379.858 -429.234 379.11 -427.382 378.36L-428.299 376.094C-430.153 376.845 -431.994 377.593 -433.823 378.338L-432.901 380.602ZM-443.731 385.039C-441.952 384.306 -440.16 383.57 -438.355 382.83L-439.282 380.568C-441.088 381.308 -442.882 382.045 -444.662 382.778L-443.731 385.039ZM-454.424 389.468C-452.64 388.725 -450.841 387.978 -449.027 387.227L-449.963 384.968C-451.778 385.72 -453.579 386.467 -455.364 387.211L-454.424 389.468ZM-465.294 394.019C-463.516 393.27 -461.721 392.516 -459.909 391.758L-460.853 389.503C-462.666 390.262 -464.463 391.016 -466.242 391.765L-465.294 394.019ZM-475.9 398.507C-474.144 397.76 -472.37 397.007 -470.576 396.248L-471.529 393.996C-473.324 394.756 -475.1 395.51 -476.857 396.257L-475.9 398.507ZM-486.774 403.157C-485.006 402.397 -483.215 401.629 -481.403 400.854L-482.364 398.606C-484.178 399.382 -485.97 400.15 -487.74 400.911L-486.774 403.157ZM-497.375 407.738C-495.613 406.973 -493.824 406.198 -492.01 405.414L-492.98 403.169C-494.796 403.954 -496.586 404.73 -498.349 405.496L-497.375 407.738ZM-508.147 412.443C-506.412 411.681 -504.647 410.908 -502.851 410.124L-503.83 407.883C-505.627 408.668 -507.394 409.442 -509.13 410.204L-508.147 412.443ZM-518.856 417.171C-517.039 416.364 -515.178 415.541 -513.277 414.702L-514.264 412.465C-516.167 413.305 -518.029 414.129 -519.848 414.937L-518.856 417.171ZM-529.247 421.809C-527.603 421.071 -525.914 420.315 -524.182 419.542L-525.179 417.309C-526.912 418.083 -528.603 418.84 -530.248 419.578L-529.247 421.809ZM-540.095 426.706C-538.414 425.943 -536.668 425.151 -534.857 424.334L-535.863 422.106C-537.676 422.924 -539.424 423.716 -541.106 424.48L-540.095 426.706ZM-550.774 431.588C-549.085 430.81 -547.287 429.986 -545.385 429.116L-546.401 426.893C-548.306 427.763 -550.105 428.589 -551.796 429.367L-550.774 431.588ZM-561.226 436.435C-559.698 435.72 -557.954 434.908 -556.004 434.004L-557.032 431.786C-558.985 432.691 -560.731 433.505 -562.261 434.22L-561.226 436.435ZM-569.471 438.974L-568.943 440.076L-568.943 440.076L-568.942 440.075L-568.94 440.075L-568.933 440.071L-568.905 440.058L-568.792 440.003C-568.691 439.955 -568.54 439.883 -568.34 439.788C-567.939 439.597 -567.341 439.313 -566.553 438.94L-567.599 436.73C-568.389 437.104 -568.989 437.389 -569.391 437.581C-569.593 437.677 -569.745 437.749 -569.846 437.798L-569.961 437.853L-569.99 437.867L-569.997 437.87L-569.999 437.871L-570 437.871L-570 437.871L-569.471 438.974Z" fill="url(#paint0_linear_164_578)"/>
<defs>
<linearGradient id="paint0_linear_164_578" x1="-138.213" y1="273.199" x2="-142.044" y2="-288.115" gradientUnits="userSpaceOnUse">
<stop stop-color="#1E695A"/>
<stop offset="1" stop-color="#7EFF9B"/>
</linearGradient>
</defs>
</svg>
