<svg width="465" height="123" viewBox="0 0 465 123" fill="none" xmlns="http://www.w3.org/2000/svg">
<path fill-rule="evenodd" clip-rule="evenodd" d="M49.0711 0.181241L0.0220141 2.40543L30.8442 22.5901L37.8436 13.9848L4.22575 3.35072L41.9735 8.90732L49.0711 0.181241ZM45.2084 22.5067L39.0217 15.5931L36.9165 18.2998L45.2084 22.5067ZM55.9664 16.7005C55.0702 16.4948 54.385 16.3406 53.9244 16.238C53.6941 16.1866 53.5199 16.1482 53.4037 16.1226L53.2729 16.094L53.2404 16.0869L53.2325 16.0852L53.2302 16.0847L53.489 14.89L53.7481 13.6954L53.7488 13.6955L53.751 13.696L53.7598 13.698L53.794 13.7054L53.9284 13.7348C54.0469 13.7609 54.2235 13.7999 54.4562 13.8517C54.9216 13.9555 55.6119 14.1108 56.5132 14.3177L55.9664 16.7005ZM67.3134 19.4264C65.2335 18.9082 63.3588 18.4501 61.7063 18.0523L62.2784 15.6754C63.9371 16.0747 65.8182 16.5343 67.9045 17.0541L67.3134 19.4264ZM78.6304 22.3303C76.6433 21.8063 74.7536 21.3151 72.9684 20.8569L73.5762 18.4889C75.3665 18.9484 77.2614 19.4409 79.2538 19.9664L78.6304 22.3303ZM89.9223 25.3842C87.9887 24.8484 86.115 24.3358 84.3053 23.8463L84.9436 21.4863C86.7581 21.9771 88.6366 22.4911 90.5751 23.0281L89.9223 25.3842ZM101.131 28.5617C99.2123 28.0055 97.336 27.4679 95.5048 26.9487L96.1716 24.5966C98.0074 25.1171 99.8884 25.6561 101.811 26.2136L101.131 28.5617ZM112.31 31.8748C110.43 31.3056 108.581 30.7518 106.764 30.2134L107.459 27.8694C109.28 28.4092 111.134 28.9644 113.018 29.5349L112.31 31.8748ZM123.476 35.3294C121.599 34.7363 119.746 34.157 117.917 33.5912L118.64 31.2557C120.473 31.8228 122.331 32.4037 124.212 32.9982L123.476 35.3294ZM134.601 38.9202C132.725 38.3019 130.867 37.6961 129.029 37.1028L129.78 34.7761C131.623 35.371 133.485 35.9784 135.366 36.5984L134.601 38.9202ZM145.673 42.6482C143.804 42.0057 141.95 41.3747 140.11 40.7554L140.89 38.4384C142.734 39.0594 144.594 39.692 146.468 40.3363L145.673 42.6482ZM156.674 46.5126C154.821 45.8477 152.978 45.1937 151.147 44.5505L151.957 42.2439C153.794 42.8888 155.642 43.5447 157.5 44.2114L156.674 46.5126ZM167.624 50.5279C165.786 49.8392 163.955 49.1608 162.133 48.4926L162.974 46.1972C164.802 46.8673 166.638 47.5478 168.482 48.2386L167.624 50.5279ZM178.516 54.7014C176.693 53.9871 174.874 53.2826 173.061 52.588L173.935 50.305C175.754 51.0018 177.579 51.7085 179.408 52.4251L178.516 54.7014ZM189.343 59.0414C187.535 58.2997 185.729 57.5676 183.925 56.8449L184.835 54.5756C186.644 55.3006 188.456 56.0353 190.271 56.7795L189.343 59.0414ZM200.096 63.5578C198.304 62.7869 196.511 62.0252 194.72 61.2728L195.666 59.0187C197.464 59.7738 199.263 60.5382 201.062 61.312L200.096 63.5578ZM210.766 68.2622C208.991 67.4599 207.214 66.6668 205.436 65.8829L206.422 63.6458C208.207 64.4328 209.991 65.229 211.773 66.0345L210.766 68.2622ZM221.341 73.168C219.586 72.3322 217.827 71.5055 216.064 70.6878L217.092 68.47C218.863 69.291 220.63 70.1212 222.392 70.9606L221.341 73.168ZM231.81 78.2911C230.077 77.4191 228.337 76.5562 226.592 75.7023L227.667 73.5063C229.42 74.364 231.167 75.231 232.909 76.1071L231.81 78.2911ZM242.158 83.6503C240.449 82.7389 238.732 81.8365 237.007 80.9432L238.131 78.7722C239.865 79.6699 241.591 80.5769 243.309 81.4932L242.158 83.6503ZM252.366 89.2665C250.685 88.3118 248.993 87.3662 247.29 86.4299L248.469 84.2878C250.18 85.2293 251.882 86.1802 253.574 87.1405L252.366 89.2665ZM262.41 95.1634C260.761 94.1612 259.097 93.1683 257.422 92.1848L258.659 90.0764C260.345 91.066 262.019 92.0652 263.68 93.0739L262.41 95.1634ZM272.261 101.369C270.648 100.314 269.019 99.2693 267.375 98.2341L268.678 96.1653C270.334 97.2078 271.974 98.2601 273.599 99.3223L272.261 101.369ZM281.88 107.913C280.312 106.802 278.724 105.7 277.118 104.608L278.494 102.586C280.112 103.687 281.712 104.798 283.294 105.919L281.88 107.913ZM291.22 114.834C289.706 113.659 288.168 112.494 286.609 111.34L288.065 109.375C289.637 110.54 291.189 111.715 292.719 112.902L291.22 114.834ZM300.233 122.18C298.78 120.932 297.3 119.695 295.795 118.469L297.339 116.574C298.86 117.813 300.356 119.063 301.826 120.325L300.233 122.18ZM308.835 129.995C307.456 128.665 306.046 127.347 304.606 126.039L306.249 124.229C307.707 125.553 309.135 126.888 310.532 128.235L308.835 129.995ZM314.935 136.172C314.283 135.477 313.622 134.785 312.952 134.096L314.706 132.392C315.385 133.092 316.055 133.794 316.718 134.499C317.374 135.198 318.027 135.904 318.677 136.616L316.872 138.265C316.229 137.561 315.583 136.863 314.935 136.172ZM324.408 146.962C323.182 145.472 321.944 144.006 320.694 142.562L322.542 140.962C323.806 142.421 325.057 143.903 326.296 145.408L324.408 146.962ZM331.509 156.026C330.355 154.48 329.188 152.953 328.009 151.447L329.933 149.94C331.125 151.461 332.303 153.002 333.468 154.564L331.509 156.026ZM338.19 165.409C337.106 163.813 336.008 162.234 334.896 160.673L336.888 159.255C338.01 160.831 339.118 162.425 340.212 164.035L338.19 165.409ZM344.461 175.073C343.445 173.434 342.415 171.809 341.37 170.199L343.421 168.868C344.475 170.492 345.515 172.132 346.539 173.785L344.461 175.073ZM350.329 184.988C349.381 183.31 348.418 181.644 347.44 179.992L349.544 178.747C350.53 180.413 351.502 182.093 352.458 183.785L350.329 184.988ZM355.795 195.125C354.916 193.415 354.021 191.714 353.11 190.024L355.261 188.864C356.18 190.568 357.083 192.283 357.97 194.007L355.795 195.125ZM360.861 205.472C360.051 203.731 359.223 201.998 358.379 200.274L360.575 199.199C361.426 200.937 362.26 202.685 363.078 204.44L360.861 205.472ZM365.52 216.011C364.779 214.242 364.02 212.478 363.243 210.721L365.479 209.732C366.262 211.504 367.028 213.283 367.775 215.067L365.52 216.011ZM369.759 226.727C369.089 224.93 368.401 223.137 367.693 221.349L369.966 220.449C370.68 222.253 371.374 224.061 372.049 225.873L369.759 226.727ZM373.559 237.605C372.964 235.782 372.349 233.961 371.714 232.143L374.022 231.336C374.663 233.17 375.283 235.007 375.883 236.846L373.559 237.605ZM376.897 248.63C376.382 246.783 375.844 244.936 375.285 243.089L377.625 242.381C378.189 244.244 378.732 246.109 379.252 247.973L376.897 248.63ZM278.407 272.887C276.521 273.318 274.672 273.791 272.858 274.307L272.189 271.956C274.045 271.427 275.937 270.944 277.863 270.504L278.407 272.887ZM267.35 276.048C265.491 276.698 263.675 277.397 261.903 278.147L260.95 275.896C262.771 275.125 264.637 274.406 266.544 273.74L267.35 276.048ZM289.909 270.842C287.964 271.097 286.051 271.391 284.169 271.723L283.744 269.316C285.662 268.977 287.611 268.678 289.59 268.418L289.909 270.842ZM301.455 269.789C299.476 269.895 297.524 270.036 295.599 270.211L295.377 267.776C297.333 267.598 299.316 267.456 301.325 267.348L301.455 269.789ZM256.724 280.552C254.992 281.432 253.308 282.366 251.674 283.356L250.407 281.265C252.095 280.242 253.832 279.278 255.618 278.372L256.724 280.552ZM313.055 269.555C311.134 269.533 309.236 269.54 307.359 269.576L307.312 267.132C309.214 267.096 311.138 267.089 313.082 267.11L313.055 269.555ZM246.856 286.541C245.303 287.661 243.802 288.839 242.354 290.077L240.765 288.219C242.265 286.936 243.819 285.716 245.427 284.558L246.856 286.541ZM324.827 270.023C322.824 269.889 320.841 269.783 318.879 269.705L318.976 267.262C320.961 267.341 322.966 267.448 324.99 267.584L324.827 270.023ZM379.742 259.79C379.311 257.921 378.857 256.049 378.379 254.175L380.748 253.571C381.23 255.463 381.689 257.353 382.124 259.241L379.742 259.79ZM238.158 293.985C236.814 295.349 235.526 296.774 234.294 298.261L232.411 296.702C233.688 295.16 235.024 293.683 236.417 292.269L238.158 293.985ZM336.309 271.067C334.383 270.848 332.473 270.651 330.579 270.479L330.801 268.044C332.713 268.218 334.642 268.417 336.586 268.638L336.309 271.067ZM348.057 272.659C346.068 272.348 344.095 272.06 342.137 271.795L342.465 269.372C344.44 269.64 346.43 269.931 348.434 270.244L348.057 272.659ZM230.815 302.846C229.746 304.386 228.73 305.984 227.768 307.642L225.654 306.415C226.648 304.701 227.7 303.047 228.807 301.452L230.815 302.846ZM359.392 274.642C357.483 274.273 355.586 273.924 353.702 273.595L354.124 271.187C356.022 271.519 357.933 271.87 359.855 272.241L359.392 274.642ZM382.051 271.066C381.713 269.178 381.35 267.285 380.96 265.387L383.355 264.896C383.749 266.814 384.116 268.727 384.457 270.636L382.051 271.066ZM370.988 277.077C369.032 276.634 367.088 276.209 365.155 275.803L365.657 273.41C367.603 273.819 369.56 274.246 371.528 274.693L370.988 277.077ZM225.047 312.794C224.62 313.682 224.208 314.587 223.81 315.506C223.435 316.371 223.083 317.244 222.753 318.124L220.464 317.265C220.808 316.347 221.176 315.437 221.567 314.534C221.977 313.587 222.402 312.654 222.842 311.737L225.047 312.794ZM382.205 279.79C380.325 279.307 378.454 278.841 376.593 278.39L377.168 276.014C379.04 276.467 380.922 276.937 382.813 277.422L382.205 279.79ZM383.774 282.441C383.539 280.539 383.276 278.63 382.985 276.713L385.402 276.346C385.696 278.285 385.962 280.217 386.2 282.141L383.774 282.441ZM221.029 323.502C220.54 325.324 220.14 327.167 219.825 329.023L217.415 328.614C217.742 326.684 218.159 324.766 218.667 322.869L221.029 323.502ZM393.594 282.874C391.679 282.329 389.772 281.799 387.873 281.285L388.512 278.925C390.421 279.442 392.338 279.975 394.264 280.523L393.594 282.874ZM404.728 286.188C402.881 285.615 401.04 285.055 399.207 284.509L399.905 282.166C401.747 282.715 403.597 283.277 405.453 283.853L404.728 286.188ZM384.845 293.887C384.725 291.977 384.574 290.056 384.392 288.124L386.827 287.895C387.011 289.851 387.164 291.798 387.285 293.734L384.845 293.887ZM219.138 334.635C218.995 336.517 218.936 338.404 218.961 340.288L216.517 340.321C216.491 338.364 216.551 336.404 216.701 334.448L219.138 334.635ZM415.894 289.787C414.02 289.161 412.153 288.548 410.291 287.948L411.042 285.621C412.911 286.224 414.787 286.84 416.669 287.469L415.894 289.787ZM426.966 293.614C425.15 292.966 423.34 292.33 421.535 291.706L422.334 289.395C424.147 290.022 425.964 290.661 427.787 291.311L426.966 293.614ZM385.185 305.368C385.195 303.456 385.17 301.53 385.112 299.59L387.555 299.516C387.615 301.484 387.64 303.439 387.63 305.38L385.185 305.368ZM219.287 345.937C219.478 347.818 219.753 349.687 220.108 351.536L217.707 351.997C217.338 350.077 217.053 348.137 216.854 346.185L219.287 345.937ZM437.913 297.637C436.079 296.944 434.249 296.262 432.425 295.591L433.268 293.296C435.1 293.969 436.936 294.654 438.777 295.35L437.913 297.637ZM384.695 316.828C384.852 314.929 384.97 313.012 385.052 311.076L387.495 311.179C387.412 313.146 387.291 315.097 387.131 317.029L384.695 316.828ZM448.924 301.911C447.089 301.18 445.257 300.46 443.429 299.75L444.314 297.471C446.148 298.183 447.987 298.906 449.829 299.64L448.924 301.911ZM221.419 357.04C221.938 358.858 222.538 360.648 223.216 362.401L220.936 363.283C220.231 361.46 219.608 359.6 219.068 357.712L221.419 357.04ZM459.669 306.294C457.871 305.543 456.077 304.803 454.286 304.072L455.209 301.809C457.006 302.542 458.807 303.285 460.611 304.037L459.669 306.294ZM383.256 328.187C383.58 326.319 383.863 324.427 384.104 322.512L386.53 322.818C386.284 324.769 385.996 326.699 385.665 328.606L383.256 328.187ZM225.497 367.573C226.339 369.265 227.26 370.91 228.256 372.501L226.184 373.798C225.145 372.139 224.186 370.424 223.308 368.664L225.497 367.573ZM470.492 310.911C468.682 310.123 466.875 309.343 465.071 308.574L466.031 306.325C467.841 307.097 469.653 307.879 471.469 308.67L470.492 310.911ZM380.735 339.33C381.248 337.515 381.716 335.671 382.139 333.799L384.523 334.337C384.092 336.25 383.613 338.137 383.087 339.996L380.735 339.33ZM481.169 315.661C479.404 314.86 477.641 314.068 475.881 313.285L476.875 311.051C478.64 311.837 480.409 312.631 482.179 313.434L481.169 315.661ZM231.487 377.124C232.643 378.61 233.874 380.031 235.178 381.38L233.42 383.079C232.054 381.666 230.766 380.179 229.558 378.626L231.487 377.124ZM491.782 320.567C490.01 319.732 488.239 318.906 486.47 318.088L487.496 315.869C489.27 316.69 491.046 317.518 492.824 318.355L491.782 320.567ZM376.986 350.1C377.713 348.365 378.389 346.596 379.016 344.792L381.325 345.595C380.683 347.445 379.988 349.262 379.241 351.045L376.986 350.1ZM239.308 385.203C240.751 386.394 242.263 387.504 243.843 388.526L242.517 390.579C240.855 389.505 239.266 388.338 237.752 387.088L239.308 385.203ZM502.41 325.661C500.64 324.798 498.872 323.943 497.105 323.096L498.161 320.891C499.933 321.741 501.707 322.598 503.481 323.464L502.41 325.661ZM371.876 360.29C372.84 358.666 373.748 357.002 374.601 355.297L376.787 356.392C375.908 358.147 374.972 359.863 373.979 361.538L371.876 360.29ZM248.734 391.288C250.4 392.101 252.128 392.823 253.919 393.445L253.116 395.754C251.233 395.1 249.414 394.34 247.661 393.484L248.734 391.288ZM512.84 330.833C511.1 329.956 509.36 329.086 507.622 328.224L508.708 326.034C510.451 326.898 512.195 327.77 513.94 328.649L512.84 330.833ZM365.355 369.595C366.559 368.133 367.705 366.624 368.792 365.07L370.795 366.472C369.671 368.077 368.487 369.637 367.242 371.149L365.355 369.595ZM259.33 394.974C260.239 395.174 261.162 395.35 262.099 395.501C263.087 395.661 264.069 395.813 265.044 395.957L264.685 398.376C263.7 398.229 262.708 398.076 261.71 397.915C260.727 397.757 259.759 397.572 258.804 397.362L259.33 394.974ZM270.812 396.739C272.708 396.971 274.576 397.175 276.417 397.351L276.185 399.785C274.321 399.607 272.432 399.401 270.515 399.166L270.812 396.739ZM523.287 336.182C521.545 335.276 519.803 334.377 518.062 333.486L519.176 331.309C520.922 332.203 522.668 333.105 524.415 334.013L523.287 336.182ZM357.458 377.749C358.888 376.493 360.257 375.188 361.568 373.835L363.324 375.535C361.968 376.936 360.551 378.287 359.071 379.586L357.458 377.749ZM282.221 397.819C284.166 397.946 286.079 398.04 287.961 398.103L287.88 400.547C285.971 400.483 284.032 400.387 282.061 400.258L282.221 397.819ZM348.338 384.544C349.968 383.519 351.537 382.443 353.048 381.317L354.509 383.278C352.946 384.442 351.324 385.554 349.64 386.613L348.338 384.544ZM293.618 398.197C295.598 398.195 297.541 398.156 299.447 398.082L299.543 400.525C297.604 400.6 295.63 400.64 293.62 400.641L293.618 398.197ZM533.651 341.654C531.939 340.736 530.227 339.825 528.514 338.921L529.656 336.759C531.372 337.666 533.089 338.579 534.806 339.499L533.651 341.654ZM338.273 389.866C340.055 389.083 341.779 388.25 343.447 387.368L344.59 389.529C342.869 390.439 341.091 391.298 339.257 392.104L338.273 389.866ZM305.057 397.75C307.03 397.593 308.961 397.395 310.852 397.157L311.157 399.583C309.229 399.825 307.26 400.027 305.251 400.187L305.057 397.75ZM316.445 396.318C318.376 395.98 320.26 395.598 322.099 395.173L322.649 397.555C320.767 397.99 318.839 398.381 316.866 398.727L316.445 396.318ZM327.574 393.743C329.447 393.196 331.268 392.6 333.039 391.959L333.871 394.258C332.052 394.917 330.181 395.528 328.26 396.09L327.574 393.743ZM543.921 347.237C542.21 346.293 540.499 345.356 538.787 344.426L539.955 342.278C541.671 343.211 543.386 344.15 545.101 345.096L543.921 347.237ZM554.178 352.972C552.47 352.004 550.761 351.042 549.052 350.086L550.245 347.952C551.959 348.91 553.672 349.875 555.384 350.845L554.178 352.972ZM564.314 358.796C562.63 357.816 560.945 356.841 559.259 355.872L560.477 353.752C562.167 354.724 563.857 355.701 565.545 356.684L564.314 358.796ZM574.401 364.747C572.723 363.745 571.043 362.747 569.362 361.755L570.605 359.65C572.29 360.644 573.973 361.644 575.656 362.649L574.401 364.747ZM584.439 370.824C582.771 369.802 581.102 368.784 579.43 367.772L580.696 365.681C582.372 366.695 584.045 367.715 585.717 368.74L584.439 370.824ZM594.38 376.996C592.728 375.958 591.073 374.924 589.416 373.895L590.706 371.818C592.367 372.849 594.025 373.885 595.681 374.927L594.38 376.996ZM604.263 383.286C602.621 382.228 600.977 381.175 599.33 380.127L600.642 378.064C602.293 379.115 603.942 380.171 605.587 381.231L604.263 383.286ZM614.08 389.689C612.45 388.613 610.816 387.541 609.18 386.474L610.515 384.426C612.156 385.496 613.793 386.57 615.427 387.649L614.08 389.689ZM623.821 396.199C622.205 395.106 620.585 394.016 618.961 392.931L620.319 390.899C621.947 391.986 623.571 393.078 625.191 394.174L623.821 396.199ZM633.477 402.809C631.875 401.699 630.27 400.594 628.661 399.492L630.042 397.475C631.655 398.579 633.264 399.687 634.869 400.8L633.477 402.809ZM643.082 409.545C641.487 408.413 639.888 407.285 638.285 406.161L639.689 404.159C641.296 405.286 642.899 406.417 644.497 407.552L643.082 409.545ZM652.595 416.381C651.019 415.234 649.438 414.092 647.853 412.952L649.279 410.967C650.869 412.109 652.453 413.254 654.033 414.403L652.595 416.381ZM662.003 423.306C660.444 422.144 658.879 420.986 657.309 419.83L658.759 417.861C660.332 419.019 661.901 420.181 663.464 421.346L662.003 423.306ZM671.389 430.388C669.836 429.202 668.277 428.018 666.712 426.838L668.185 424.886C669.753 426.07 671.316 427.256 672.873 428.446L671.389 430.388ZM680.637 437.543C679.108 436.345 677.572 435.15 676.031 433.957L677.527 432.024C679.072 433.219 680.611 434.418 682.145 435.619L680.637 437.543ZM689.81 444.823C688.282 443.595 686.748 442.369 685.206 441.146L686.726 439.231C688.271 440.457 689.81 441.686 691.342 442.917L689.81 444.823ZM698.916 452.24C697.412 450.999 695.902 449.76 694.384 448.524L695.928 446.628C697.45 447.868 698.964 449.11 700.472 450.354L698.916 452.24ZM707.848 459.713C706.375 458.463 704.893 457.215 703.404 455.97L704.973 454.095C706.466 455.344 707.952 456.595 709.429 457.848L707.848 459.713ZM716.776 467.391C715.299 466.102 713.813 464.815 712.319 463.53L713.913 461.677C715.411 462.966 716.902 464.256 718.383 465.549L716.776 467.391ZM725.537 475.145C724.095 473.85 722.643 472.556 721.183 471.263L722.803 469.432C724.268 470.729 725.724 472.027 727.171 473.326L725.537 475.145ZM734.162 483.01C732.73 481.684 731.289 480.36 729.838 479.037L731.485 477.23C732.94 478.557 734.386 479.886 735.823 481.216L734.162 483.01ZM742.738 491.079C741.33 489.732 739.91 488.386 738.481 487.041L740.156 485.26C741.59 486.61 743.014 487.961 744.428 489.312L742.738 491.079ZM751.062 499.173C749.697 497.823 748.32 496.473 746.933 495.124L748.637 493.371C750.029 494.725 751.411 496.08 752.781 497.435L751.062 499.173ZM759.377 507.546C758.007 506.141 756.625 504.736 755.23 503.332L756.965 501.609C758.365 503.019 759.752 504.429 761.128 505.839L759.377 507.546ZM767.445 515.979C766.126 514.574 764.794 513.168 763.449 511.762L765.216 510.072C766.566 511.483 767.903 512.895 769.228 514.307L767.445 515.979ZM775.363 524.594C774.044 523.129 772.711 521.663 771.362 520.197L773.162 518.542C774.516 520.014 775.856 521.487 777.181 522.959L775.363 524.594ZM783.119 533.407C781.857 531.94 780.58 530.472 779.287 529.003L781.122 527.388C782.421 528.863 783.705 530.339 784.973 531.813L783.119 533.407ZM790.58 542.297C789.356 540.801 788.115 539.305 786.858 537.807L788.73 536.235C789.994 537.741 791.241 539.245 792.472 540.748L790.58 542.297ZM797.935 551.531C796.746 549.996 795.539 548.458 794.313 546.919L796.225 545.396C797.458 546.944 798.673 548.49 799.868 550.035L797.935 551.531ZM804.863 560.752C803.743 559.214 802.604 557.674 801.445 556.132L803.4 554.664C804.566 556.215 805.712 557.765 806.839 559.313L804.863 560.752ZM811.681 570.447C810.59 568.837 809.476 567.224 808.339 565.608L810.339 564.202C811.483 565.829 812.605 567.454 813.704 569.075L811.681 570.447ZM817.961 580.084C816.96 578.482 815.934 576.876 814.884 575.266L816.932 573.931C817.99 575.553 819.024 577.173 820.034 578.788L817.961 580.084ZM824.031 590.266C823.075 588.579 822.091 586.887 821.08 585.19L823.18 583.938C824.2 585.65 825.193 587.358 826.158 589.061L824.031 590.266ZM829.474 600.43C828.617 598.73 827.729 597.023 826.812 595.311L828.967 594.156C829.894 595.886 830.791 597.611 831.657 599.33L829.474 600.43ZM834.473 611.09C833.71 609.329 832.912 607.559 832.078 605.783L834.291 604.744C835.135 606.543 835.944 608.334 836.717 610.119L834.473 611.09ZM838.735 621.88C838.083 620.047 837.39 618.204 836.656 616.351L838.929 615.45C839.673 617.329 840.377 619.2 841.038 621.061L838.735 621.88ZM842.189 632.941C841.702 631.12 841.17 629.287 840.594 627.443L842.927 626.714C843.513 628.589 844.055 630.454 844.551 632.308L842.189 632.941ZM844.678 644.348C844.36 642.442 843.989 640.52 843.565 638.585L845.953 638.061C846.386 640.036 846.765 641.998 847.089 643.946L844.678 644.348ZM845.74 652.824C845.663 651.894 845.572 650.96 845.468 650.022L847.898 649.751C848.005 650.712 848.098 651.669 848.177 652.622L845.74 652.824Z" fill="#7EFF9B"/>
<path fill-rule="evenodd" clip-rule="evenodd" d="M49.0711 0.181241L0.0220141 2.40543L30.8442 22.5901L37.8436 13.9848L4.22575 3.35072L41.9735 8.90732L49.0711 0.181241ZM45.2084 22.5067L39.0217 15.5931L36.9165 18.2998L45.2084 22.5067ZM55.9664 16.7005C55.0702 16.4948 54.385 16.3406 53.9244 16.238C53.6941 16.1866 53.5199 16.1482 53.4037 16.1226L53.2729 16.094L53.2404 16.0869L53.2325 16.0852L53.2302 16.0847L53.489 14.89L53.7481 13.6954L53.7488 13.6955L53.751 13.696L53.7598 13.698L53.794 13.7054L53.9284 13.7348C54.0469 13.7609 54.2235 13.7999 54.4562 13.8517C54.9216 13.9555 55.6119 14.1108 56.5132 14.3177L55.9664 16.7005ZM67.3134 19.4264C65.2335 18.9082 63.3588 18.4501 61.7063 18.0523L62.2784 15.6754C63.9371 16.0747 65.8182 16.5343 67.9045 17.0541L67.3134 19.4264ZM78.6304 22.3303C76.6433 21.8063 74.7536 21.3151 72.9684 20.8569L73.5762 18.4889C75.3665 18.9484 77.2614 19.4409 79.2538 19.9664L78.6304 22.3303ZM89.9223 25.3842C87.9887 24.8484 86.115 24.3358 84.3053 23.8463L84.9436 21.4863C86.7581 21.9771 88.6366 22.4911 90.5751 23.0281L89.9223 25.3842ZM101.131 28.5617C99.2123 28.0055 97.336 27.4679 95.5048 26.9487L96.1716 24.5966C98.0074 25.1171 99.8884 25.6561 101.811 26.2136L101.131 28.5617ZM112.31 31.8748C110.43 31.3056 108.581 30.7518 106.764 30.2134L107.459 27.8694C109.28 28.4092 111.134 28.9644 113.018 29.5349L112.31 31.8748ZM123.476 35.3294C121.599 34.7363 119.746 34.157 117.917 33.5912L118.64 31.2557C120.473 31.8228 122.331 32.4037 124.212 32.9982L123.476 35.3294ZM134.601 38.9202C132.725 38.3019 130.867 37.6961 129.029 37.1028L129.78 34.7761C131.623 35.371 133.485 35.9784 135.366 36.5984L134.601 38.9202ZM145.673 42.6482C143.804 42.0057 141.95 41.3747 140.11 40.7554L140.89 38.4384C142.734 39.0594 144.594 39.692 146.468 40.3363L145.673 42.6482ZM156.674 46.5126C154.821 45.8477 152.978 45.1937 151.147 44.5505L151.957 42.2439C153.794 42.8888 155.642 43.5447 157.5 44.2114L156.674 46.5126ZM167.624 50.5279C165.786 49.8392 163.955 49.1608 162.133 48.4926L162.974 46.1972C164.802 46.8673 166.638 47.5478 168.482 48.2386L167.624 50.5279ZM178.516 54.7014C176.693 53.9871 174.874 53.2826 173.061 52.588L173.935 50.305C175.754 51.0018 177.579 51.7085 179.408 52.4251L178.516 54.7014ZM189.343 59.0414C187.535 58.2997 185.729 57.5676 183.925 56.8449L184.835 54.5756C186.644 55.3006 188.456 56.0353 190.271 56.7795L189.343 59.0414ZM200.096 63.5578C198.304 62.7869 196.511 62.0252 194.72 61.2728L195.666 59.0187C197.464 59.7738 199.263 60.5382 201.062 61.312L200.096 63.5578ZM210.766 68.2622C208.991 67.4599 207.214 66.6668 205.436 65.8829L206.422 63.6458C208.207 64.4328 209.991 65.229 211.773 66.0345L210.766 68.2622ZM221.341 73.168C219.586 72.3322 217.827 71.5055 216.064 70.6878L217.092 68.47C218.863 69.291 220.63 70.1212 222.392 70.9606L221.341 73.168ZM231.81 78.2911C230.077 77.4191 228.337 76.5562 226.592 75.7023L227.667 73.5063C229.42 74.364 231.167 75.231 232.909 76.1071L231.81 78.2911ZM242.158 83.6503C240.449 82.7389 238.732 81.8365 237.007 80.9432L238.131 78.7722C239.865 79.6699 241.591 80.5769 243.309 81.4932L242.158 83.6503ZM252.366 89.2665C250.685 88.3118 248.993 87.3662 247.29 86.4299L248.469 84.2878C250.18 85.2293 251.882 86.1802 253.574 87.1405L252.366 89.2665ZM262.41 95.1634C260.761 94.1612 259.097 93.1683 257.422 92.1848L258.659 90.0764C260.345 91.066 262.019 92.0652 263.68 93.0739L262.41 95.1634ZM272.261 101.369C270.648 100.314 269.019 99.2693 267.375 98.2341L268.678 96.1653C270.334 97.2078 271.974 98.2601 273.599 99.3223L272.261 101.369ZM281.88 107.913C280.312 106.802 278.724 105.7 277.118 104.608L278.494 102.586C280.112 103.687 281.712 104.798 283.294 105.919L281.88 107.913ZM291.22 114.834C289.706 113.659 288.168 112.494 286.609 111.34L288.065 109.375C289.637 110.54 291.189 111.715 292.719 112.902L291.22 114.834ZM300.233 122.18C298.78 120.932 297.3 119.695 295.795 118.469L297.339 116.574C298.86 117.813 300.356 119.063 301.826 120.325L300.233 122.18ZM308.835 129.995C307.456 128.665 306.046 127.347 304.606 126.039L306.249 124.229C307.707 125.553 309.135 126.888 310.532 128.235L308.835 129.995ZM314.935 136.172C314.283 135.477 313.622 134.785 312.952 134.096L314.706 132.392C315.385 133.092 316.055 133.794 316.718 134.499C317.374 135.198 318.027 135.904 318.677 136.616L316.872 138.265C316.229 137.561 315.583 136.863 314.935 136.172ZM324.408 146.962C323.182 145.472 321.944 144.006 320.694 142.562L322.542 140.962C323.806 142.421 325.057 143.903 326.296 145.408L324.408 146.962ZM331.509 156.026C330.355 154.48 329.188 152.953 328.009 151.447L329.933 149.94C331.125 151.461 332.303 153.002 333.468 154.564L331.509 156.026ZM338.19 165.409C337.106 163.813 336.008 162.234 334.896 160.673L336.888 159.255C338.01 160.831 339.118 162.425 340.212 164.035L338.19 165.409ZM344.461 175.073C343.445 173.434 342.415 171.809 341.37 170.199L343.421 168.868C344.475 170.492 345.515 172.132 346.539 173.785L344.461 175.073ZM350.329 184.988C349.381 183.31 348.418 181.644 347.44 179.992L349.544 178.747C350.53 180.413 351.502 182.093 352.458 183.785L350.329 184.988ZM355.795 195.125C354.916 193.415 354.021 191.714 353.11 190.024L355.261 188.864C356.18 190.568 357.083 192.283 357.97 194.007L355.795 195.125ZM360.861 205.472C360.051 203.731 359.223 201.998 358.379 200.274L360.575 199.199C361.426 200.937 362.26 202.685 363.078 204.44L360.861 205.472ZM365.52 216.011C364.779 214.242 364.02 212.478 363.243 210.721L365.479 209.732C366.262 211.504 367.028 213.283 367.775 215.067L365.52 216.011ZM369.759 226.727C369.089 224.93 368.401 223.137 367.693 221.349L369.966 220.449C370.68 222.253 371.374 224.061 372.049 225.873L369.759 226.727ZM373.559 237.605C372.964 235.782 372.349 233.961 371.714 232.143L374.022 231.336C374.663 233.17 375.283 235.007 375.883 236.846L373.559 237.605ZM376.897 248.63C376.382 246.783 375.844 244.936 375.285 243.089L377.625 242.381C378.189 244.244 378.732 246.109 379.252 247.973L376.897 248.63ZM278.407 272.887C276.521 273.318 274.672 273.791 272.858 274.307L272.189 271.956C274.045 271.427 275.937 270.944 277.863 270.504L278.407 272.887ZM267.35 276.048C265.491 276.698 263.675 277.397 261.903 278.147L260.95 275.896C262.771 275.125 264.637 274.406 266.544 273.74L267.35 276.048ZM289.909 270.842C287.964 271.097 286.051 271.391 284.169 271.723L283.744 269.316C285.662 268.977 287.611 268.678 289.59 268.418L289.909 270.842ZM301.455 269.789C299.476 269.895 297.524 270.036 295.599 270.211L295.377 267.776C297.333 267.598 299.316 267.456 301.325 267.348L301.455 269.789ZM256.724 280.552C254.992 281.432 253.308 282.366 251.674 283.356L250.407 281.265C252.095 280.242 253.832 279.278 255.618 278.372L256.724 280.552ZM313.055 269.555C311.134 269.533 309.236 269.54 307.359 269.576L307.312 267.132C309.214 267.096 311.138 267.089 313.082 267.11L313.055 269.555ZM246.856 286.541C245.303 287.661 243.802 288.839 242.354 290.077L240.765 288.219C242.265 286.936 243.819 285.716 245.427 284.558L246.856 286.541ZM324.827 270.023C322.824 269.889 320.841 269.783 318.879 269.705L318.976 267.262C320.961 267.341 322.966 267.448 324.99 267.584L324.827 270.023ZM379.742 259.79C379.311 257.921 378.857 256.049 378.379 254.175L380.748 253.571C381.23 255.463 381.689 257.353 382.124 259.241L379.742 259.79ZM238.158 293.985C236.814 295.349 235.526 296.774 234.294 298.261L232.411 296.702C233.688 295.16 235.024 293.683 236.417 292.269L238.158 293.985ZM336.309 271.067C334.383 270.848 332.473 270.651 330.579 270.479L330.801 268.044C332.713 268.218 334.642 268.417 336.586 268.638L336.309 271.067ZM348.057 272.659C346.068 272.348 344.095 272.06 342.137 271.795L342.465 269.372C344.44 269.64 346.43 269.931 348.434 270.244L348.057 272.659ZM230.815 302.846C229.746 304.386 228.73 305.984 227.768 307.642L225.654 306.415C226.648 304.701 227.7 303.047 228.807 301.452L230.815 302.846ZM359.392 274.642C357.483 274.273 355.586 273.924 353.702 273.595L354.124 271.187C356.022 271.519 357.933 271.87 359.855 272.241L359.392 274.642ZM382.051 271.066C381.713 269.178 381.35 267.285 380.96 265.387L383.355 264.896C383.749 266.814 384.116 268.727 384.457 270.636L382.051 271.066ZM370.988 277.077C369.032 276.634 367.088 276.209 365.155 275.803L365.657 273.41C367.603 273.819 369.56 274.246 371.528 274.693L370.988 277.077ZM225.047 312.794C224.62 313.682 224.208 314.587 223.81 315.506C223.435 316.371 223.083 317.244 222.753 318.124L220.464 317.265C220.808 316.347 221.176 315.437 221.567 314.534C221.977 313.587 222.402 312.654 222.842 311.737L225.047 312.794ZM382.205 279.79C380.325 279.307 378.454 278.841 376.593 278.39L377.168 276.014C379.04 276.467 380.922 276.937 382.813 277.422L382.205 279.79ZM383.774 282.441C383.539 280.539 383.276 278.63 382.985 276.713L385.402 276.346C385.696 278.285 385.962 280.217 386.2 282.141L383.774 282.441ZM221.029 323.502C220.54 325.324 220.14 327.167 219.825 329.023L217.415 328.614C217.742 326.684 218.159 324.766 218.667 322.869L221.029 323.502ZM393.594 282.874C391.679 282.329 389.772 281.799 387.873 281.285L388.512 278.925C390.421 279.442 392.338 279.975 394.264 280.523L393.594 282.874ZM404.728 286.188C402.881 285.615 401.04 285.055 399.207 284.509L399.905 282.166C401.747 282.715 403.597 283.277 405.453 283.853L404.728 286.188ZM384.845 293.887C384.725 291.977 384.574 290.056 384.392 288.124L386.827 287.895C387.011 289.851 387.164 291.798 387.285 293.734L384.845 293.887ZM219.138 334.635C218.995 336.517 218.936 338.404 218.961 340.288L216.517 340.321C216.491 338.364 216.551 336.404 216.701 334.448L219.138 334.635ZM415.894 289.787C414.02 289.161 412.153 288.548 410.291 287.948L411.042 285.621C412.911 286.224 414.787 286.84 416.669 287.469L415.894 289.787ZM426.966 293.614C425.15 292.966 423.34 292.33 421.535 291.706L422.334 289.395C424.147 290.022 425.964 290.661 427.787 291.311L426.966 293.614ZM385.185 305.368C385.195 303.456 385.17 301.53 385.112 299.59L387.555 299.516C387.615 301.484 387.64 303.439 387.63 305.38L385.185 305.368ZM219.287 345.937C219.478 347.818 219.753 349.687 220.108 351.536L217.707 351.997C217.338 350.077 217.053 348.137 216.854 346.185L219.287 345.937ZM437.913 297.637C436.079 296.944 434.249 296.262 432.425 295.591L433.268 293.296C435.1 293.969 436.936 294.654 438.777 295.35L437.913 297.637ZM384.695 316.828C384.852 314.929 384.97 313.012 385.052 311.076L387.495 311.179C387.412 313.146 387.291 315.097 387.131 317.029L384.695 316.828ZM448.924 301.911C447.089 301.18 445.257 300.46 443.429 299.75L444.314 297.471C446.148 298.183 447.987 298.906 449.829 299.64L448.924 301.911ZM221.419 357.04C221.938 358.858 222.538 360.648 223.216 362.401L220.936 363.283C220.231 361.46 219.608 359.6 219.068 357.712L221.419 357.04ZM459.669 306.294C457.871 305.543 456.077 304.803 454.286 304.072L455.209 301.809C457.006 302.542 458.807 303.285 460.611 304.037L459.669 306.294ZM383.256 328.187C383.58 326.319 383.863 324.427 384.104 322.512L386.53 322.818C386.284 324.769 385.996 326.699 385.665 328.606L383.256 328.187ZM225.497 367.573C226.339 369.265 227.26 370.91 228.256 372.501L226.184 373.798C225.145 372.139 224.186 370.424 223.308 368.664L225.497 367.573ZM470.492 310.911C468.682 310.123 466.875 309.343 465.071 308.574L466.031 306.325C467.841 307.097 469.653 307.879 471.469 308.67L470.492 310.911ZM380.735 339.33C381.248 337.515 381.716 335.671 382.139 333.799L384.523 334.337C384.092 336.25 383.613 338.137 383.087 339.996L380.735 339.33ZM481.169 315.661C479.404 314.86 477.641 314.068 475.881 313.285L476.875 311.051C478.64 311.837 480.409 312.631 482.179 313.434L481.169 315.661ZM231.487 377.124C232.643 378.61 233.874 380.031 235.178 381.38L233.42 383.079C232.054 381.666 230.766 380.179 229.558 378.626L231.487 377.124ZM491.782 320.567C490.01 319.732 488.239 318.906 486.47 318.088L487.496 315.869C489.27 316.69 491.046 317.518 492.824 318.355L491.782 320.567ZM376.986 350.1C377.713 348.365 378.389 346.596 379.016 344.792L381.325 345.595C380.683 347.445 379.988 349.262 379.241 351.045L376.986 350.1ZM239.308 385.203C240.751 386.394 242.263 387.504 243.843 388.526L242.517 390.579C240.855 389.505 239.266 388.338 237.752 387.088L239.308 385.203ZM502.41 325.661C500.64 324.798 498.872 323.943 497.105 323.096L498.161 320.891C499.933 321.741 501.707 322.598 503.481 323.464L502.41 325.661ZM371.876 360.29C372.84 358.666 373.748 357.002 374.601 355.297L376.787 356.392C375.908 358.147 374.972 359.863 373.979 361.538L371.876 360.29ZM248.734 391.288C250.4 392.101 252.128 392.823 253.919 393.445L253.116 395.754C251.233 395.1 249.414 394.34 247.661 393.484L248.734 391.288ZM512.84 330.833C511.1 329.956 509.36 329.086 507.622 328.224L508.708 326.034C510.451 326.898 512.195 327.77 513.94 328.649L512.84 330.833ZM365.355 369.595C366.559 368.133 367.705 366.624 368.792 365.07L370.795 366.472C369.671 368.077 368.487 369.637 367.242 371.149L365.355 369.595ZM259.33 394.974C260.239 395.174 261.162 395.35 262.099 395.501C263.087 395.661 264.069 395.813 265.044 395.957L264.685 398.376C263.7 398.229 262.708 398.076 261.71 397.915C260.727 397.757 259.759 397.572 258.804 397.362L259.33 394.974ZM270.812 396.739C272.708 396.971 274.576 397.175 276.417 397.351L276.185 399.785C274.321 399.607 272.432 399.401 270.515 399.166L270.812 396.739ZM523.287 336.182C521.545 335.276 519.803 334.377 518.062 333.486L519.176 331.309C520.922 332.203 522.668 333.105 524.415 334.013L523.287 336.182ZM357.458 377.749C358.888 376.493 360.257 375.188 361.568 373.835L363.324 375.535C361.968 376.936 360.551 378.287 359.071 379.586L357.458 377.749ZM282.221 397.819C284.166 397.946 286.079 398.04 287.961 398.103L287.88 400.547C285.971 400.483 284.032 400.387 282.061 400.258L282.221 397.819ZM348.338 384.544C349.968 383.519 351.537 382.443 353.048 381.317L354.509 383.278C352.946 384.442 351.324 385.554 349.64 386.613L348.338 384.544ZM293.618 398.197C295.598 398.195 297.541 398.156 299.447 398.082L299.543 400.525C297.604 400.6 295.63 400.64 293.62 400.641L293.618 398.197ZM533.651 341.654C531.939 340.736 530.227 339.825 528.514 338.921L529.656 336.759C531.372 337.666 533.089 338.579 534.806 339.499L533.651 341.654ZM338.273 389.866C340.055 389.083 341.779 388.25 343.447 387.368L344.59 389.529C342.869 390.439 341.091 391.298 339.257 392.104L338.273 389.866ZM305.057 397.75C307.03 397.593 308.961 397.395 310.852 397.157L311.157 399.583C309.229 399.825 307.26 400.027 305.251 400.187L305.057 397.75ZM316.445 396.318C318.376 395.98 320.26 395.598 322.099 395.173L322.649 397.555C320.767 397.99 318.839 398.381 316.866 398.727L316.445 396.318ZM327.574 393.743C329.447 393.196 331.268 392.6 333.039 391.959L333.871 394.258C332.052 394.917 330.181 395.528 328.26 396.09L327.574 393.743ZM543.921 347.237C542.21 346.293 540.499 345.356 538.787 344.426L539.955 342.278C541.671 343.211 543.386 344.15 545.101 345.096L543.921 347.237ZM554.178 352.972C552.47 352.004 550.761 351.042 549.052 350.086L550.245 347.952C551.959 348.91 553.672 349.875 555.384 350.845L554.178 352.972ZM564.314 358.796C562.63 357.816 560.945 356.841 559.259 355.872L560.477 353.752C562.167 354.724 563.857 355.701 565.545 356.684L564.314 358.796ZM574.401 364.747C572.723 363.745 571.043 362.747 569.362 361.755L570.605 359.65C572.29 360.644 573.973 361.644 575.656 362.649L574.401 364.747ZM584.439 370.824C582.771 369.802 581.102 368.784 579.43 367.772L580.696 365.681C582.372 366.695 584.045 367.715 585.717 368.74L584.439 370.824ZM594.38 376.996C592.728 375.958 591.073 374.924 589.416 373.895L590.706 371.818C592.367 372.849 594.025 373.885 595.681 374.927L594.38 376.996ZM604.263 383.286C602.621 382.228 600.977 381.175 599.33 380.127L600.642 378.064C602.293 379.115 603.942 380.171 605.587 381.231L604.263 383.286ZM614.08 389.689C612.45 388.613 610.816 387.541 609.18 386.474L610.515 384.426C612.156 385.496 613.793 386.57 615.427 387.649L614.08 389.689ZM623.821 396.199C622.205 395.106 620.585 394.016 618.961 392.931L620.319 390.899C621.947 391.986 623.571 393.078 625.191 394.174L623.821 396.199ZM633.477 402.809C631.875 401.699 630.27 400.594 628.661 399.492L630.042 397.475C631.655 398.579 633.264 399.687 634.869 400.8L633.477 402.809ZM643.082 409.545C641.487 408.413 639.888 407.285 638.285 406.161L639.689 404.159C641.296 405.286 642.899 406.417 644.497 407.552L643.082 409.545ZM652.595 416.381C651.019 415.234 649.438 414.092 647.853 412.952L649.279 410.967C650.869 412.109 652.453 413.254 654.033 414.403L652.595 416.381ZM662.003 423.306C660.444 422.144 658.879 420.986 657.309 419.83L658.759 417.861C660.332 419.019 661.901 420.181 663.464 421.346L662.003 423.306ZM671.389 430.388C669.836 429.202 668.277 428.018 666.712 426.838L668.185 424.886C669.753 426.07 671.316 427.256 672.873 428.446L671.389 430.388ZM680.637 437.543C679.108 436.345 677.572 435.15 676.031 433.957L677.527 432.024C679.072 433.219 680.611 434.418 682.145 435.619L680.637 437.543ZM689.81 444.823C688.282 443.595 686.748 442.369 685.206 441.146L686.726 439.231C688.271 440.457 689.81 441.686 691.342 442.917L689.81 444.823ZM698.916 452.24C697.412 450.999 695.902 449.76 694.384 448.524L695.928 446.628C697.45 447.868 698.964 449.11 700.472 450.354L698.916 452.24ZM707.848 459.713C706.375 458.463 704.893 457.215 703.404 455.97L704.973 454.095C706.466 455.344 707.952 456.595 709.429 457.848L707.848 459.713ZM716.776 467.391C715.299 466.102 713.813 464.815 712.319 463.53L713.913 461.677C715.411 462.966 716.902 464.256 718.383 465.549L716.776 467.391ZM725.537 475.145C724.095 473.85 722.643 472.556 721.183 471.263L722.803 469.432C724.268 470.729 725.724 472.027 727.171 473.326L725.537 475.145ZM734.162 483.01C732.73 481.684 731.289 480.36 729.838 479.037L731.485 477.23C732.94 478.557 734.386 479.886 735.823 481.216L734.162 483.01ZM742.738 491.079C741.33 489.732 739.91 488.386 738.481 487.041L740.156 485.26C741.59 486.61 743.014 487.961 744.428 489.312L742.738 491.079ZM751.062 499.173C749.697 497.823 748.32 496.473 746.933 495.124L748.637 493.371C750.029 494.725 751.411 496.08 752.781 497.435L751.062 499.173ZM759.377 507.546C758.007 506.141 756.625 504.736 755.23 503.332L756.965 501.609C758.365 503.019 759.752 504.429 761.128 505.839L759.377 507.546ZM767.445 515.979C766.126 514.574 764.794 513.168 763.449 511.762L765.216 510.072C766.566 511.483 767.903 512.895 769.228 514.307L767.445 515.979ZM775.363 524.594C774.044 523.129 772.711 521.663 771.362 520.197L773.162 518.542C774.516 520.014 775.856 521.487 777.181 522.959L775.363 524.594ZM783.119 533.407C781.857 531.94 780.58 530.472 779.287 529.003L781.122 527.388C782.421 528.863 783.705 530.339 784.973 531.813L783.119 533.407ZM790.58 542.297C789.356 540.801 788.115 539.305 786.858 537.807L788.73 536.235C789.994 537.741 791.241 539.245 792.472 540.748L790.58 542.297ZM797.935 551.531C796.746 549.996 795.539 548.458 794.313 546.919L796.225 545.396C797.458 546.944 798.673 548.49 799.868 550.035L797.935 551.531ZM804.863 560.752C803.743 559.214 802.604 557.674 801.445 556.132L803.4 554.664C804.566 556.215 805.712 557.765 806.839 559.313L804.863 560.752ZM811.681 570.447C810.59 568.837 809.476 567.224 808.339 565.608L810.339 564.202C811.483 565.829 812.605 567.454 813.704 569.075L811.681 570.447ZM817.961 580.084C816.96 578.482 815.934 576.876 814.884 575.266L816.932 573.931C817.99 575.553 819.024 577.173 820.034 578.788L817.961 580.084ZM824.031 590.266C823.075 588.579 822.091 586.887 821.08 585.19L823.18 583.938C824.2 585.65 825.193 587.358 826.158 589.061L824.031 590.266ZM829.474 600.43C828.617 598.73 827.729 597.023 826.812 595.311L828.967 594.156C829.894 595.886 830.791 597.611 831.657 599.33L829.474 600.43ZM834.473 611.09C833.71 609.329 832.912 607.559 832.078 605.783L834.291 604.744C835.135 606.543 835.944 608.334 836.717 610.119L834.473 611.09ZM838.735 621.88C838.083 620.047 837.39 618.204 836.656 616.351L838.929 615.45C839.673 617.329 840.377 619.2 841.038 621.061L838.735 621.88ZM842.189 632.941C841.702 631.12 841.17 629.287 840.594 627.443L842.927 626.714C843.513 628.589 844.055 630.454 844.551 632.308L842.189 632.941ZM844.678 644.348C844.36 642.442 843.989 640.52 843.565 638.585L845.953 638.061C846.386 640.036 846.765 641.998 847.089 643.946L844.678 644.348ZM845.74 652.824C845.663 651.894 845.572 650.96 845.468 650.022L847.898 649.751C848.005 650.712 848.098 651.669 848.177 652.622L845.74 652.824Z" fill="url(#paint0_linear_164_575)"/>
<defs>
<linearGradient id="paint0_linear_164_575" x1="439.367" y1="406.814" x2="436.116" y2="-440.821" gradientUnits="userSpaceOnUse">
<stop stop-color="#1E695A"/>
<stop offset="1" stop-color="#7EFF9B"/>
</linearGradient>
</defs>
</svg>
