<svg width="849" height="654" viewBox="0 0 849 654" fill="none" xmlns="http://www.w3.org/2000/svg">
<path fill-rule="evenodd" clip-rule="evenodd" d="M49.0711 0.698087L0.0220141 2.92228L30.8442 23.1069L37.8436 14.5016L4.22575 3.86756L41.9735 9.42417L49.0711 0.698087ZM45.2084 23.0235L39.0217 16.1099L36.9165 18.8167L45.2084 23.0235ZM55.9664 17.2174C55.0702 17.0117 54.385 16.8575 53.9244 16.7548C53.6941 16.7035 53.5199 16.665 53.4037 16.6395L53.2729 16.6108L53.2404 16.6038L53.2325 16.6021L53.2302 16.6015L53.489 15.4069L53.7481 14.2123L53.7488 14.2124L53.751 14.2129L53.7598 14.2148L53.794 14.2223L53.9284 14.2517C54.0469 14.2777 54.2235 14.3167 54.4562 14.3686C54.9216 14.4723 55.6119 14.6276 56.5132 14.8345L55.9664 17.2174ZM67.3134 19.9432C65.2335 19.425 63.3588 18.967 61.7063 18.5692L62.2784 16.1923C63.9371 16.5915 65.8182 17.0511 67.9045 17.5709L67.3134 19.9432ZM78.6304 22.8472C76.6433 22.3231 74.7536 21.832 72.9684 21.3737L73.5762 19.0057C75.3665 19.4652 77.2614 19.9578 79.2538 20.4832L78.6304 22.8472ZM89.9223 25.901C87.9887 25.3653 86.115 24.8527 84.3053 24.3631L84.9436 22.0031C86.7581 22.494 88.6366 23.0079 90.5751 23.545L89.9223 25.901ZM101.131 29.0786C99.2123 28.5224 97.336 27.9847 95.5048 27.4656L96.1716 25.1135C98.0074 25.6339 99.8884 26.1729 101.811 26.7305L101.131 29.0786ZM112.31 32.3916C110.43 31.8225 108.581 31.2687 106.764 30.7302L107.459 28.3862C109.28 28.926 111.134 29.4812 113.018 30.0518L112.31 32.3916ZM123.476 35.8462C121.599 35.2532 119.746 34.6738 117.917 34.1081L118.64 31.7725C120.473 32.3397 122.331 32.9205 124.212 33.515L123.476 35.8462ZM134.601 39.4371C132.725 38.8188 130.867 38.213 129.029 37.6196L129.78 35.293C131.623 35.8879 133.485 36.4953 135.366 37.1152L134.601 39.4371ZM145.673 43.1651C143.804 42.5225 141.95 41.8916 140.11 41.2722L140.89 38.9552C142.734 39.5762 144.594 40.2089 146.468 40.8531L145.673 43.1651ZM156.674 47.0294C154.821 46.3646 152.978 45.7106 151.147 45.0674L151.957 42.7607C153.794 43.4057 155.642 44.0616 157.5 44.7283L156.674 47.0294ZM167.624 51.0447C165.786 50.356 163.955 49.6776 162.133 49.0094L162.974 46.7141C164.802 47.3842 166.638 48.0646 168.482 48.7554L167.624 51.0447ZM178.516 55.2183C176.693 54.504 174.874 53.7995 173.061 53.1049L173.935 50.8219C175.754 51.5187 177.579 52.2254 179.408 52.9419L178.516 55.2183ZM189.343 59.5583C187.535 58.8166 185.729 58.0844 183.925 57.3617L184.835 55.0924C186.644 55.8175 188.456 56.5521 190.271 57.2964L189.343 59.5583ZM200.096 64.0747C198.304 63.3037 196.511 62.542 194.72 61.7897L195.666 59.5356C197.464 60.2906 199.263 61.055 201.062 61.8289L200.096 64.0747ZM210.766 68.7791C208.991 67.9768 207.214 67.1837 205.436 66.3997L206.422 64.1627C208.207 64.9496 209.991 65.7458 211.773 66.5513L210.766 68.7791ZM221.341 73.6848C219.586 72.849 217.827 72.0223 216.064 71.2047L217.092 68.9868C218.863 69.8079 220.63 70.6381 222.392 71.4775L221.341 73.6848ZM231.81 78.8079C230.077 77.9359 228.337 77.073 226.592 76.2192L227.667 74.0231C229.42 74.8809 231.167 75.7478 232.909 76.6239L231.81 78.8079ZM242.158 84.1672C240.449 83.2557 238.732 82.3533 237.007 81.46L238.131 79.289C239.865 80.1868 241.591 81.0938 243.309 82.0101L242.158 84.1672ZM252.366 89.7833C250.685 88.8286 248.993 87.8831 247.29 86.9467L248.469 84.8046C250.18 85.7461 251.882 86.697 253.574 87.6574L252.366 89.7833ZM262.41 95.6803C260.761 94.678 259.097 93.6852 257.422 92.7017L258.659 90.5933C260.345 91.5828 262.019 92.582 263.68 93.5908L262.41 95.6803ZM272.261 101.885C270.648 100.831 269.019 99.7861 267.375 98.7509L268.678 96.6822C270.334 97.7246 271.974 98.7769 273.599 99.8391L272.261 101.885ZM281.88 108.43C280.312 107.318 278.724 106.216 277.118 105.124L278.494 103.103C280.112 104.204 281.712 105.314 283.294 106.436L281.88 108.43ZM291.22 115.35C289.706 114.176 288.168 113.011 286.609 111.856L288.065 109.892C289.637 111.057 291.189 112.232 292.719 113.419L291.22 115.35ZM300.233 122.697C298.78 121.449 297.3 120.212 295.795 118.986L297.339 117.091C298.86 118.33 300.356 119.58 301.826 120.842L300.233 122.697ZM308.835 130.512C307.456 129.182 306.046 127.864 304.606 126.556L306.249 124.746C307.707 126.07 309.135 127.405 310.532 128.752L308.835 130.512ZM314.935 136.689C314.283 135.994 313.622 135.302 312.952 134.613L314.706 132.909C315.385 133.608 316.055 134.311 316.718 135.016C317.374 135.715 318.027 136.421 318.677 137.133L316.872 138.781C316.229 138.078 315.583 137.38 314.935 136.689ZM324.408 147.479C323.182 145.989 321.944 144.522 320.694 143.079L322.542 141.479C323.806 142.938 325.057 144.42 326.296 145.925L324.408 147.479ZM331.509 156.543C330.355 154.997 329.188 153.47 328.009 151.964L329.933 150.456C331.125 151.978 332.303 153.519 333.468 155.08L331.509 156.543ZM338.19 165.926C337.106 164.33 336.008 162.751 334.896 161.19L336.888 159.772C338.01 161.348 339.118 162.941 340.212 164.552L338.19 165.926ZM344.461 175.59C343.445 173.951 342.415 172.326 341.37 170.716L343.421 169.385C344.475 171.009 345.515 172.649 346.539 174.302L344.461 175.59ZM350.329 185.504C349.381 183.827 348.418 182.161 347.44 180.509L349.544 179.263C350.53 180.93 351.502 182.61 352.458 184.302L350.329 185.504ZM355.795 195.642C354.916 193.932 354.021 192.231 353.11 190.541L355.261 189.381C356.18 191.085 357.083 192.8 357.97 194.524L355.795 195.642ZM360.861 205.989C360.051 204.248 359.223 202.515 358.379 200.79L360.575 199.715C361.426 201.454 362.26 203.202 363.078 204.957L360.861 205.989ZM365.52 216.528C364.779 214.759 364.02 212.995 363.243 211.238L365.479 210.249C366.262 212.021 367.028 213.8 367.775 215.584L365.52 216.528ZM369.759 227.244C369.089 225.447 368.401 223.654 367.693 221.866L369.966 220.966C370.68 222.77 371.374 224.578 372.049 226.39L369.759 227.244ZM373.559 238.121C372.964 236.299 372.349 234.478 371.714 232.66L374.022 231.853C374.663 233.687 375.283 235.524 375.883 237.363L373.559 238.121ZM376.897 249.147C376.382 247.3 375.844 245.453 375.285 243.606L377.625 242.898C378.189 244.761 378.732 246.626 379.252 248.49L376.897 249.147ZM278.407 273.404C276.521 273.835 274.672 274.308 272.858 274.824L272.189 272.473C274.045 271.944 275.937 271.46 277.863 271.021L278.407 273.404ZM267.35 276.565C265.491 277.214 263.675 277.914 261.903 278.664L260.95 276.413C262.771 275.641 264.637 274.923 266.544 274.257L267.35 276.565ZM289.909 271.358C287.964 271.614 286.051 271.908 284.169 272.24L283.744 269.833C285.662 269.494 287.611 269.194 289.59 268.934L289.909 271.358ZM301.455 270.306C299.476 270.412 297.524 270.552 295.599 270.728L295.377 268.293C297.333 268.115 299.316 267.972 301.325 267.865L301.455 270.306ZM256.724 281.069C254.992 281.948 253.308 282.882 251.674 283.872L250.407 281.781C252.095 280.759 253.832 279.795 255.618 278.889L256.724 281.069ZM313.055 270.072C311.134 270.05 309.236 270.057 307.359 270.093L307.312 267.649C309.214 267.612 311.138 267.605 313.082 267.627L313.055 270.072ZM246.856 287.058C245.303 288.178 243.802 289.356 242.354 290.594L240.765 288.736C242.265 287.453 243.819 286.233 245.427 285.074L246.856 287.058ZM324.827 270.54C322.824 270.406 320.841 270.3 318.879 270.222L318.976 267.779C320.961 267.858 322.966 267.965 324.99 268.101L324.827 270.54ZM379.742 260.306C379.311 258.437 378.857 256.566 378.379 254.692L380.748 254.088C381.23 255.98 381.689 257.87 382.124 259.758L379.742 260.306ZM238.158 294.502C236.814 295.866 235.526 297.291 234.294 298.778L232.411 297.219C233.688 295.677 235.024 294.2 236.417 292.786L238.158 294.502ZM336.309 271.584C334.383 271.365 332.473 271.168 330.579 270.996L330.801 268.561C332.713 268.735 334.642 268.933 336.586 269.155L336.309 271.584ZM348.057 273.176C346.068 272.865 344.095 272.577 342.137 272.312L342.465 269.889C344.44 270.157 346.43 270.447 348.434 270.761L348.057 273.176ZM230.815 303.363C229.746 304.903 228.73 306.501 227.768 308.159L225.654 306.931C226.648 305.218 227.7 303.564 228.807 301.969L230.815 303.363ZM359.392 275.158C357.483 274.79 355.586 274.441 353.702 274.112L354.124 271.703C356.022 272.036 357.933 272.387 359.855 272.758L359.392 275.158ZM382.051 271.583C381.713 269.695 381.35 267.802 380.96 265.904L383.355 265.413C383.749 267.33 384.116 269.244 384.457 271.153L382.051 271.583ZM370.988 277.594C369.032 277.15 367.088 276.726 365.155 276.32L365.657 273.927C367.603 274.336 369.56 274.763 371.528 275.209L370.988 277.594ZM225.047 313.31C224.62 314.199 224.208 315.103 223.81 316.023C223.435 316.888 223.083 317.761 222.753 318.641L220.464 317.782C220.808 316.864 221.176 315.954 221.567 315.051C221.977 314.103 222.402 313.171 222.842 312.254L225.047 313.31ZM382.205 280.307C380.325 279.824 378.454 279.358 376.593 278.907L377.168 276.531C379.04 276.984 380.922 277.453 382.813 277.939L382.205 280.307ZM383.774 282.958C383.539 281.056 383.276 279.147 382.985 277.23L385.402 276.863C385.696 278.802 385.962 280.734 386.2 282.658L383.774 282.958ZM221.029 324.019C220.54 325.841 220.14 327.684 219.825 329.539L217.415 329.131C217.742 327.201 218.159 325.283 218.667 323.386L221.029 324.019ZM393.594 283.391C391.679 282.846 389.772 282.316 387.873 281.802L388.512 279.442C390.421 279.959 392.338 280.492 394.264 281.04L393.594 283.391ZM404.728 286.705C402.881 286.131 401.04 285.572 399.207 285.026L399.905 282.683C401.747 283.231 403.597 283.794 405.453 284.37L404.728 286.705ZM384.845 294.404C384.725 292.494 384.574 290.572 384.392 288.641L386.827 288.412C387.011 290.368 387.164 292.315 387.285 294.251L384.845 294.404ZM219.138 335.151C218.995 337.034 218.936 338.921 218.961 340.805L216.517 340.838C216.491 338.881 216.551 336.921 216.701 334.965L219.138 335.151ZM415.894 290.304C414.02 289.678 412.153 289.065 410.291 288.465L411.042 286.138C412.911 286.74 414.787 287.356 416.669 287.986L415.894 290.304ZM426.966 294.131C425.15 293.483 423.34 292.847 421.535 292.223L422.334 289.912C424.147 290.539 425.964 291.178 427.787 291.828L426.966 294.131ZM385.185 305.885C385.195 303.973 385.17 302.047 385.112 300.106L387.555 300.033C387.615 302.001 387.64 303.956 387.63 305.897L385.185 305.885ZM219.287 346.454C219.478 348.335 219.753 350.203 220.108 352.053L217.707 352.514C217.338 350.594 217.053 348.654 216.854 346.702L219.287 346.454ZM437.913 298.154C436.079 297.46 434.249 296.778 432.425 296.108L433.268 293.813C435.1 294.486 436.936 295.171 438.777 295.867L437.913 298.154ZM384.695 317.345C384.852 315.446 384.97 313.528 385.052 311.593L387.495 311.696C387.412 313.663 387.291 315.614 387.131 317.546L384.695 317.345ZM448.924 302.428C447.089 301.697 445.257 300.976 443.429 300.267L444.314 297.988C446.148 298.7 447.987 299.423 449.829 300.157L448.924 302.428ZM221.419 357.557C221.938 359.375 222.538 361.165 223.216 362.918L220.936 363.8C220.231 361.977 219.608 360.117 219.068 358.228L221.419 357.557ZM459.669 306.81C457.871 306.06 456.077 305.32 454.286 304.589L455.209 302.326C457.006 303.059 458.807 303.802 460.611 304.554L459.669 306.81ZM383.256 328.704C383.58 326.836 383.863 324.944 384.104 323.029L386.53 323.335C386.284 325.286 385.996 327.216 385.665 329.122L383.256 328.704ZM225.497 368.09C226.339 369.781 227.26 371.427 228.256 373.017L226.184 374.315C225.145 372.656 224.186 370.941 223.308 369.18L225.497 368.09ZM470.492 311.428C468.682 310.639 466.875 309.86 465.071 309.09L466.031 306.842C467.841 307.614 469.653 308.396 471.469 309.187L470.492 311.428ZM380.735 339.846C381.248 338.032 381.716 336.187 382.139 334.316L384.523 334.854C384.092 336.767 383.613 338.654 383.087 340.512L380.735 339.846ZM481.169 316.178C479.404 315.377 477.641 314.585 475.881 313.802L476.875 311.568C478.64 312.354 480.409 313.148 482.179 313.951L481.169 316.178ZM231.487 377.641C232.643 379.127 233.874 380.548 235.178 381.897L233.42 383.596C232.054 382.183 230.766 380.695 229.558 379.142L231.487 377.641ZM491.782 321.084C490.01 320.249 488.239 319.423 486.47 318.605L487.496 316.386C489.27 317.206 491.046 318.035 492.824 318.872L491.782 321.084ZM376.986 350.617C377.713 348.882 378.389 347.112 379.016 345.309L381.325 346.112C380.683 347.962 379.988 349.779 379.241 351.562L376.986 350.617ZM239.308 385.72C240.751 386.911 242.263 388.021 243.843 389.042L242.517 391.096C240.855 390.022 239.266 388.855 237.752 387.605L239.308 385.72ZM502.41 326.178C500.64 325.315 498.872 324.46 497.105 323.613L498.161 321.408C499.933 322.257 501.707 323.115 503.481 323.98L502.41 326.178ZM371.876 360.807C372.84 359.183 373.748 357.518 374.601 355.814L376.787 356.909C375.908 358.664 374.972 360.38 373.979 362.054L371.876 360.807ZM248.734 391.804C250.4 392.618 252.128 393.34 253.919 393.962L253.116 396.271C251.233 395.617 249.414 394.857 247.661 394.001L248.734 391.804ZM512.84 331.35C511.1 330.473 509.36 329.603 507.622 328.741L508.708 326.551C510.451 327.415 512.195 328.287 513.94 329.166L512.84 331.35ZM365.355 370.112C366.559 368.649 367.705 367.14 368.792 365.587L370.795 366.989C369.671 368.594 368.487 370.154 367.242 371.666L365.355 370.112ZM259.33 395.491C260.239 395.691 261.162 395.867 262.099 396.018C263.087 396.177 264.069 396.329 265.044 396.474L264.685 398.892C263.7 398.746 262.708 398.593 261.71 398.432C260.727 398.274 259.759 398.089 258.804 397.878L259.33 395.491ZM270.812 397.256C272.708 397.488 274.576 397.692 276.417 397.868L276.185 400.301C274.321 400.124 272.432 399.918 270.515 399.683L270.812 397.256ZM523.287 336.699C521.545 335.793 519.803 334.894 518.062 334.002L519.176 331.826C520.922 332.72 522.668 333.621 524.415 334.53L523.287 336.699ZM357.458 378.266C358.888 377.01 360.257 375.705 361.568 374.351L363.324 376.052C361.968 377.452 360.551 378.804 359.071 380.103L357.458 378.266ZM282.221 398.335C284.166 398.463 286.079 398.557 287.961 398.62L287.88 401.063C285.971 401 284.032 400.904 282.061 400.775L282.221 398.335ZM348.338 385.06C349.968 384.036 351.537 382.959 353.048 381.834L354.509 383.795C352.946 384.959 351.324 386.071 349.64 387.13L348.338 385.06ZM293.618 398.713C295.598 398.712 297.541 398.673 299.447 398.598L299.543 401.041C297.604 401.117 295.63 401.157 293.62 401.158L293.618 398.713ZM533.651 342.171C531.939 341.253 530.227 340.342 528.514 339.438L529.656 337.276C531.372 338.183 533.089 339.096 534.806 340.016L533.651 342.171ZM338.273 390.383C340.055 389.6 341.779 388.767 343.447 387.884L344.59 390.046C342.869 390.956 341.091 391.815 339.257 392.621L338.273 390.383ZM305.057 398.267C307.03 398.11 308.961 397.912 310.852 397.674L311.157 400.1C309.229 400.342 307.26 400.544 305.251 400.704L305.057 398.267ZM316.445 396.835C318.376 396.497 320.26 396.115 322.099 395.69L322.649 398.072C320.767 398.507 318.839 398.898 316.866 399.243L316.445 396.835ZM327.574 394.26C329.447 393.713 331.268 393.117 333.039 392.476L333.871 394.775C332.052 395.434 330.181 396.045 328.26 396.607L327.574 394.26ZM543.921 347.753C542.21 346.81 540.499 345.873 538.787 344.943L539.955 342.795C541.671 343.728 543.386 344.667 545.101 345.613L543.921 347.753ZM554.178 353.489C552.47 352.521 550.761 351.558 549.052 350.603L550.245 348.469C551.959 349.427 553.672 350.391 555.384 351.362L554.178 353.489ZM564.314 359.313C562.63 358.333 560.945 357.358 559.259 356.389L560.477 354.269C562.167 355.24 563.857 356.218 565.545 357.201L564.314 359.313ZM574.401 365.264C572.723 364.261 571.043 363.264 569.362 362.272L570.605 360.166C572.29 361.161 573.973 362.16 575.656 363.166L574.401 365.264ZM584.439 371.341C582.771 370.318 581.102 369.301 579.43 368.289L580.696 366.198C582.372 367.212 584.045 368.232 585.717 369.257L584.439 371.341ZM594.38 377.513C592.728 376.474 591.073 375.441 589.416 374.412L590.706 372.335C592.367 373.366 594.025 374.402 595.681 375.443L594.38 377.513ZM604.263 383.803C602.621 382.745 600.977 381.692 599.33 380.644L600.642 378.581C602.293 379.632 603.942 380.688 605.587 381.748L604.263 383.803ZM614.08 390.206C612.45 389.13 610.816 388.058 609.18 386.99L610.515 384.943C612.156 386.013 613.793 387.087 615.427 388.166L614.08 390.206ZM623.821 396.716C622.205 395.622 620.585 394.533 618.961 393.448L620.319 391.415C621.947 392.503 623.571 393.595 625.191 394.691L623.821 396.716ZM633.477 403.326C631.875 402.216 630.27 401.11 628.661 400.009L630.042 397.991C631.655 399.096 633.264 400.204 634.869 401.316L633.477 403.326ZM643.082 410.062C641.487 408.93 639.888 407.802 638.285 406.678L639.689 404.676C641.296 405.803 642.899 406.934 644.497 408.069L643.082 410.062ZM652.595 416.898C651.019 415.751 649.438 414.608 647.853 413.469L649.279 411.484C650.869 412.626 652.453 413.771 654.033 414.92L652.595 416.898ZM662.003 423.823C660.444 422.661 658.879 421.502 657.309 420.347L658.759 418.378C660.332 419.536 661.901 420.698 663.464 421.863L662.003 423.823ZM671.389 430.905C669.836 429.719 668.277 428.535 666.712 427.355L668.185 425.403C669.753 426.587 671.316 427.773 672.873 428.963L671.389 430.905ZM680.637 438.06C679.108 436.862 677.572 435.667 676.031 434.474L677.527 432.54C679.072 433.736 680.611 434.934 682.145 436.136L680.637 438.06ZM689.81 445.34C688.282 444.112 686.748 442.886 685.206 441.663L686.726 439.748C688.271 440.974 689.81 442.203 691.342 443.434L689.81 445.34ZM698.916 452.757C697.412 451.516 695.902 450.277 694.384 449.041L695.928 447.145C697.45 448.385 698.964 449.627 700.472 450.871L698.916 452.757ZM707.848 460.23C706.375 458.98 704.893 457.732 703.404 456.487L704.973 454.612C706.466 455.861 707.952 457.112 709.429 458.365L707.848 460.23ZM716.776 467.908C715.299 466.619 713.813 465.332 712.319 464.047L713.913 462.194C715.411 463.482 716.902 464.773 718.383 466.066L716.776 467.908ZM725.537 475.662C724.095 474.367 722.643 473.072 721.183 471.78L722.803 469.949C724.268 471.246 725.724 472.544 727.171 473.843L725.537 475.662ZM734.162 483.527C732.73 482.201 731.289 480.877 729.838 479.554L731.485 477.747C732.94 479.074 734.386 480.403 735.823 481.733L734.162 483.527ZM742.738 491.596C741.33 490.249 739.91 488.903 738.481 487.558L740.156 485.777C741.59 487.127 743.014 488.477 744.428 489.829L742.738 491.596ZM751.062 499.69C749.697 498.34 748.32 496.99 746.933 495.641L748.637 493.888C750.029 495.242 751.411 496.596 752.781 497.952L751.062 499.69ZM759.377 508.063C758.007 506.658 756.625 505.253 755.23 503.849L756.965 502.126C758.365 503.536 759.752 504.946 761.128 506.356L759.377 508.063ZM767.445 516.496C766.126 515.09 764.794 513.685 763.449 512.279L765.216 510.589C766.566 512 767.903 513.412 769.228 514.823L767.445 516.496ZM775.363 525.111C774.044 523.646 772.711 522.18 771.362 520.714L773.162 519.059C774.516 520.531 775.856 522.004 777.181 523.476L775.363 525.111ZM783.119 533.924C781.857 532.457 780.58 530.989 779.287 529.52L781.122 527.904C782.421 529.38 783.705 530.856 784.973 532.33L783.119 533.924ZM790.58 542.814C789.356 541.318 788.115 539.822 786.858 538.324L788.73 536.752C789.994 538.257 791.241 539.762 792.472 541.265L790.58 542.814ZM797.935 552.048C796.746 550.513 795.539 548.975 794.313 547.436L796.225 545.913C797.458 547.461 798.673 549.007 799.868 550.552L797.935 552.048ZM804.863 561.268C803.743 559.731 802.604 558.191 801.445 556.649L803.4 555.181C804.566 556.732 805.712 558.282 806.839 559.829L804.863 561.268ZM811.681 570.964C810.59 569.354 809.476 567.741 808.339 566.125L810.339 564.719C811.483 566.346 812.605 567.971 813.704 569.592L811.681 570.964ZM817.961 580.601C816.96 578.999 815.934 577.393 814.884 575.783L816.932 574.448C817.99 576.07 819.024 577.689 820.034 579.305L817.961 580.601ZM824.031 590.783C823.075 589.096 822.091 587.404 821.08 585.707L823.18 584.455C824.2 586.167 825.193 587.875 826.158 589.578L824.031 590.783ZM829.474 600.947C828.617 599.247 827.729 597.54 826.812 595.828L828.967 594.673C829.894 596.403 830.791 598.128 831.657 599.847L829.474 600.947ZM834.473 611.607C833.71 609.846 832.912 608.076 832.078 606.299L834.291 605.261C835.135 607.059 835.944 608.851 836.717 610.635L834.473 611.607ZM838.735 622.397C838.083 620.564 837.39 618.72 836.656 616.868L838.929 615.967C839.673 617.846 840.377 619.717 841.038 621.578L838.735 622.397ZM842.189 633.457C841.702 631.637 841.17 629.804 840.594 627.96L842.927 627.231C843.513 629.106 844.055 630.971 844.551 632.825L842.189 633.457ZM844.678 644.865C844.36 642.958 843.989 641.037 843.565 639.102L845.953 638.578C846.386 640.553 846.765 642.515 847.089 644.463L844.678 644.865ZM845.74 653.341C845.663 652.411 845.572 651.477 845.468 650.539L847.898 650.268C848.005 651.229 848.098 652.186 848.177 653.139L845.74 653.341Z" fill="#7EFF9B"/>
<path fill-rule="evenodd" clip-rule="evenodd" d="M49.0711 0.698087L0.0220141 2.92228L30.8442 23.1069L37.8436 14.5016L4.22575 3.86756L41.9735 9.42417L49.0711 0.698087ZM45.2084 23.0235L39.0217 16.1099L36.9165 18.8167L45.2084 23.0235ZM55.9664 17.2174C55.0702 17.0117 54.385 16.8575 53.9244 16.7548C53.6941 16.7035 53.5199 16.665 53.4037 16.6395L53.2729 16.6108L53.2404 16.6038L53.2325 16.6021L53.2302 16.6015L53.489 15.4069L53.7481 14.2123L53.7488 14.2124L53.751 14.2129L53.7598 14.2148L53.794 14.2223L53.9284 14.2517C54.0469 14.2777 54.2235 14.3167 54.4562 14.3686C54.9216 14.4723 55.6119 14.6276 56.5132 14.8345L55.9664 17.2174ZM67.3134 19.9432C65.2335 19.425 63.3588 18.967 61.7063 18.5692L62.2784 16.1923C63.9371 16.5915 65.8182 17.0511 67.9045 17.5709L67.3134 19.9432ZM78.6304 22.8472C76.6433 22.3231 74.7536 21.832 72.9684 21.3737L73.5762 19.0057C75.3665 19.4652 77.2614 19.9578 79.2538 20.4832L78.6304 22.8472ZM89.9223 25.901C87.9887 25.3653 86.115 24.8527 84.3053 24.3631L84.9436 22.0031C86.7581 22.494 88.6366 23.0079 90.5751 23.545L89.9223 25.901ZM101.131 29.0786C99.2123 28.5224 97.336 27.9847 95.5048 27.4656L96.1716 25.1135C98.0074 25.6339 99.8884 26.1729 101.811 26.7305L101.131 29.0786ZM112.31 32.3916C110.43 31.8225 108.581 31.2687 106.764 30.7302L107.459 28.3862C109.28 28.926 111.134 29.4812 113.018 30.0518L112.31 32.3916ZM123.476 35.8462C121.599 35.2532 119.746 34.6738 117.917 34.1081L118.64 31.7725C120.473 32.3397 122.331 32.9205 124.212 33.515L123.476 35.8462ZM134.601 39.4371C132.725 38.8188 130.867 38.213 129.029 37.6196L129.78 35.293C131.623 35.8879 133.485 36.4953 135.366 37.1152L134.601 39.4371ZM145.673 43.1651C143.804 42.5225 141.95 41.8916 140.11 41.2722L140.89 38.9552C142.734 39.5762 144.594 40.2089 146.468 40.8531L145.673 43.1651ZM156.674 47.0294C154.821 46.3646 152.978 45.7106 151.147 45.0674L151.957 42.7607C153.794 43.4057 155.642 44.0616 157.5 44.7283L156.674 47.0294ZM167.624 51.0447C165.786 50.356 163.955 49.6776 162.133 49.0094L162.974 46.7141C164.802 47.3842 166.638 48.0646 168.482 48.7554L167.624 51.0447ZM178.516 55.2183C176.693 54.504 174.874 53.7995 173.061 53.1049L173.935 50.8219C175.754 51.5187 177.579 52.2254 179.408 52.9419L178.516 55.2183ZM189.343 59.5583C187.535 58.8166 185.729 58.0844 183.925 57.3617L184.835 55.0924C186.644 55.8175 188.456 56.5521 190.271 57.2964L189.343 59.5583ZM200.096 64.0747C198.304 63.3037 196.511 62.542 194.72 61.7897L195.666 59.5356C197.464 60.2906 199.263 61.055 201.062 61.8289L200.096 64.0747ZM210.766 68.7791C208.991 67.9768 207.214 67.1837 205.436 66.3997L206.422 64.1627C208.207 64.9496 209.991 65.7458 211.773 66.5513L210.766 68.7791ZM221.341 73.6848C219.586 72.849 217.827 72.0223 216.064 71.2047L217.092 68.9868C218.863 69.8079 220.63 70.6381 222.392 71.4775L221.341 73.6848ZM231.81 78.8079C230.077 77.9359 228.337 77.073 226.592 76.2192L227.667 74.0231C229.42 74.8809 231.167 75.7478 232.909 76.6239L231.81 78.8079ZM242.158 84.1672C240.449 83.2557 238.732 82.3533 237.007 81.46L238.131 79.289C239.865 80.1868 241.591 81.0938 243.309 82.0101L242.158 84.1672ZM252.366 89.7833C250.685 88.8286 248.993 87.8831 247.29 86.9467L248.469 84.8046C250.18 85.7461 251.882 86.697 253.574 87.6574L252.366 89.7833ZM262.41 95.6803C260.761 94.678 259.097 93.6852 257.422 92.7017L258.659 90.5933C260.345 91.5828 262.019 92.582 263.68 93.5908L262.41 95.6803ZM272.261 101.885C270.648 100.831 269.019 99.7861 267.375 98.7509L268.678 96.6822C270.334 97.7246 271.974 98.7769 273.599 99.8391L272.261 101.885ZM281.88 108.43C280.312 107.318 278.724 106.216 277.118 105.124L278.494 103.103C280.112 104.204 281.712 105.314 283.294 106.436L281.88 108.43ZM291.22 115.35C289.706 114.176 288.168 113.011 286.609 111.856L288.065 109.892C289.637 111.057 291.189 112.232 292.719 113.419L291.22 115.35ZM300.233 122.697C298.78 121.449 297.3 120.212 295.795 118.986L297.339 117.091C298.86 118.33 300.356 119.58 301.826 120.842L300.233 122.697ZM308.835 130.512C307.456 129.182 306.046 127.864 304.606 126.556L306.249 124.746C307.707 126.07 309.135 127.405 310.532 128.752L308.835 130.512ZM314.935 136.689C314.283 135.994 313.622 135.302 312.952 134.613L314.706 132.909C315.385 133.608 316.055 134.311 316.718 135.016C317.374 135.715 318.027 136.421 318.677 137.133L316.872 138.781C316.229 138.078 315.583 137.38 314.935 136.689ZM324.408 147.479C323.182 145.989 321.944 144.522 320.694 143.079L322.542 141.479C323.806 142.938 325.057 144.42 326.296 145.925L324.408 147.479ZM331.509 156.543C330.355 154.997 329.188 153.47 328.009 151.964L329.933 150.456C331.125 151.978 332.303 153.519 333.468 155.08L331.509 156.543ZM338.19 165.926C337.106 164.33 336.008 162.751 334.896 161.19L336.888 159.772C338.01 161.348 339.118 162.941 340.212 164.552L338.19 165.926ZM344.461 175.59C343.445 173.951 342.415 172.326 341.37 170.716L343.421 169.385C344.475 171.009 345.515 172.649 346.539 174.302L344.461 175.59ZM350.329 185.504C349.381 183.827 348.418 182.161 347.44 180.509L349.544 179.263C350.53 180.93 351.502 182.61 352.458 184.302L350.329 185.504ZM355.795 195.642C354.916 193.932 354.021 192.231 353.11 190.541L355.261 189.381C356.18 191.085 357.083 192.8 357.97 194.524L355.795 195.642ZM360.861 205.989C360.051 204.248 359.223 202.515 358.379 200.79L360.575 199.715C361.426 201.454 362.26 203.202 363.078 204.957L360.861 205.989ZM365.52 216.528C364.779 214.759 364.02 212.995 363.243 211.238L365.479 210.249C366.262 212.021 367.028 213.8 367.775 215.584L365.52 216.528ZM369.759 227.244C369.089 225.447 368.401 223.654 367.693 221.866L369.966 220.966C370.68 222.77 371.374 224.578 372.049 226.39L369.759 227.244ZM373.559 238.121C372.964 236.299 372.349 234.478 371.714 232.66L374.022 231.853C374.663 233.687 375.283 235.524 375.883 237.363L373.559 238.121ZM376.897 249.147C376.382 247.3 375.844 245.453 375.285 243.606L377.625 242.898C378.189 244.761 378.732 246.626 379.252 248.49L376.897 249.147ZM278.407 273.404C276.521 273.835 274.672 274.308 272.858 274.824L272.189 272.473C274.045 271.944 275.937 271.46 277.863 271.021L278.407 273.404ZM267.35 276.565C265.491 277.214 263.675 277.914 261.903 278.664L260.95 276.413C262.771 275.641 264.637 274.923 266.544 274.257L267.35 276.565ZM289.909 271.358C287.964 271.614 286.051 271.908 284.169 272.24L283.744 269.833C285.662 269.494 287.611 269.194 289.59 268.934L289.909 271.358ZM301.455 270.306C299.476 270.412 297.524 270.552 295.599 270.728L295.377 268.293C297.333 268.115 299.316 267.972 301.325 267.865L301.455 270.306ZM256.724 281.069C254.992 281.948 253.308 282.882 251.674 283.872L250.407 281.781C252.095 280.759 253.832 279.795 255.618 278.889L256.724 281.069ZM313.055 270.072C311.134 270.05 309.236 270.057 307.359 270.093L307.312 267.649C309.214 267.612 311.138 267.605 313.082 267.627L313.055 270.072ZM246.856 287.058C245.303 288.178 243.802 289.356 242.354 290.594L240.765 288.736C242.265 287.453 243.819 286.233 245.427 285.074L246.856 287.058ZM324.827 270.54C322.824 270.406 320.841 270.3 318.879 270.222L318.976 267.779C320.961 267.858 322.966 267.965 324.99 268.101L324.827 270.54ZM379.742 260.306C379.311 258.437 378.857 256.566 378.379 254.692L380.748 254.088C381.23 255.98 381.689 257.87 382.124 259.758L379.742 260.306ZM238.158 294.502C236.814 295.866 235.526 297.291 234.294 298.778L232.411 297.219C233.688 295.677 235.024 294.2 236.417 292.786L238.158 294.502ZM336.309 271.584C334.383 271.365 332.473 271.168 330.579 270.996L330.801 268.561C332.713 268.735 334.642 268.933 336.586 269.155L336.309 271.584ZM348.057 273.176C346.068 272.865 344.095 272.577 342.137 272.312L342.465 269.889C344.44 270.157 346.43 270.447 348.434 270.761L348.057 273.176ZM230.815 303.363C229.746 304.903 228.73 306.501 227.768 308.159L225.654 306.931C226.648 305.218 227.7 303.564 228.807 301.969L230.815 303.363ZM359.392 275.158C357.483 274.79 355.586 274.441 353.702 274.112L354.124 271.703C356.022 272.036 357.933 272.387 359.855 272.758L359.392 275.158ZM382.051 271.583C381.713 269.695 381.35 267.802 380.96 265.904L383.355 265.413C383.749 267.33 384.116 269.244 384.457 271.153L382.051 271.583ZM370.988 277.594C369.032 277.15 367.088 276.726 365.155 276.32L365.657 273.927C367.603 274.336 369.56 274.763 371.528 275.209L370.988 277.594ZM225.047 313.31C224.62 314.199 224.208 315.103 223.81 316.023C223.435 316.888 223.083 317.761 222.753 318.641L220.464 317.782C220.808 316.864 221.176 315.954 221.567 315.051C221.977 314.103 222.402 313.171 222.842 312.254L225.047 313.31ZM382.205 280.307C380.325 279.824 378.454 279.358 376.593 278.907L377.168 276.531C379.04 276.984 380.922 277.453 382.813 277.939L382.205 280.307ZM383.774 282.958C383.539 281.056 383.276 279.147 382.985 277.23L385.402 276.863C385.696 278.802 385.962 280.734 386.2 282.658L383.774 282.958ZM221.029 324.019C220.54 325.841 220.14 327.684 219.825 329.539L217.415 329.131C217.742 327.201 218.159 325.283 218.667 323.386L221.029 324.019ZM393.594 283.391C391.679 282.846 389.772 282.316 387.873 281.802L388.512 279.442C390.421 279.959 392.338 280.492 394.264 281.04L393.594 283.391ZM404.728 286.705C402.881 286.131 401.04 285.572 399.207 285.026L399.905 282.683C401.747 283.231 403.597 283.794 405.453 284.37L404.728 286.705ZM384.845 294.404C384.725 292.494 384.574 290.572 384.392 288.641L386.827 288.412C387.011 290.368 387.164 292.315 387.285 294.251L384.845 294.404ZM219.138 335.151C218.995 337.034 218.936 338.921 218.961 340.805L216.517 340.838C216.491 338.881 216.551 336.921 216.701 334.965L219.138 335.151ZM415.894 290.304C414.02 289.678 412.153 289.065 410.291 288.465L411.042 286.138C412.911 286.74 414.787 287.356 416.669 287.986L415.894 290.304ZM426.966 294.131C425.15 293.483 423.34 292.847 421.535 292.223L422.334 289.912C424.147 290.539 425.964 291.178 427.787 291.828L426.966 294.131ZM385.185 305.885C385.195 303.973 385.17 302.047 385.112 300.106L387.555 300.033C387.615 302.001 387.64 303.956 387.63 305.897L385.185 305.885ZM219.287 346.454C219.478 348.335 219.753 350.203 220.108 352.053L217.707 352.514C217.338 350.594 217.053 348.654 216.854 346.702L219.287 346.454ZM437.913 298.154C436.079 297.46 434.249 296.778 432.425 296.108L433.268 293.813C435.1 294.486 436.936 295.171 438.777 295.867L437.913 298.154ZM384.695 317.345C384.852 315.446 384.97 313.528 385.052 311.593L387.495 311.696C387.412 313.663 387.291 315.614 387.131 317.546L384.695 317.345ZM448.924 302.428C447.089 301.697 445.257 300.976 443.429 300.267L444.314 297.988C446.148 298.7 447.987 299.423 449.829 300.157L448.924 302.428ZM221.419 357.557C221.938 359.375 222.538 361.165 223.216 362.918L220.936 363.8C220.231 361.977 219.608 360.117 219.068 358.228L221.419 357.557ZM459.669 306.81C457.871 306.06 456.077 305.32 454.286 304.589L455.209 302.326C457.006 303.059 458.807 303.802 460.611 304.554L459.669 306.81ZM383.256 328.704C383.58 326.836 383.863 324.944 384.104 323.029L386.53 323.335C386.284 325.286 385.996 327.216 385.665 329.122L383.256 328.704ZM225.497 368.09C226.339 369.781 227.26 371.427 228.256 373.017L226.184 374.315C225.145 372.656 224.186 370.941 223.308 369.18L225.497 368.09ZM470.492 311.428C468.682 310.639 466.875 309.86 465.071 309.09L466.031 306.842C467.841 307.614 469.653 308.396 471.469 309.187L470.492 311.428ZM380.735 339.846C381.248 338.032 381.716 336.187 382.139 334.316L384.523 334.854C384.092 336.767 383.613 338.654 383.087 340.512L380.735 339.846ZM481.169 316.178C479.404 315.377 477.641 314.585 475.881 313.802L476.875 311.568C478.64 312.354 480.409 313.148 482.179 313.951L481.169 316.178ZM231.487 377.641C232.643 379.127 233.874 380.548 235.178 381.897L233.42 383.596C232.054 382.183 230.766 380.695 229.558 379.142L231.487 377.641ZM491.782 321.084C490.01 320.249 488.239 319.423 486.47 318.605L487.496 316.386C489.27 317.206 491.046 318.035 492.824 318.872L491.782 321.084ZM376.986 350.617C377.713 348.882 378.389 347.112 379.016 345.309L381.325 346.112C380.683 347.962 379.988 349.779 379.241 351.562L376.986 350.617ZM239.308 385.72C240.751 386.911 242.263 388.021 243.843 389.042L242.517 391.096C240.855 390.022 239.266 388.855 237.752 387.605L239.308 385.72ZM502.41 326.178C500.64 325.315 498.872 324.46 497.105 323.613L498.161 321.408C499.933 322.257 501.707 323.115 503.481 323.98L502.41 326.178ZM371.876 360.807C372.84 359.183 373.748 357.518 374.601 355.814L376.787 356.909C375.908 358.664 374.972 360.38 373.979 362.054L371.876 360.807ZM248.734 391.804C250.4 392.618 252.128 393.34 253.919 393.962L253.116 396.271C251.233 395.617 249.414 394.857 247.661 394.001L248.734 391.804ZM512.84 331.35C511.1 330.473 509.36 329.603 507.622 328.741L508.708 326.551C510.451 327.415 512.195 328.287 513.94 329.166L512.84 331.35ZM365.355 370.112C366.559 368.649 367.705 367.14 368.792 365.587L370.795 366.989C369.671 368.594 368.487 370.154 367.242 371.666L365.355 370.112ZM259.33 395.491C260.239 395.691 261.162 395.867 262.099 396.018C263.087 396.177 264.069 396.329 265.044 396.474L264.685 398.892C263.7 398.746 262.708 398.593 261.71 398.432C260.727 398.274 259.759 398.089 258.804 397.878L259.33 395.491ZM270.812 397.256C272.708 397.488 274.576 397.692 276.417 397.868L276.185 400.301C274.321 400.124 272.432 399.918 270.515 399.683L270.812 397.256ZM523.287 336.699C521.545 335.793 519.803 334.894 518.062 334.002L519.176 331.826C520.922 332.72 522.668 333.621 524.415 334.53L523.287 336.699ZM357.458 378.266C358.888 377.01 360.257 375.705 361.568 374.351L363.324 376.052C361.968 377.452 360.551 378.804 359.071 380.103L357.458 378.266ZM282.221 398.335C284.166 398.463 286.079 398.557 287.961 398.62L287.88 401.063C285.971 401 284.032 400.904 282.061 400.775L282.221 398.335ZM348.338 385.06C349.968 384.036 351.537 382.959 353.048 381.834L354.509 383.795C352.946 384.959 351.324 386.071 349.64 387.13L348.338 385.06ZM293.618 398.713C295.598 398.712 297.541 398.673 299.447 398.598L299.543 401.041C297.604 401.117 295.63 401.157 293.62 401.158L293.618 398.713ZM533.651 342.171C531.939 341.253 530.227 340.342 528.514 339.438L529.656 337.276C531.372 338.183 533.089 339.096 534.806 340.016L533.651 342.171ZM338.273 390.383C340.055 389.6 341.779 388.767 343.447 387.884L344.59 390.046C342.869 390.956 341.091 391.815 339.257 392.621L338.273 390.383ZM305.057 398.267C307.03 398.11 308.961 397.912 310.852 397.674L311.157 400.1C309.229 400.342 307.26 400.544 305.251 400.704L305.057 398.267ZM316.445 396.835C318.376 396.497 320.26 396.115 322.099 395.69L322.649 398.072C320.767 398.507 318.839 398.898 316.866 399.243L316.445 396.835ZM327.574 394.26C329.447 393.713 331.268 393.117 333.039 392.476L333.871 394.775C332.052 395.434 330.181 396.045 328.26 396.607L327.574 394.26ZM543.921 347.753C542.21 346.81 540.499 345.873 538.787 344.943L539.955 342.795C541.671 343.728 543.386 344.667 545.101 345.613L543.921 347.753ZM554.178 353.489C552.47 352.521 550.761 351.558 549.052 350.603L550.245 348.469C551.959 349.427 553.672 350.391 555.384 351.362L554.178 353.489ZM564.314 359.313C562.63 358.333 560.945 357.358 559.259 356.389L560.477 354.269C562.167 355.24 563.857 356.218 565.545 357.201L564.314 359.313ZM574.401 365.264C572.723 364.261 571.043 363.264 569.362 362.272L570.605 360.166C572.29 361.161 573.973 362.16 575.656 363.166L574.401 365.264ZM584.439 371.341C582.771 370.318 581.102 369.301 579.43 368.289L580.696 366.198C582.372 367.212 584.045 368.232 585.717 369.257L584.439 371.341ZM594.38 377.513C592.728 376.474 591.073 375.441 589.416 374.412L590.706 372.335C592.367 373.366 594.025 374.402 595.681 375.443L594.38 377.513ZM604.263 383.803C602.621 382.745 600.977 381.692 599.33 380.644L600.642 378.581C602.293 379.632 603.942 380.688 605.587 381.748L604.263 383.803ZM614.08 390.206C612.45 389.13 610.816 388.058 609.18 386.99L610.515 384.943C612.156 386.013 613.793 387.087 615.427 388.166L614.08 390.206ZM623.821 396.716C622.205 395.622 620.585 394.533 618.961 393.448L620.319 391.415C621.947 392.503 623.571 393.595 625.191 394.691L623.821 396.716ZM633.477 403.326C631.875 402.216 630.27 401.11 628.661 400.009L630.042 397.991C631.655 399.096 633.264 400.204 634.869 401.316L633.477 403.326ZM643.082 410.062C641.487 408.93 639.888 407.802 638.285 406.678L639.689 404.676C641.296 405.803 642.899 406.934 644.497 408.069L643.082 410.062ZM652.595 416.898C651.019 415.751 649.438 414.608 647.853 413.469L649.279 411.484C650.869 412.626 652.453 413.771 654.033 414.92L652.595 416.898ZM662.003 423.823C660.444 422.661 658.879 421.502 657.309 420.347L658.759 418.378C660.332 419.536 661.901 420.698 663.464 421.863L662.003 423.823ZM671.389 430.905C669.836 429.719 668.277 428.535 666.712 427.355L668.185 425.403C669.753 426.587 671.316 427.773 672.873 428.963L671.389 430.905ZM680.637 438.06C679.108 436.862 677.572 435.667 676.031 434.474L677.527 432.54C679.072 433.736 680.611 434.934 682.145 436.136L680.637 438.06ZM689.81 445.34C688.282 444.112 686.748 442.886 685.206 441.663L686.726 439.748C688.271 440.974 689.81 442.203 691.342 443.434L689.81 445.34ZM698.916 452.757C697.412 451.516 695.902 450.277 694.384 449.041L695.928 447.145C697.45 448.385 698.964 449.627 700.472 450.871L698.916 452.757ZM707.848 460.23C706.375 458.98 704.893 457.732 703.404 456.487L704.973 454.612C706.466 455.861 707.952 457.112 709.429 458.365L707.848 460.23ZM716.776 467.908C715.299 466.619 713.813 465.332 712.319 464.047L713.913 462.194C715.411 463.482 716.902 464.773 718.383 466.066L716.776 467.908ZM725.537 475.662C724.095 474.367 722.643 473.072 721.183 471.78L722.803 469.949C724.268 471.246 725.724 472.544 727.171 473.843L725.537 475.662ZM734.162 483.527C732.73 482.201 731.289 480.877 729.838 479.554L731.485 477.747C732.94 479.074 734.386 480.403 735.823 481.733L734.162 483.527ZM742.738 491.596C741.33 490.249 739.91 488.903 738.481 487.558L740.156 485.777C741.59 487.127 743.014 488.477 744.428 489.829L742.738 491.596ZM751.062 499.69C749.697 498.34 748.32 496.99 746.933 495.641L748.637 493.888C750.029 495.242 751.411 496.596 752.781 497.952L751.062 499.69ZM759.377 508.063C758.007 506.658 756.625 505.253 755.23 503.849L756.965 502.126C758.365 503.536 759.752 504.946 761.128 506.356L759.377 508.063ZM767.445 516.496C766.126 515.09 764.794 513.685 763.449 512.279L765.216 510.589C766.566 512 767.903 513.412 769.228 514.823L767.445 516.496ZM775.363 525.111C774.044 523.646 772.711 522.18 771.362 520.714L773.162 519.059C774.516 520.531 775.856 522.004 777.181 523.476L775.363 525.111ZM783.119 533.924C781.857 532.457 780.58 530.989 779.287 529.52L781.122 527.904C782.421 529.38 783.705 530.856 784.973 532.33L783.119 533.924ZM790.58 542.814C789.356 541.318 788.115 539.822 786.858 538.324L788.73 536.752C789.994 538.257 791.241 539.762 792.472 541.265L790.58 542.814ZM797.935 552.048C796.746 550.513 795.539 548.975 794.313 547.436L796.225 545.913C797.458 547.461 798.673 549.007 799.868 550.552L797.935 552.048ZM804.863 561.268C803.743 559.731 802.604 558.191 801.445 556.649L803.4 555.181C804.566 556.732 805.712 558.282 806.839 559.829L804.863 561.268ZM811.681 570.964C810.59 569.354 809.476 567.741 808.339 566.125L810.339 564.719C811.483 566.346 812.605 567.971 813.704 569.592L811.681 570.964ZM817.961 580.601C816.96 578.999 815.934 577.393 814.884 575.783L816.932 574.448C817.99 576.07 819.024 577.689 820.034 579.305L817.961 580.601ZM824.031 590.783C823.075 589.096 822.091 587.404 821.08 585.707L823.18 584.455C824.2 586.167 825.193 587.875 826.158 589.578L824.031 590.783ZM829.474 600.947C828.617 599.247 827.729 597.54 826.812 595.828L828.967 594.673C829.894 596.403 830.791 598.128 831.657 599.847L829.474 600.947ZM834.473 611.607C833.71 609.846 832.912 608.076 832.078 606.299L834.291 605.261C835.135 607.059 835.944 608.851 836.717 610.635L834.473 611.607ZM838.735 622.397C838.083 620.564 837.39 618.72 836.656 616.868L838.929 615.967C839.673 617.846 840.377 619.717 841.038 621.578L838.735 622.397ZM842.189 633.457C841.702 631.637 841.17 629.804 840.594 627.96L842.927 627.231C843.513 629.106 844.055 630.971 844.551 632.825L842.189 633.457ZM844.678 644.865C844.36 642.958 843.989 641.037 843.565 639.102L845.953 638.578C846.386 640.553 846.765 642.515 847.089 644.463L844.678 644.865ZM845.74 653.341C845.663 652.411 845.572 651.477 845.468 650.539L847.898 650.268C848.005 651.229 848.098 652.186 848.177 653.139L845.74 653.341Z" fill="url(#paint0_linear_682_2316)"/>
<defs>
<linearGradient id="paint0_linear_682_2316" x1="439.367" y1="407.331" x2="436.116" y2="-440.305" gradientUnits="userSpaceOnUse">
<stop stop-color="#1E695A"/>
<stop offset="1" stop-color="#7EFF9B"/>
</linearGradient>
</defs>
</svg>
