<svg width="28" height="28" viewBox="0 0 28 28" fill="none" xmlns="http://www.w3.org/2000/svg">
<rect x="0.411765" y="0.411765" width="27.1765" height="27.1765" rx="13.5882" fill="white"/>
<rect x="0.411765" y="0.411765" width="27.1765" height="27.1765" rx="13.5882" stroke="white" stroke-width="0.823529"/>
<g clip-path="url(#clip0_242_1427)">
<path d="M12.6384 9.8931C12.9694 10.2241 13.7906 10.3914 14.5365 10.4752C15.4973 10.585 16.4729 10.5435 17.4123 10.3169C18.1167 10.1469 18.9032 9.87348 19.3296 9.44702M19.3296 9.44702C18.9032 9.87348 18.6293 10.6604 18.4597 11.3643C18.2336 12.3042 18.1921 13.2798 18.3009 14.2397C18.3852 14.986 18.5534 15.8082 18.8835 16.1383M19.3296 9.44702L8.62364 20.153" stroke="#1A3D36" stroke-width="1.26171"/>
</g>
<defs>
<clipPath id="clip0_242_1427">
<rect width="15.1405" height="15.1405" fill="white" transform="translate(13.9766 4.09375) rotate(45)"/>
</clipPath>
</defs>
</svg>
